outward-block.ufo
<glyph name="exclam" format="2">
  <advance width="79"/>
  <unicode hex="0021"/>
  <outline>
    <contour>
      <point x="0" y="0" type="line"/>
      <point x="0" y="146" type="line"/>
      <point x="67" y="146" type="line"/>
      <point x="67" y="0" type="line"/>
    </contour>
    <contour>
      <point x="0" y="158" type="line"/>
      <point x="0" y="700" type="line"/>
      <point x="67" y="700" type="line"/>
      <point x="67" y="158" type="line"/>
    </contour>
  </outline>
</glyph>
<glyph name="numbersign" format="2">
  <advance width="237"/>
  <unicode hex="0023"/>
  <outline>
    <contour>
      <point x="225" y="356" type="line"/>
      <point x="185" y="356" type="line"/>
      <point x="185" y="344" type="line"/>
      <point x="225" y="344" type="line"/>
      <point x="225" y="277" type="line"/>
      <point x="185" y="277" type="line"/>
      <point x="185" y="0" type="line"/>
      <point x="118" y="0" type="line"/>
      <point x="118" y="277" type="line"/>
      <point x="106" y="277" type="line"/>
      <point x="106" y="0" type="line"/>
      <point x="39" y="0" type="line"/>
      <point x="39" y="277" type="line"/>
      <point x="0" y="277" type="line"/>
      <point x="0" y="344" type="line"/>
      <point x="39" y="344" type="line"/>
      <point x="39" y="356" type="line"/>
      <point x="0" y="356" type="line"/>
      <point x="0" y="423" type="line"/>
      <point x="39" y="423" type="line"/>
      <point x="39" y="700" type="line"/>
      <point x="106" y="700" type="line"/>
      <point x="106" y="423" type="line"/>
      <point x="118" y="423" type="line"/>
      <point x="118" y="700" type="line"/>
      <point x="185" y="700" type="line"/>
      <point x="185" y="423" type="line"/>
      <point x="225" y="423" type="line"/>
    </contour>
    <contour>
      <point x="118" y="344" type="line"/>
      <point x="118" y="356" type="line"/>
      <point x="106" y="356" type="line"/>
      <point x="106" y="344" type="line"/>
    </contour>
  </outline>
</glyph>
<glyph name="dollar" format="2">
  <advance width="237"/>
  <unicode hex="0024"/>
  <outline>
    <contour>
      <point x="192" y="621" type="line" smooth="yes"/>
      <point x="206" y="621"/>
      <point x="225" y="601"/>
      <point x="225" y="587" type="qcurve" smooth="yes"/>
      <point x="225" y="396" type="line"/>
      <point x="158" y="396" type="line"/>
      <point x="158" y="554" type="line"/>
      <point x="146" y="554" type="line"/>
      <point x="146" y="384" type="line"/>
      <point x="192" y="384" type="line" smooth="yes"/>
      <point x="206" y="384"/>
      <point x="225" y="364"/>
      <point x="225" y="350" type="qcurve" smooth="yes"/>
      <point x="225" y="113" type="line" smooth="yes"/>
      <point x="225" y="99"/>
      <point x="206" y="79"/>
      <point x="192" y="79" type="qcurve" smooth="yes"/>
      <point x="146" y="79" type="line"/>
      <point x="146" y="0" type="line"/>
      <point x="79" y="0" type="line"/>
      <point x="79" y="79" type="line"/>
      <point x="33" y="79" type="line" smooth="yes"/>
      <point x="19" y="79"/>
      <point x="0" y="99"/>
      <point x="0" y="113" type="qcurve" smooth="yes"/>
      <point x="0" y="304" type="line"/>
      <point x="67" y="304" type="line"/>
      <point x="67" y="146" type="line"/>
      <point x="79" y="146" type="line"/>
      <point x="79" y="317" type="line"/>
      <point x="33" y="317" type="line" smooth="yes"/>
      <point x="19" y="317"/>
      <point x="0" y="336"/>
      <point x="0" y="350" type="qcurve" smooth="yes"/>
      <point x="0" y="587" type="line" smooth="yes"/>
      <point x="0" y="601"/>
      <point x="19" y="621"/>
      <point x="33" y="621" type="qcurve" smooth="yes"/>
      <point x="79" y="621" type="line"/>
      <point x="79" y="700" type="line"/>
      <point x="146" y="700" type="line"/>
      <point x="146" y="621" type="line"/>
    </contour>
    <contour>
      <point x="146" y="317" type="line"/>
      <point x="146" y="146" type="line"/>
      <point x="158" y="146" type="line"/>
      <point x="158" y="317" type="line"/>
    </contour>
    <contour>
      <point x="79" y="554" type="line"/>
      <point x="67" y="554" type="line"/>
      <point x="67" y="384" type="line"/>
      <point x="79" y="384" type="line"/>
    </contour>
  </outline>
</glyph>
<glyph name="percent" format="2">
  <advance width="237"/>
  <unicode hex="0025"/>
  <outline>
    <contour>
      <point x="192" y="0" type="qcurve" smooth="yes"/>
      <point x="113" y="0" type="line" smooth="yes"/>
      <point x="99" y="0"/>
      <point x="79" y="19"/>
      <point x="79" y="33" type="qcurve" smooth="yes"/>
      <point x="79" y="271" type="line" smooth="yes"/>
      <point x="79" y="285"/>
      <point x="99" y="304"/>
      <point x="113" y="304" type="qcurve" smooth="yes"/>
      <point x="192" y="304" type="line" smooth="yes"/>
      <point x="206" y="304"/>
      <point x="225" y="285"/>
      <point x="225" y="271" type="qcurve" smooth="yes"/>
      <point x="225" y="33" type="line" smooth="yes"/>
      <point x="225" y="19"/>
      <point x="206" y="0"/>
    </contour>
    <contour>
      <point x="146" y="67" type="line"/>
      <point x="158" y="67" type="line"/>
      <point x="158" y="237" type="line"/>
      <point x="146" y="237" type="line"/>
    </contour>
    <contour>
      <point x="67" y="0" type="line"/>
      <point x="0" y="0" type="line"/>
      <point x="0" y="350" type="line" smooth="yes"/>
      <point x="0" y="364"/>
      <point x="19" y="383"/>
      <point x="33" y="383" type="qcurve" smooth="yes"/>
      <point x="158" y="383" type="line"/>
      <point x="158" y="700" type="line"/>
      <point x="225" y="700" type="line"/>
      <point x="225" y="350" type="line" smooth="yes"/>
      <point x="225" y="336"/>
      <point x="206" y="316"/>
      <point x="192" y="316" type="qcurve" smooth="yes"/>
      <point x="67" y="316" type="line"/>
    </contour>
    <contour>
      <point x="113" y="396" type="qcurve" smooth="yes"/>
      <point x="33" y="396" type="line" smooth="yes"/>
      <point x="19" y="396"/>
      <point x="0" y="415"/>
      <point x="0" y="429" type="qcurve" smooth="yes"/>
      <point x="0" y="666" type="line" smooth="yes"/>
      <point x="0" y="680"/>
      <point x="19" y="700"/>
      <point x="33" y="700" type="qcurve" smooth="yes"/>
      <point x="113" y="700" type="line" smooth="yes"/>
      <point x="127" y="700"/>
      <point x="146" y="680"/>
      <point x="146" y="666" type="qcurve" smooth="yes"/>
      <point x="146" y="429" type="line" smooth="yes"/>
      <point x="146" y="415"/>
      <point x="127" y="396"/>
    </contour>
    <contour>
      <point x="67" y="463" type="line"/>
      <point x="79" y="463" type="line"/>
      <point x="79" y="633" type="line"/>
      <point x="67" y="633" type="line"/>
    </contour>
  </outline>
</glyph>
<glyph name="ampersand" format="2">
  <advance width="198"/>
  <unicode hex="0026"/>
  <outline>
    <contour>
      <point x="113" y="0" type="qcurve" smooth="yes"/>
      <point x="33" y="0" type="line" smooth="yes"/>
      <point x="19" y="0"/>
      <point x="0" y="19"/>
      <point x="0" y="33" type="qcurve" smooth="yes"/>
      <point x="0" y="350" type="line" smooth="yes"/>
      <point x="0.0" y="357.0" name="inserted"/>
      <point x="5.0" y="369.0"/>
      <point x="10" y="374" type="qcurve" smooth="yes"/>
      <point x="26" y="390" type="line"/>
      <point x="10" y="405" type="line" smooth="yes"/>
      <point x="5.0" y="410.0" name="inserted"/>
      <point x="0.0" y="422.0"/>
      <point x="0" y="429" type="qcurve" smooth="yes"/>
      <point x="0" y="666" type="line" smooth="yes"/>
      <point x="0" y="680"/>
      <point x="19" y="700"/>
      <point x="33" y="700" type="qcurve" smooth="yes"/>
      <point x="113" y="700" type="line" smooth="yes"/>
      <point x="127" y="700"/>
      <point x="146" y="680"/>
      <point x="146" y="666" type="qcurve" smooth="yes"/>
      <point x="146" y="429" type="line" smooth="yes"/>
      <point x="146.0" y="422.0" name="inserted"/>
      <point x="141.0" y="410.0"/>
      <point x="136" y="405" type="qcurve" smooth="yes"/>
      <point x="73" y="342" type="line"/>
      <point x="67" y="336" type="line"/>
      <point x="67" y="67" type="line"/>
      <point x="79" y="67" type="line"/>
      <point x="79" y="310" type="line" smooth="yes"/>
      <point x="79" y="324"/>
      <point x="99" y="344"/>
      <point x="113" y="344" type="qcurve" smooth="yes"/>
      <point x="186" y="344" type="line"/>
      <point x="186" y="277" type="line"/>
      <point x="146" y="277" type="line"/>
      <point x="146" y="33" type="line" smooth="yes"/>
      <point x="146" y="19"/>
      <point x="127" y="0"/>
    </contour>
    <contour>
      <point x="67" y="443" type="line"/>
      <point x="73" y="437" type="line"/>
      <point x="79" y="443" type="line"/>
      <point x="79" y="633" type="line"/>
      <point x="67" y="633" type="line"/>
    </contour>
  </outline>
</glyph>
<glyph name="quotesingle" format="2">
  <advance width="79"/>
  <unicode hex="0027"/>
  <outline>
    <contour>
      <point x="0" y="554" type="line"/>
      <point x="0" y="700" type="line"/>
      <point x="67" y="700" type="line"/>
      <point x="67" y="554" type="line"/>
      <point x="0" y="554" type="line"/>
    </contour>
  </outline>
</glyph>
<glyph name="parenleft" format="2">
  <advance width="119"/>
  <unicode hex="0028"/>
  <outline>
    <contour>
      <point x="0" y="667" type="line"/>
      <point x="0" y="681"/>
      <point x="19" y="700"/>
      <point x="33" y="700" type="qcurve" smooth="yes"/>
      <point x="107" y="700" type="line"/>
      <point x="107" y="633" type="line"/>
      <point x="67" y="633" type="line"/>
      <point x="67" y="67" type="line"/>
      <point x="107" y="67" type="line"/>
      <point x="107" y="0" type="line"/>
      <point x="33" y="0" type="line" smooth="yes"/>
      <point x="19" y="0"/>
      <point x="0" y="19"/>
      <point x="0" y="33" type="qcurve" smooth="yes"/>
      <point x="0" y="667" type="line"/>
    </contour>
  </outline>
</glyph>
<glyph name="parenright" format="2">
  <advance width="119"/>
  <unicode hex="0029"/>
  <outline>
    <contour>
      <point x="74" y="700" type="line"/>
      <point x="88" y="700"/>
      <point x="107" y="681"/>
      <point x="107" y="667" type="qcurve" smooth="yes"/>
      <point x="107" y="33" type="line" smooth="yes"/>
      <point x="107" y="19"/>
      <point x="88" y="0"/>
      <point x="74" y="0" type="qcurve" smooth="yes"/>
      <point x="0" y="0" type="line"/>
      <point x="0" y="67" type="line"/>
      <point x="40" y="67" type="line"/>
      <point x="40" y="633" type="line"/>
      <point x="0" y="633" type="line"/>
      <point x="0" y="700" type="line"/>
      <point x="74" y="700" type="line"/>
    </contour>
  </outline>
</glyph>
<glyph name="asterisk" format="2">
  <advance width="237"/>
  <unicode hex="002A"/>
  <outline>
    <contour>
      <point x="146" y="475" type="line"/>
      <point x="79" y="475" type="line"/>
      <point x="79" y="554" type="line"/>
      <point x="0" y="554" type="line"/>
      <point x="0" y="621" type="line"/>
      <point x="79" y="621" type="line"/>
      <point x="79" y="700" type="line"/>
      <point x="146" y="700" type="line"/>
      <point x="146" y="621" type="line"/>
      <point x="225" y="621" type="line"/>
      <point x="225" y="554" type="line"/>
      <point x="146" y="554" type="line"/>
      <point x="146" y="475" type="line"/>
    </contour>
  </outline>
</glyph>
<glyph name="plus" format="2">
  <advance width="237"/>
  <unicode hex="002B"/>
  <outline>
    <contour>
      <point x="146" y="384" type="line"/>
      <point x="146" y="304" type="line"/>
      <point x="225" y="304" type="line"/>
      <point x="225" y="237" type="line"/>
      <point x="146" y="237" type="line"/>
      <point x="146" y="158" type="line"/>
      <point x="79" y="158" type="line"/>
      <point x="79" y="237" type="line"/>
      <point x="0" y="237" type="line"/>
      <point x="0" y="304" type="line"/>
      <point x="79" y="304" type="line"/>
      <point x="79" y="384" type="line"/>
      <point x="146" y="384" type="line"/>
    </contour>
  </outline>
</glyph>
<glyph name="comma" format="2">
  <advance width="79"/>
  <unicode hex="002C"/>
  <outline>
    <contour>
      <point x="0" y="146" type="line"/>
      <point x="67" y="146" type="line"/>
      <point x="67" y="-46" type="line" smooth="yes"/>
      <point x="67" y="-60"/>
      <point x="48" y="-79"/>
      <point x="34" y="-79" type="qcurve" smooth="yes"/>
      <point x="-39" y="-79" type="line"/>
      <point x="-39" y="-12" type="line"/>
      <point x="0" y="-12" type="line"/>
    </contour>
  </outline>
</glyph>
<glyph name="hyphen" format="2">
  <advance width="158"/>
  <unicode hex="002D"/>
  <outline>
    <contour>
      <point x="0" y="238" type="line"/>
      <point x="0" y="305" type="line"/>
      <point x="146" y="305" type="line"/>
      <point x="146" y="238" type="line"/>
      <point x="0" y="238" type="line"/>
    </contour>
  </outline>
</glyph>
<glyph name="period" format="2">
  <advance width="79"/>
  <unicode hex="002E"/>
  <outline>
    <contour>
      <point x="0" y="0" type="line"/>
      <point x="0" y="146" type="line"/>
      <point x="67" y="146" type="line"/>
      <point x="67" y="0" type="line"/>
      <point x="0" y="0" type="line"/>
    </contour>
  </outline>
</glyph>
<glyph name="slash" format="2">
  <advance width="158"/>
  <unicode hex="002F"/>
  <outline>
    <contour>
      <point x="146" y="700" type="line"/>
      <point x="146" y="508" type="line" smooth="yes"/>
      <point x="146.0" y="505.5" name="inserted"/>
      <point x="145.5" y="501.5"/>
      <point x="145" y="500" type="qcurve"/>
      <point x="67" y="188" type="line"/>
      <point x="67" y="0" type="line"/>
      <point x="0" y="0" type="line"/>
      <point x="0" y="192" type="line" smooth="yes"/>
      <point x="0.0" y="194.5" name="inserted"/>
      <point x="0.5" y="198.5"/>
      <point x="1" y="200" type="qcurve"/>
      <point x="79" y="512" type="line"/>
      <point x="79" y="700" type="line"/>
    </contour>
  </outline>
</glyph>
<glyph name="two" format="2">
  <advance width="158"/>
  <unicode hex="0032"/>
  <outline>
    <contour>
      <point x="146" y="0" type="line"/>
      <point x="0" y="0" type="line"/>
      <point x="0" y="350" type="line" smooth="yes"/>
      <point x="0" y="364"/>
      <point x="20" y="383"/>
      <point x="34" y="383" type="qcurve" smooth="yes"/>
      <point x="79" y="383" type="line"/>
      <point x="79" y="633" type="line"/>
      <point x="67" y="633" type="line"/>
      <point x="67" y="395" type="line"/>
      <point x="0" y="395" type="line"/>
      <point x="0" y="666" type="line" smooth="yes"/>
      <point x="0" y="680"/>
      <point x="20" y="700"/>
      <point x="34" y="700" type="qcurve" smooth="yes"/>
      <point x="113" y="700" type="line" smooth="yes"/>
      <point x="127" y="700"/>
      <point x="146" y="680"/>
      <point x="146" y="666" type="qcurve" smooth="yes"/>
      <point x="146" y="350" type="line" smooth="yes"/>
      <point x="146" y="336"/>
      <point x="127" y="316"/>
      <point x="113" y="316" type="qcurve" smooth="yes"/>
      <point x="67" y="316" type="line"/>
      <point x="67" y="67" type="line"/>
      <point x="79" y="67" type="line"/>
      <point x="79" y="304" type="line"/>
      <point x="146" y="304" type="line"/>
    </contour>
  </outline>
</glyph>
<glyph name="five" format="2">
  <advance width="158"/>
  <unicode hex="0035"/>
  <outline>
    <contour>
      <point x="113" y="0" type="qcurve" smooth="yes"/>
      <point x="34" y="0" type="line" smooth="yes"/>
      <point x="20" y="0"/>
      <point x="0" y="19"/>
      <point x="0" y="33" type="qcurve" smooth="yes"/>
      <point x="0" y="304" type="line"/>
      <point x="67" y="304" type="line"/>
      <point x="67" y="67" type="line"/>
      <point x="79" y="67" type="line"/>
      <point x="79" y="316" type="line"/>
      <point x="34" y="316" type="line" smooth="yes"/>
      <point x="20" y="316"/>
      <point x="0" y="336"/>
      <point x="0" y="350" type="qcurve" smooth="yes"/>
      <point x="0" y="700" type="line"/>
      <point x="146" y="700" type="line"/>
      <point x="146" y="395" type="line"/>
      <point x="79" y="395" type="line"/>
      <point x="79" y="633" type="line"/>
      <point x="67" y="633" type="line"/>
      <point x="67" y="383" type="line"/>
      <point x="113" y="383" type="line" smooth="yes"/>
      <point x="127" y="383"/>
      <point x="146" y="364"/>
      <point x="146" y="350" type="qcurve" smooth="yes"/>
      <point x="146" y="33" type="line" smooth="yes"/>
      <point x="146" y="19"/>
      <point x="127" y="0"/>
    </contour>
  </outline>
</glyph>
<glyph name="seven" format="2">
  <advance width="158"/>
  <unicode hex="0037"/>
  <outline>
    <contour>
      <point x="146" y="0" type="line"/>
      <point x="79" y="0" type="line"/>
      <point x="79" y="316" type="line"/>
      <point x="0" y="316" type="line"/>
      <point x="0" y="383" type="line"/>
      <point x="79" y="383" type="line"/>
      <point x="79" y="633" type="line"/>
      <point x="67" y="633" type="line"/>
      <point x="67" y="395" type="line"/>
      <point x="0" y="395" type="line"/>
      <point x="0" y="700" type="line"/>
      <point x="146" y="700" type="line"/>
      <point x="146" y="0" type="line"/>
    </contour>
  </outline>
</glyph>
<glyph name="eight" format="2">
  <advance width="158"/>
  <unicode hex="0038"/>
  <outline>
    <contour>
      <point x="113" y="700" type="line" smooth="yes"/>
      <point x="127" y="700"/>
      <point x="146" y="681"/>
      <point x="146" y="667" type="qcurve" smooth="yes"/>
      <point x="146" y="390" type="line" smooth="yes"/>
      <point x="146.0" y="382.5" name="inserted"/>
      <point x="141.0" y="370.5"/>
      <point x="136" y="366" type="qcurve"/>
      <point x="120" y="350" type="line"/>
      <point x="136" y="334" type="line"/>
      <point x="141.0" y="329.5" name="inserted"/>
      <point x="146.0" y="317.5"/>
      <point x="146" y="310" type="qcurve" smooth="yes"/>
      <point x="146" y="33" type="line" smooth="yes"/>
      <point x="146" y="19"/>
      <point x="127" y="0"/>
      <point x="113" y="0" type="qcurve" smooth="yes"/>
      <point x="33" y="0" type="line" smooth="yes"/>
      <point x="19" y="0"/>
      <point x="0" y="19"/>
      <point x="0" y="33" type="qcurve" smooth="yes"/>
      <point x="0" y="310" type="line" smooth="yes"/>
      <point x="0.0" y="317.0" name="inserted"/>
      <point x="5.0" y="329.0"/>
      <point x="10" y="334" type="qcurve" smooth="yes"/>
      <point x="26" y="350" type="line"/>
      <point x="10" y="366" type="line" smooth="yes"/>
      <point x="5.0" y="371.0" name="inserted"/>
      <point x="0.0" y="383.0"/>
      <point x="0" y="390" type="qcurve" smooth="yes"/>
      <point x="0" y="667" type="line" smooth="yes"/>
      <point x="0" y="681"/>
      <point x="19" y="700"/>
      <point x="33" y="700" type="qcurve" smooth="yes"/>
    </contour>
    <contour>
      <point x="67" y="403" type="line"/>
      <point x="73" y="397" type="line"/>
      <point x="79" y="403" type="line"/>
      <point x="79" y="633" type="line"/>
      <point x="67" y="633" type="line"/>
    </contour>
    <contour>
      <point x="79" y="297" type="line"/>
      <point x="73" y="303" type="line"/>
      <point x="67" y="297" type="line"/>
      <point x="67" y="67" type="line"/>
      <point x="79" y="67" type="line"/>
    </contour>
  </outline>
</glyph>
<glyph name="colon" format="2">
  <advance width="79"/>
  <unicode hex="003A"/>
  <outline>
    <contour>
      <point x="67" y="225" type="line"/>
      <point x="67" y="79" type="line"/>
      <point x="0" y="79" type="line"/>
      <point x="0" y="225" type="line"/>
    </contour>
    <contour>
      <point x="67" y="463" type="line"/>
      <point x="67" y="317" type="line"/>
      <point x="0" y="317" type="line"/>
      <point x="0" y="463" type="line"/>
    </contour>
  </outline>
</glyph>
<glyph name="semicolon" format="2">
  <advance width="119"/>
  <unicode hex="003B"/>
  <outline>
    <contour>
      <point x="40" y="225" type="line"/>
      <point x="107" y="225" type="line"/>
      <point x="107" y="33" type="line" smooth="yes"/>
      <point x="107" y="19"/>
      <point x="88" y="0"/>
      <point x="74" y="0" type="qcurve" smooth="yes"/>
      <point x="0" y="0" type="line"/>
      <point x="0" y="67" type="line"/>
      <point x="40" y="67" type="line"/>
    </contour>
    <contour>
      <point x="107" y="463" type="line"/>
      <point x="107" y="317" type="line"/>
      <point x="40" y="317" type="line"/>
      <point x="40" y="463" type="line"/>
    </contour>
  </outline>
</glyph>
<glyph name="less" format="2">
  <advance width="198"/>
  <unicode hex="003C"/>
  <outline>
    <contour>
      <point x="186" y="158" type="line"/>
      <point x="113" y="158" type="line" smooth="yes"/>
      <point x="106.0" y="158.0" name="inserted"/>
      <point x="94.0" y="163.0"/>
      <point x="89" y="168" type="qcurve" smooth="yes"/>
      <point x="10" y="247" type="line" smooth="yes"/>
      <point x="0" y="257"/>
      <point x="0" y="284"/>
      <point x="10" y="295" type="qcurve" smooth="yes"/>
      <point x="89" y="374" type="line" smooth="yes"/>
      <point x="93.5" y="378.5" name="inserted"/>
      <point x="105.5" y="383.0"/>
      <point x="113" y="383" type="qcurve" smooth="yes"/>
      <point x="186" y="383" type="line"/>
      <point x="186" y="316" type="line"/>
      <point x="126" y="316" type="line"/>
      <point x="81" y="271" type="line"/>
      <point x="126" y="225" type="line"/>
      <point x="186" y="225" type="line"/>
    </contour>
  </outline>
</glyph>
<glyph name="equal" format="2">
  <advance width="198"/>
  <unicode hex="003D"/>
  <outline>
    <contour>
      <point x="0" y="198" type="line"/>
      <point x="0" y="265" type="line"/>
      <point x="186" y="265" type="line"/>
      <point x="186" y="198" type="line"/>
    </contour>
    <contour>
      <point x="0" y="277" type="line"/>
      <point x="0" y="344" type="line"/>
      <point x="186" y="344" type="line"/>
      <point x="186" y="277" type="line"/>
    </contour>
  </outline>
</glyph>
<glyph name="greater" format="2">
  <advance width="198"/>
  <unicode hex="003E"/>
  <outline>
    <contour>
      <point x="73" y="383" type="line" smooth="yes"/>
      <point x="79.5" y="383.0" name="inserted"/>
      <point x="91.5" y="378.5"/>
      <point x="97" y="374" type="qcurve"/>
      <point x="176" y="295" type="line" smooth="yes"/>
      <point x="186" y="284"/>
      <point x="186" y="257"/>
      <point x="176" y="247" type="qcurve" smooth="yes"/>
      <point x="97" y="168" type="line"/>
      <point x="91.0" y="163.0" name="inserted"/>
      <point x="79.0" y="158.0"/>
      <point x="73" y="158" type="qcurve" smooth="yes"/>
      <point x="0" y="158" type="line"/>
      <point x="0" y="225" type="line"/>
      <point x="59" y="225" type="line"/>
      <point x="105" y="271" type="line"/>
      <point x="59" y="316" type="line"/>
      <point x="0" y="316" type="line"/>
      <point x="0" y="383" type="line"/>
    </contour>
  </outline>
</glyph>
<glyph name="question" format="2">
  <advance width="158"/>
  <unicode hex="003F"/>
  <outline>
    <contour>
      <point x="113" y="700" type="line" smooth="yes"/>
      <point x="127" y="700"/>
      <point x="146" y="681"/>
      <point x="146" y="667" type="qcurve" smooth="yes"/>
      <point x="146" y="350" type="line" smooth="yes"/>
      <point x="146" y="336"/>
      <point x="127" y="317"/>
      <point x="113" y="317" type="qcurve" smooth="yes"/>
      <point x="67" y="317" type="line"/>
      <point x="67" y="158" type="line"/>
      <point x="0" y="158" type="line"/>
      <point x="0" y="350" type="line" smooth="yes"/>
      <point x="0" y="364"/>
      <point x="19" y="384"/>
      <point x="33" y="384" type="qcurve" smooth="yes"/>
      <point x="79" y="384" type="line"/>
      <point x="79" y="633" type="line"/>
      <point x="67" y="633" type="line"/>
      <point x="67" y="396" type="line"/>
      <point x="0" y="396" type="line"/>
      <point x="0" y="667" type="line" smooth="yes"/>
      <point x="0" y="681"/>
      <point x="19" y="700"/>
      <point x="33" y="700" type="qcurve" smooth="yes"/>
    </contour>
    <contour>
      <point x="0" y="146" type="line"/>
      <point x="67" y="146" type="line"/>
      <point x="67" y="0" type="line"/>
      <point x="0" y="0" type="line"/>
    </contour>
  </outline>
</glyph>
<glyph name="at" format="2">
  <advance width="237"/>
  <unicode hex="0040"/>
  <outline>
    <contour>
      <point x="158" y="225" type="line"/>
      <point x="158" y="475" type="line"/>
      <point x="146" y="475" type="line"/>
      <point x="146" y="225" type="line"/>
    </contour>
    <contour>
      <point x="225" y="79" type="line"/>
      <point x="34" y="79" type="line" smooth="yes"/>
      <point x="20" y="79"/>
      <point x="0" y="99"/>
      <point x="0" y="113" type="qcurve" smooth="yes"/>
      <point x="0" y="587" type="line" smooth="yes"/>
      <point x="0" y="601"/>
      <point x="20" y="621"/>
      <point x="34" y="621" type="qcurve" smooth="yes"/>
      <point x="192" y="621" type="line" smooth="yes"/>
      <point x="206" y="621"/>
      <point x="225" y="601"/>
      <point x="225" y="587" type="qcurve" smooth="yes"/>
      <point x="225" y="158" type="line"/>
      <point x="113" y="158" type="line" smooth="yes"/>
      <point x="99" y="158"/>
      <point x="79" y="178"/>
      <point x="79" y="192" type="qcurve" smooth="yes"/>
      <point x="79" y="508" type="line" smooth="yes"/>
      <point x="79" y="522"/>
      <point x="99" y="542"/>
      <point x="113" y="542" type="qcurve" smooth="yes"/>
      <point x="158" y="542" type="line"/>
      <point x="158" y="554" type="line"/>
      <point x="67" y="554" type="line"/>
      <point x="67" y="146" type="line"/>
      <point x="225" y="146" type="line"/>
    </contour>
  </outline>
</glyph>
<glyph name="B" format="2">
  <advance width="158"/>
  <unicode hex="0042"/>
  <outline>
    <contour>
      <point x="113" y="0" type="qcurve" smooth="yes"/>
      <point x="0" y="0" type="line"/>
      <point x="0" y="700" type="line"/>
      <point x="113" y="700" type="line" smooth="yes"/>
      <point x="127" y="700"/>
      <point x="146" y="680"/>
      <point x="146" y="666" type="qcurve" smooth="yes"/>
      <point x="146" y="389" type="line" smooth="yes"/>
      <point x="146" y="375"/>
      <point x="127" y="356"/>
      <point x="113" y="356" type="qcurve" smooth="yes"/>
      <point x="67" y="356" type="line"/>
      <point x="67" y="343" type="line"/>
      <point x="113" y="343" type="line" smooth="yes"/>
      <point x="127" y="343"/>
      <point x="146" y="324"/>
      <point x="146" y="310" type="qcurve" smooth="yes"/>
      <point x="146" y="33" type="line" smooth="yes"/>
      <point x="146" y="19"/>
      <point x="127" y="0"/>
    </contour>
    <contour>
      <point x="67" y="67" type="line"/>
      <point x="79" y="67" type="line"/>
      <point x="79" y="276" type="line"/>
      <point x="67" y="276" type="line"/>
    </contour>
    <contour>
      <point x="67" y="423" type="line"/>
      <point x="79" y="423" type="line"/>
      <point x="79" y="633" type="line"/>
      <point x="67" y="633" type="line"/>
    </contour>
  </outline>
</glyph>
<glyph name="C" format="2">
  <advance width="158"/>
  <unicode hex="0043"/>
  <outline>
    <contour>
      <point x="33" y="0" type="line"/>
      <point x="19" y="0"/>
      <point x="0" y="19"/>
      <point x="0" y="33" type="qcurve" smooth="yes"/>
      <point x="0" y="666" type="line" smooth="yes"/>
      <point x="0" y="680"/>
      <point x="19" y="700"/>
      <point x="33" y="700" type="qcurve" smooth="yes"/>
      <point x="113" y="700" type="line" smooth="yes"/>
      <point x="127" y="700"/>
      <point x="146" y="680"/>
      <point x="146" y="666" type="qcurve" smooth="yes"/>
      <point x="146" y="356" type="line"/>
      <point x="79" y="356" type="line"/>
      <point x="79" y="633" type="line"/>
      <point x="67" y="633" type="line"/>
      <point x="67" y="67" type="line"/>
      <point x="79" y="67" type="line"/>
      <point x="79" y="344" type="line"/>
      <point x="146" y="344" type="line"/>
      <point x="146" y="33" type="line" smooth="yes"/>
      <point x="146" y="19"/>
      <point x="127" y="0"/>
      <point x="113" y="0" type="qcurve" smooth="yes"/>
      <point x="33" y="0" type="line"/>
    </contour>
  </outline>
</glyph>
<glyph name="D" format="2">
  <advance width="158"/>
  <unicode hex="0044"/>
  <outline>
    <contour>
      <point x="113" y="700" type="line" smooth="yes"/>
      <point x="127" y="700"/>
      <point x="146" y="680"/>
      <point x="146" y="666" type="qcurve" smooth="yes"/>
      <point x="146" y="34" type="line" smooth="yes"/>
      <point x="146" y="20"/>
      <point x="127" y="0"/>
      <point x="113" y="0" type="qcurve" smooth="yes"/>
      <point x="0" y="0" type="line"/>
      <point x="0" y="700" type="line"/>
    </contour>
    <contour>
      <point x="79" y="67" type="line"/>
      <point x="79" y="633" type="line"/>
      <point x="67" y="633" type="line"/>
      <point x="67" y="67" type="line"/>
    </contour>
  </outline>
</glyph>
<glyph name="E" format="2">
  <advance width="158"/>
  <unicode hex="0045"/>
  <outline>
    <contour>
      <point x="146" y="0" type="line"/>
      <point x="0" y="0" type="line"/>
      <point x="0" y="700" type="line"/>
      <point x="146" y="700" type="line"/>
      <point x="146" y="396" type="line"/>
      <point x="79" y="396" type="line"/>
      <point x="79" y="633" type="line"/>
      <point x="67" y="633" type="line"/>
      <point x="67" y="384" type="line"/>
      <point x="146" y="384" type="line"/>
      <point x="146" y="317" type="line"/>
      <point x="67" y="317" type="line"/>
      <point x="67" y="67" type="line"/>
      <point x="79" y="67" type="line"/>
      <point x="79" y="304" type="line"/>
      <point x="146" y="304" type="line"/>
      <point x="146" y="0" type="line"/>
    </contour>
  </outline>
</glyph>
<glyph name="F" format="2">
  <advance width="158"/>
  <unicode hex="0046"/>
  <outline>
    <contour>
      <point x="67" y="0" type="line"/>
      <point x="0" y="0" type="line"/>
      <point x="0" y="700" type="line"/>
      <point x="146" y="700" type="line"/>
      <point x="146" y="396" type="line"/>
      <point x="79" y="396" type="line"/>
      <point x="79" y="633" type="line"/>
      <point x="67" y="633" type="line"/>
      <point x="67" y="384" type="line"/>
      <point x="146" y="384" type="line"/>
      <point x="146" y="317" type="line"/>
      <point x="67" y="317" type="line"/>
      <point x="67" y="0" type="line"/>
    </contour>
  </outline>
</glyph>
<glyph name="I" format="2">
  <advance width="79"/>
  <unicode hex="0049"/>
  <outline>
    <contour>
      <point x="0" y="700" type="line"/>
      <point x="67" y="700" type="line"/>
      <point x="67" y="0" type="line"/>
      <point x="0" y="0" type="line"/>
    </contour>
  </outline>
</glyph>
<glyph name="J" format="2">
  <advance width="158"/>
  <unicode hex="004A"/>
  <outline>
    <contour>
      <point x="113" y="0" type="qcurve" smooth="yes"/>
      <point x="34" y="0" type="line" smooth="yes"/>
      <point x="20" y="0"/>
      <point x="0" y="20"/>
      <point x="0" y="34" type="qcurve" smooth="yes"/>
      <point x="0" y="344" type="line"/>
      <point x="67" y="344" type="line"/>
      <point x="67" y="67" type="line"/>
      <point x="79" y="67" type="line"/>
      <point x="79" y="633" type="line"/>
      <point x="67" y="633" type="line"/>
      <point x="67" y="554" type="line"/>
      <point x="0" y="554" type="line"/>
      <point x="0" y="700" type="line"/>
      <point x="146" y="700" type="line"/>
      <point x="146" y="34" type="line" smooth="yes"/>
      <point x="146" y="20"/>
      <point x="127" y="0"/>
    </contour>
  </outline>
</glyph>
<glyph name="K" format="2">
  <advance width="158"/>
  <unicode hex="004B"/>
  <outline>
    <contour>
      <point x="67" y="0" type="line"/>
      <point x="0" y="0" type="line"/>
      <point x="0" y="277" type="line"/>
      <point x="0" y="344" type="line"/>
      <point x="0" y="356" type="line"/>
      <point x="0" y="423" type="line"/>
      <point x="0" y="700" type="line"/>
      <point x="67" y="700" type="line"/>
      <point x="67" y="423" type="line"/>
      <point x="79" y="423" type="line"/>
      <point x="79" y="700" type="line"/>
      <point x="146" y="700" type="line"/>
      <point x="146" y="390" type="line" smooth="yes"/>
      <point x="146" y="376"/>
      <point x="127" y="356"/>
      <point x="113" y="356" type="qcurve" smooth="yes"/>
      <point x="67" y="356" type="line"/>
      <point x="67" y="344" type="line"/>
      <point x="113" y="344" type="line" smooth="yes"/>
      <point x="127" y="344"/>
      <point x="146" y="324"/>
      <point x="146" y="310" type="qcurve" smooth="yes"/>
      <point x="146" y="0" type="line"/>
      <point x="79" y="0" type="line"/>
      <point x="79" y="277" type="line"/>
      <point x="67" y="277" type="line"/>
    </contour>
  </outline>
</glyph>
<glyph name="L" format="2">
  <advance width="158"/>
  <unicode hex="004C"/>
  <outline>
    <contour>
      <point x="146" y="0" type="line"/>
      <point x="0" y="0" type="line"/>
      <point x="0" y="700" type="line"/>
      <point x="67" y="700" type="line"/>
      <point x="67" y="67" type="line"/>
      <point x="79" y="67" type="line"/>
      <point x="79" y="344" type="line"/>
      <point x="146" y="344" type="line"/>
      <point x="146" y="0" type="line"/>
    </contour>
  </outline>
</glyph>
<glyph name="M" format="2">
  <advance width="237"/>
  <unicode hex="004D"/>
  <outline>
    <contour>
      <point x="225" y="0" type="line"/>
      <point x="158" y="0" type="line"/>
      <point x="158" y="633" type="line"/>
      <point x="146" y="633" type="line"/>
      <point x="146" y="0" type="line"/>
      <point x="79" y="0" type="line"/>
      <point x="79" y="633" type="line"/>
      <point x="67" y="633" type="line"/>
      <point x="67" y="0" type="line"/>
      <point x="0" y="0" type="line"/>
      <point x="0" y="700" type="line"/>
      <point x="192" y="700" type="line" smooth="yes"/>
      <point x="206" y="700"/>
      <point x="225" y="681"/>
      <point x="225" y="667" type="qcurve" smooth="yes"/>
    </contour>
  </outline>
</glyph>
<glyph name="N" format="2">
  <advance width="237"/>
  <unicode hex="004E"/>
  <outline>
    <contour>
      <point x="225" y="0" type="line"/>
      <point x="113" y="0" type="line" smooth="yes"/>
      <point x="99" y="0"/>
      <point x="79" y="20"/>
      <point x="79" y="34" type="qcurve" smooth="yes"/>
      <point x="79" y="633" type="line"/>
      <point x="67" y="633" type="line"/>
      <point x="67" y="0" type="line"/>
      <point x="0" y="0" type="line"/>
      <point x="0" y="700" type="line"/>
      <point x="113" y="700" type="line" smooth="yes"/>
      <point x="127" y="700"/>
      <point x="146" y="681"/>
      <point x="146" y="667" type="qcurve" smooth="yes"/>
      <point x="146" y="67" type="line"/>
      <point x="158" y="67" type="line"/>
      <point x="158" y="700" type="line"/>
      <point x="225" y="700" type="line"/>
    </contour>
  </outline>
</glyph>
<glyph name="P" format="2">
  <advance width="158"/>
  <unicode hex="0050"/>
  <outline>
    <contour>
      <point x="67" y="0" type="line"/>
      <point x="0" y="0" type="line"/>
      <point x="0" y="700" type="line"/>
      <point x="113" y="700" type="line" smooth="yes"/>
      <point x="127" y="700"/>
      <point x="146" y="681"/>
      <point x="146" y="667" type="qcurve" smooth="yes"/>
      <point x="146" y="350" type="line" smooth="yes"/>
      <point x="146" y="336"/>
      <point x="127" y="317"/>
      <point x="113" y="317" type="qcurve" smooth="yes"/>
      <point x="67" y="317" type="line"/>
    </contour>
    <contour>
      <point x="67" y="384" type="line"/>
      <point x="79" y="384" type="line"/>
      <point x="79" y="633" type="line"/>
      <point x="67" y="633" type="line"/>
    </contour>
  </outline>
</glyph>
<glyph name="R" format="2">
  <advance width="158"/>
  <unicode hex="0052"/>
  <outline>
    <contour>
      <point x="146" y="0" type="line"/>
      <point x="79" y="0" type="line"/>
      <point x="79" y="277" type="line"/>
      <point x="67" y="277" type="line"/>
      <point x="67" y="0" type="line"/>
      <point x="0" y="0" type="line"/>
      <point x="0" y="700" type="line"/>
      <point x="113" y="700" type="line" smooth="yes"/>
      <point x="127" y="700"/>
      <point x="146" y="681"/>
      <point x="146" y="667" type="qcurve" smooth="yes"/>
      <point x="146" y="390" type="line" smooth="yes"/>
      <point x="146" y="376"/>
      <point x="127" y="356"/>
      <point x="113" y="356" type="qcurve" smooth="yes"/>
      <point x="67" y="356" type="line"/>
      <point x="67" y="344" type="line"/>
      <point x="113" y="344" type="line" smooth="yes"/>
      <point x="127" y="344"/>
      <point x="146" y="324"/>
      <point x="146" y="310" type="qcurve" smooth="yes"/>
    </contour>
    <contour>
      <point x="67" y="423" type="line"/>
      <point x="79" y="423" type="line"/>
      <point x="79" y="633" type="line"/>
      <point x="67" y="633" type="line"/>
    </contour>
  </outline>
</glyph>
<glyph name="S" format="2">
  <advance width="158"/>
  <unicode hex="0053"/>
  <outline>
    <contour>
      <point x="33" y="0" type="line"/>
      <point x="19" y="0"/>
      <point x="0" y="19"/>
      <point x="0" y="33" type="qcurve" smooth="yes"/>
      <point x="0" y="304" type="line"/>
      <point x="67" y="304" type="line"/>
      <point x="67" y="67" type="line"/>
      <point x="79" y="67" type="line"/>
      <point x="79" y="317" type="line"/>
      <point x="33" y="317" type="line" smooth="yes"/>
      <point x="19" y="317"/>
      <point x="0" y="336"/>
      <point x="0" y="350" type="qcurve" smooth="yes"/>
      <point x="0" y="667" type="line" smooth="yes"/>
      <point x="0" y="681"/>
      <point x="19" y="700"/>
      <point x="33" y="700" type="qcurve" smooth="yes"/>
      <point x="113" y="700" type="line" smooth="yes"/>
      <point x="127" y="700"/>
      <point x="146" y="681"/>
      <point x="146" y="667" type="qcurve" smooth="yes"/>
      <point x="146" y="396" type="line"/>
      <point x="79" y="396" type="line"/>
      <point x="79" y="633" type="line"/>
      <point x="67" y="633" type="line"/>
      <point x="67" y="384" type="line"/>
      <point x="113" y="384" type="line" smooth="yes"/>
      <point x="127" y="384"/>
      <point x="146" y="364"/>
      <point x="146" y="350" type="qcurve" smooth="yes"/>
      <point x="146" y="33" type="line" smooth="yes"/>
      <point x="146" y="19"/>
      <point x="127" y="0"/>
      <point x="113" y="0" type="qcurve" smooth="yes"/>
      <point x="33" y="0" type="line"/>
    </contour>
  </outline>
</glyph>
<glyph name="T" format="2">
  <advance width="237"/>
  <unicode hex="0054"/>
  <outline>
    <contour>
      <point x="146" y="0" type="line"/>
      <point x="79" y="0" type="line"/>
      <point x="79" y="633" type="line"/>
      <point x="67" y="633" type="line"/>
      <point x="67" y="356" type="line"/>
      <point x="0" y="356" type="line"/>
      <point x="0" y="700" type="line"/>
      <point x="225" y="700" type="line"/>
      <point x="225" y="356" type="line"/>
      <point x="158" y="356" type="line"/>
      <point x="158" y="633" type="line"/>
      <point x="146" y="633" type="line"/>
      <point x="146" y="0" type="line"/>
    </contour>
  </outline>
</glyph>
<glyph name="U" format="2">
  <advance width="158"/>
  <unicode hex="0055"/>
  <outline>
    <contour>
      <point x="33" y="0" type="line"/>
      <point x="19" y="0"/>
      <point x="0" y="19"/>
      <point x="0" y="33" type="qcurve" smooth="yes"/>
      <point x="0" y="700" type="line"/>
      <point x="67" y="700" type="line"/>
      <point x="67" y="67" type="line"/>
      <point x="79" y="67" type="line"/>
      <point x="79" y="700" type="line"/>
      <point x="146" y="700" type="line"/>
      <point x="146" y="33" type="line" smooth="yes"/>
      <point x="146" y="19"/>
      <point x="127" y="0"/>
      <point x="113" y="0" type="qcurve" smooth="yes"/>
      <point x="33" y="0" type="line"/>
    </contour>
  </outline>
</glyph>
<glyph name="V" format="2">
  <advance width="158"/>
  <unicode hex="0056"/>
  <outline>
    <contour>
      <point x="146" y="0" type="line"/>
      <point x="52" y="0" type="line"/>
      <point x="0" y="104" type="line"/>
      <point x="0" y="700" type="line"/>
      <point x="67" y="700" type="line"/>
      <point x="67" y="120" type="line"/>
      <point x="79" y="67" type="line"/>
      <point x="79" y="700" type="line"/>
      <point x="146" y="700" type="line"/>
      <point x="146" y="0" type="line"/>
    </contour>
  </outline>
</glyph>
<glyph name="W" format="2">
  <advance width="237"/>
  <unicode hex="0057"/>
  <outline>
    <contour>
      <point x="33" y="0" type="line" smooth="yes"/>
      <point x="19" y="0"/>
      <point x="0" y="20"/>
      <point x="0" y="34" type="qcurve" smooth="yes"/>
      <point x="0" y="700" type="line"/>
      <point x="67" y="700" type="line"/>
      <point x="67" y="67" type="line"/>
      <point x="79" y="67" type="line"/>
      <point x="79" y="700" type="line"/>
      <point x="146" y="700" type="line"/>
      <point x="146" y="67" type="line"/>
      <point x="158" y="67" type="line"/>
      <point x="158" y="700" type="line"/>
      <point x="225" y="700" type="line"/>
      <point x="225" y="0" type="line"/>
    </contour>
  </outline>
</glyph>
<glyph name="X" format="2">
  <advance width="158"/>
  <unicode hex="0058"/>
  <outline>
    <contour>
      <point x="79" y="700" type="line"/>
      <point x="146" y="700" type="line"/>
      <point x="146" y="390" type="line" smooth="yes"/>
      <point x="146" y="376"/>
      <point x="127" y="356"/>
      <point x="113" y="356" type="qcurve" smooth="yes"/>
      <point x="107" y="356" type="line"/>
      <point x="107" y="344" type="line"/>
      <point x="113" y="344" type="line" smooth="yes"/>
      <point x="127" y="344"/>
      <point x="146" y="324"/>
      <point x="146" y="310" type="qcurve" smooth="yes"/>
      <point x="146" y="0" type="line"/>
      <point x="79" y="0" type="line"/>
      <point x="79" y="277" type="line"/>
      <point x="67" y="277" type="line"/>
      <point x="67" y="0" type="line"/>
      <point x="0" y="0" type="line"/>
      <point x="0" y="310" type="line" smooth="yes"/>
      <point x="0" y="324"/>
      <point x="19" y="344"/>
      <point x="33" y="344" type="qcurve" smooth="yes"/>
      <point x="40" y="344" type="line"/>
      <point x="40" y="356" type="line"/>
      <point x="33" y="356" type="line" smooth="yes"/>
      <point x="19" y="356"/>
      <point x="0" y="376"/>
      <point x="0" y="390" type="qcurve" smooth="yes"/>
      <point x="0" y="700" type="line"/>
      <point x="67" y="700" type="line"/>
      <point x="67" y="423" type="line"/>
      <point x="79" y="423" type="line"/>
    </contour>
  </outline>
</glyph>
<glyph name="Y" format="2">
  <advance width="158"/>
  <unicode hex="0059"/>
  <outline>
    <contour>
      <point x="79" y="700" type="line"/>
      <point x="146" y="700" type="line"/>
      <point x="146" y="350" type="line" smooth="yes"/>
      <point x="146" y="336"/>
      <point x="127" y="317"/>
      <point x="113" y="317" type="qcurve" smooth="yes"/>
      <point x="107" y="317" type="line"/>
      <point x="107" y="0" type="line"/>
      <point x="40" y="0" type="line"/>
      <point x="40" y="317" type="line"/>
      <point x="33" y="317" type="line" smooth="yes"/>
      <point x="19" y="317"/>
      <point x="0" y="336"/>
      <point x="0" y="350" type="qcurve" smooth="yes"/>
      <point x="0" y="700" type="line"/>
      <point x="67" y="700" type="line"/>
      <point x="67" y="384" type="line"/>
      <point x="79" y="384" type="line"/>
    </contour>
  </outline>
</glyph>
<glyph name="Z" format="2">
  <advance width="158"/>
  <unicode hex="005A"/>
  <outline>
    <contour>
      <point x="146" y="0" type="line"/>
      <point x="0" y="0" type="line"/>
      <point x="0" y="310" type="line" smooth="yes"/>
      <point x="0.0" y="317.0" name="inserted"/>
      <point x="5.0" y="329.0"/>
      <point x="10" y="334" type="qcurve" smooth="yes"/>
      <point x="79" y="403" type="line"/>
      <point x="79" y="633" type="line"/>
      <point x="67" y="633" type="line"/>
      <point x="67" y="435" type="line"/>
      <point x="0" y="435" type="line"/>
      <point x="0" y="700" type="line"/>
      <point x="146" y="700" type="line"/>
      <point x="146" y="390" type="line" smooth="yes"/>
      <point x="146.0" y="382.5" name="inserted"/>
      <point x="141.0" y="370.5"/>
      <point x="136" y="366" type="qcurve"/>
      <point x="67" y="296" type="line"/>
      <point x="67" y="67" type="line"/>
      <point x="79" y="67" type="line"/>
      <point x="79" y="265" type="line"/>
      <point x="146" y="265" type="line"/>
    </contour>
  </outline>
</glyph>
<glyph name="bracketleft" format="2">
  <advance width="158"/>
  <unicode hex="005B"/>
  <outline>
    <contour>
      <point x="146" y="0" type="line"/>
      <point x="0" y="0" type="line"/>
      <point x="0" y="700" type="line"/>
      <point x="146" y="700" type="line"/>
      <point x="146" y="633" type="line"/>
      <point x="67" y="633" type="line"/>
      <point x="67" y="67" type="line"/>
      <point x="146" y="67" type="line"/>
      <point x="146" y="0" type="line"/>
    </contour>
  </outline>
</glyph>
<glyph name="backslash" format="2">
  <advance width="158"/>
  <unicode hex="005C"/>
  <outline>
    <contour>
      <point x="67" y="700" type="line"/>
      <point x="67" y="512" type="line"/>
      <point x="145" y="200" type="line"/>
      <point x="145.5" y="198.5" name="inserted"/>
      <point x="146.0" y="194.5"/>
      <point x="146" y="192" type="qcurve" smooth="yes"/>
      <point x="146" y="0" type="line"/>
      <point x="79" y="0" type="line"/>
      <point x="79" y="188" type="line"/>
      <point x="1" y="500" type="line"/>
      <point x="0.5" y="501.5" name="inserted"/>
      <point x="0.0" y="505.5"/>
      <point x="0" y="508" type="qcurve" smooth="yes"/>
      <point x="0" y="700" type="line"/>
    </contour>
  </outline>
</glyph>
<glyph name="bracketright" format="2">
  <advance width="158"/>
  <unicode hex="005D"/>
  <outline>
    <contour>
      <point x="146" y="0" type="line"/>
      <point x="0" y="0" type="line"/>
      <point x="0" y="67" type="line"/>
      <point x="79" y="67" type="line"/>
      <point x="79" y="633" type="line"/>
      <point x="0" y="633" type="line"/>
      <point x="0" y="700" type="line"/>
      <point x="146" y="700" type="line"/>
      <point x="146" y="0" type="line"/>
    </contour>
  </outline>
</glyph>
<glyph name="asciicircum" format="2">
  <advance width="158"/>
  <unicode hex="005E"/>
  <outline>
    <contour>
      <point x="146" y="554" type="line"/>
      <point x="79" y="554" type="line"/>
      <point x="79" y="613" type="line"/>
      <point x="73" y="619" type="line"/>
      <point x="67" y="613" type="line"/>
      <point x="67" y="554" type="line"/>
      <point x="0" y="554" type="line"/>
      <point x="0" y="627" type="line" smooth="yes"/>
      <point x="0.0" y="634.0" name="inserted"/>
      <point x="5.0" y="646.0"/>
      <point x="10" y="651" type="qcurve" smooth="yes"/>
      <point x="49" y="690" type="line" smooth="yes"/>
      <point x="59" y="700"/>
      <point x="87" y="700"/>
      <point x="97" y="690" type="qcurve" smooth="yes"/>
      <point x="136" y="651" type="line" smooth="yes"/>
      <point x="141.0" y="646.0" name="inserted"/>
      <point x="146.0" y="634.0"/>
      <point x="146" y="627" type="qcurve" smooth="yes"/>
    </contour>
  </outline>
</glyph>
<glyph name="underscore" format="2">
  <advance width="158"/>
  <unicode hex="005F"/>
  <outline>
    <contour>
      <point x="146" y="-79" type="line"/>
      <point x="0" y="-79" type="line"/>
      <point x="0" y="-12" type="line"/>
      <point x="146" y="-12" type="line"/>
      <point x="146" y="-79" type="line"/>
    </contour>
  </outline>
</glyph>
<glyph name="grave" format="2">
  <advance width="158"/>
  <unicode hex="0060"/>
  <outline>
    <contour>
      <point x="146" y="554" type="line"/>
      <point x="33" y="554" type="line" smooth="yes"/>
      <point x="19" y="554"/>
      <point x="0" y="573"/>
      <point x="0" y="587" type="qcurve" smooth="yes"/>
      <point x="0" y="700" type="line"/>
      <point x="67" y="700" type="line"/>
      <point x="67" y="621" type="line"/>
      <point x="146" y="621" type="line"/>
    </contour>
  </outline>
</glyph>
<glyph name="h" format="2">
  <advance width="158"/>
  <unicode hex="0068"/>
  <outline>
    <contour>
      <point x="146" y="0" type="line"/>
      <point x="79" y="0" type="line"/>
      <point x="79" y="475" type="line"/>
      <point x="67" y="475" type="line"/>
      <point x="67" y="0" type="line"/>
      <point x="0" y="0" type="line"/>
      <point x="0" y="700" type="line"/>
      <point x="67" y="700" type="line"/>
      <point x="67" y="542" type="line"/>
      <point x="113" y="542" type="line" smooth="yes"/>
      <point x="127" y="542"/>
      <point x="146" y="522"/>
      <point x="146" y="508" type="qcurve" smooth="yes"/>
    </contour>
  </outline>
</glyph>
<glyph name="i" format="2">
  <advance width="79"/>
  <unicode hex="0069"/>
  <outline>
    <contour>
      <point x="0" y="0" type="line"/>
      <point x="0" y="542" type="line"/>
      <point x="67" y="542" type="line"/>
      <point x="67" y="0" type="line"/>
    </contour>
    <contour>
      <point x="67" y="700" type="line"/>
      <point x="67" y="554" type="line"/>
      <point x="0" y="554" type="line"/>
      <point x="0" y="700" type="line"/>
    </contour>
  </outline>
</glyph>
<glyph name="j" format="2">
  <advance width="79"/>
  <unicode hex="006A"/>
  <outline>
    <contour>
      <point x="67" y="-124" type="line" smooth="yes"/>
      <point x="67" y="-138"/>
      <point x="48" y="-158"/>
      <point x="34" y="-158" type="qcurve" smooth="yes"/>
      <point x="-46" y="-158" type="line" smooth="yes"/>
      <point x="-60" y="-158"/>
      <point x="-79" y="-138"/>
      <point x="-79" y="-124" type="qcurve" smooth="yes"/>
      <point x="-79" y="-12" type="line"/>
      <point x="-12" y="-12" type="line"/>
      <point x="-12" y="-91" type="line"/>
      <point x="0" y="-91" type="line"/>
      <point x="0" y="542" type="line"/>
      <point x="67" y="542" type="line"/>
    </contour>
    <contour>
      <point x="0" y="700" type="line"/>
      <point x="67" y="700" type="line"/>
      <point x="67" y="555" type="line"/>
      <point x="0" y="555" type="line"/>
    </contour>
  </outline>
</glyph>
<glyph name="k" format="2">
  <advance width="158"/>
  <unicode hex="006B"/>
  <outline>
    <contour>
      <point x="146" y="0" type="line"/>
      <point x="79" y="0" type="line"/>
      <point x="79" y="198" type="line"/>
      <point x="67" y="198" type="line"/>
      <point x="67" y="0" type="line"/>
      <point x="0" y="0" type="line"/>
      <point x="0" y="700" type="line"/>
      <point x="67" y="700" type="line"/>
      <point x="67" y="344" type="line"/>
      <point x="79" y="344" type="line"/>
      <point x="79" y="542" type="line"/>
      <point x="146" y="542" type="line"/>
      <point x="146" y="310" type="line" smooth="yes"/>
      <point x="146" y="296"/>
      <point x="127" y="277"/>
      <point x="113" y="277" type="qcurve" smooth="yes"/>
      <point x="67" y="277" type="line"/>
      <point x="67" y="265" type="line"/>
      <point x="113" y="265" type="line" smooth="yes"/>
      <point x="127" y="265"/>
      <point x="146" y="245"/>
      <point x="146" y="231" type="qcurve" smooth="yes"/>
    </contour>
  </outline>
</glyph>
<glyph name="l" format="2">
  <advance width="79"/>
  <unicode hex="006C"/>
  <outline>
    <contour>
      <point x="0" y="0" type="line"/>
      <point x="0" y="700" type="line"/>
      <point x="67" y="700" type="line"/>
      <point x="67" y="0" type="line"/>
      <point x="0" y="0" type="line"/>
    </contour>
  </outline>
</glyph>
<glyph name="m" format="2">
  <advance width="237"/>
  <unicode hex="006D"/>
  <outline>
    <contour>
      <point x="225" y="0" type="line"/>
      <point x="158" y="0" type="line"/>
      <point x="158" y="475" type="line"/>
      <point x="146" y="475" type="line"/>
      <point x="146" y="0" type="line"/>
      <point x="79" y="0" type="line"/>
      <point x="79" y="475" type="line"/>
      <point x="67" y="475" type="line"/>
      <point x="67" y="0" type="line"/>
      <point x="0" y="0" type="line"/>
      <point x="0" y="542" type="line"/>
      <point x="192" y="542" type="line" smooth="yes"/>
      <point x="206" y="542"/>
      <point x="225" y="523"/>
      <point x="225" y="509" type="qcurve" smooth="yes"/>
    </contour>
  </outline>
</glyph>
<glyph name="n" format="2">
  <advance width="158"/>
  <unicode hex="006E"/>
  <outline>
    <contour>
      <point x="146" y="0" type="line"/>
      <point x="79" y="0" type="line"/>
      <point x="79" y="475" type="line"/>
      <point x="67" y="475" type="line"/>
      <point x="67" y="0" type="line"/>
      <point x="0" y="0" type="line"/>
      <point x="0" y="542" type="line"/>
      <point x="113" y="542" type="line" smooth="yes"/>
      <point x="127" y="542"/>
      <point x="146" y="523"/>
      <point x="146" y="509" type="qcurve" smooth="yes"/>
    </contour>
  </outline>
</glyph>
<glyph name="o" format="2">
  <advance width="158"/>
  <unicode hex="006F"/>
  <outline>
    <contour>
      <point x="146" y="33" type="line" smooth="yes"/>
      <point x="146" y="19"/>
      <point x="126" y="0"/>
      <point x="112" y="0" type="qcurve" smooth="yes"/>
      <point x="33" y="0" type="line" smooth="yes"/>
      <point x="19" y="0"/>
      <point x="0" y="19"/>
      <point x="0" y="33" type="qcurve" smooth="yes"/>
      <point x="0" y="508" type="line" smooth="yes"/>
      <point x="0" y="522"/>
      <point x="19" y="542"/>
      <point x="33" y="542" type="qcurve" smooth="yes"/>
      <point x="112" y="542" type="line" smooth="yes"/>
      <point x="126" y="542"/>
      <point x="146" y="522"/>
      <point x="146" y="508" type="qcurve" smooth="yes"/>
    </contour>
    <contour>
      <point x="79" y="475" type="line"/>
      <point x="67" y="475" type="line"/>
      <point x="67" y="67" type="line"/>
      <point x="79" y="67" type="line"/>
    </contour>
  </outline>
</glyph>
<glyph name="p" format="2">
  <advance width="158"/>
  <unicode hex="0070"/>
  <outline>
    <contour>
      <point x="67" y="-158" type="line"/>
      <point x="0" y="-158" type="line"/>
      <point x="0" y="542" type="line"/>
      <point x="113" y="542" type="line" smooth="yes"/>
      <point x="127" y="542"/>
      <point x="146" y="522"/>
      <point x="146" y="508" type="qcurve" smooth="yes"/>
      <point x="146" y="33" type="line" smooth="yes"/>
      <point x="146" y="19"/>
      <point x="127" y="0"/>
      <point x="113" y="0" type="qcurve" smooth="yes"/>
      <point x="67" y="0" type="line"/>
    </contour>
    <contour>
      <point x="67" y="67" type="line"/>
      <point x="79" y="67" type="line"/>
      <point x="79" y="475" type="line"/>
      <point x="67" y="475" type="line"/>
    </contour>
  </outline>
</glyph>
<glyph name="q" format="2">
  <advance width="158"/>
  <unicode hex="0071"/>
  <outline>
    <contour>
      <point x="146" y="-158" type="line"/>
      <point x="79" y="-158" type="line"/>
      <point x="79" y="0" type="line"/>
      <point x="34" y="0" type="line" smooth="yes"/>
      <point x="20" y="0"/>
      <point x="0" y="19"/>
      <point x="0" y="33" type="qcurve" smooth="yes"/>
      <point x="0" y="508" type="line" smooth="yes"/>
      <point x="0" y="522"/>
      <point x="20" y="542"/>
      <point x="34" y="542" type="qcurve" smooth="yes"/>
      <point x="146" y="542" type="line"/>
    </contour>
    <contour>
      <point x="67" y="67" type="line"/>
      <point x="79" y="67" type="line"/>
      <point x="79" y="475" type="line"/>
      <point x="67" y="475" type="line"/>
    </contour>
  </outline>
</glyph>
<glyph name="s" format="2">
  <advance width="158"/>
  <unicode hex="0073"/>
  <outline>
    <contour>
      <point x="113" y="0" type="qcurve" smooth="yes"/>
      <point x="33" y="0" type="line" smooth="yes"/>
      <point x="19" y="0"/>
      <point x="0" y="19"/>
      <point x="0" y="33" type="qcurve" smooth="yes"/>
      <point x="0" y="225" type="line"/>
      <point x="67" y="225" type="line"/>
      <point x="67" y="67" type="line"/>
      <point x="79" y="67" type="line"/>
      <point x="79" y="237" type="line"/>
      <point x="33" y="237" type="line" smooth="yes"/>
      <point x="19" y="237"/>
      <point x="0" y="257"/>
      <point x="0" y="271" type="qcurve" smooth="yes"/>
      <point x="0" y="508" type="line" smooth="yes"/>
      <point x="0" y="522"/>
      <point x="19" y="542"/>
      <point x="33" y="542" type="qcurve" smooth="yes"/>
      <point x="113" y="542" type="line" smooth="yes"/>
      <point x="127" y="542"/>
      <point x="146" y="522"/>
      <point x="146" y="508" type="qcurve" smooth="yes"/>
      <point x="146" y="316" type="line"/>
      <point x="79" y="316" type="line"/>
      <point x="79" y="475" type="line"/>
      <point x="67" y="475" type="line"/>
      <point x="67" y="304" type="line"/>
      <point x="113" y="304" type="line" smooth="yes"/>
      <point x="127" y="304"/>
      <point x="146" y="285"/>
      <point x="146" y="271" type="qcurve" smooth="yes"/>
      <point x="146" y="33" type="line" smooth="yes"/>
      <point x="146" y="19"/>
      <point x="127" y="0"/>
    </contour>
  </outline>
</glyph>
<glyph name="t" format="2">
  <advance width="119"/>
  <unicode hex="0074"/>
  <outline>
    <contour>
      <point x="67" y="542" type="line"/>
      <point x="107" y="542" type="line"/>
      <point x="107" y="475" type="line"/>
      <point x="67" y="475" type="line"/>
      <point x="67" y="0" type="line"/>
      <point x="0" y="0" type="line"/>
      <point x="0" y="700" type="line"/>
      <point x="67" y="700" type="line"/>
      <point x="67" y="542" type="line"/>
    </contour>
  </outline>
</glyph>
<glyph name="v" format="2">
  <advance width="158"/>
  <unicode hex="0076"/>
  <outline>
    <contour>
      <point x="146" y="0" type="line"/>
      <point x="52" y="0" type="line"/>
      <point x="0" y="104" type="line"/>
      <point x="0" y="542" type="line"/>
      <point x="67" y="542" type="line"/>
      <point x="67" y="120" type="line"/>
      <point x="79" y="67" type="line"/>
      <point x="79" y="542" type="line"/>
      <point x="146" y="542" type="line"/>
      <point x="146" y="0" type="line"/>
    </contour>
  </outline>
</glyph>
<glyph name="x" format="2">
  <advance width="158"/>
  <unicode hex="0078"/>
  <outline>
    <contour>
      <point x="146" y="0" type="line"/>
      <point x="79" y="0" type="line"/>
      <point x="79" y="198" type="line"/>
      <point x="67" y="198" type="line"/>
      <point x="67" y="0" type="line"/>
      <point x="0" y="0" type="line"/>
      <point x="0" y="231" type="line" smooth="yes"/>
      <point x="0" y="245"/>
      <point x="19" y="265"/>
      <point x="33" y="265" type="qcurve" smooth="yes"/>
      <point x="40" y="265" type="line"/>
      <point x="40" y="277" type="line"/>
      <point x="33" y="277" type="line" smooth="yes"/>
      <point x="19" y="277"/>
      <point x="0" y="296"/>
      <point x="0" y="310" type="qcurve" smooth="yes"/>
      <point x="0" y="542" type="line"/>
      <point x="67" y="542" type="line"/>
      <point x="67" y="344" type="line"/>
      <point x="79" y="344" type="line"/>
      <point x="79" y="542" type="line"/>
      <point x="146" y="542" type="line"/>
      <point x="146" y="310" type="line" smooth="yes"/>
      <point x="146" y="296"/>
      <point x="127" y="277"/>
      <point x="113" y="277" type="qcurve" smooth="yes"/>
      <point x="107" y="277" type="line"/>
      <point x="107" y="265" type="line"/>
      <point x="113" y="265" type="line" smooth="yes"/>
      <point x="127" y="265"/>
      <point x="146" y="245"/>
      <point x="146" y="231" type="qcurve" smooth="yes"/>
    </contour>
  </outline>
</glyph>
<glyph name="y" format="2">
  <advance width="158"/>
  <unicode hex="0079"/>
  <outline>
    <contour>
      <point x="79" y="542" type="line"/>
      <point x="146" y="542" type="line"/>
      <point x="146" y="-125" type="line" smooth="yes"/>
      <point x="146" y="-139"/>
      <point x="126" y="-158"/>
      <point x="112" y="-158" type="qcurve" smooth="yes"/>
      <point x="33" y="-158" type="line" smooth="yes"/>
      <point x="19" y="-158"/>
      <point x="0" y="-139"/>
      <point x="0" y="-125" type="qcurve" smooth="yes"/>
      <point x="0" y="-12" type="line"/>
      <point x="67" y="-12" type="line"/>
      <point x="67" y="-91" type="line"/>
      <point x="79" y="-91" type="line"/>
      <point x="79" y="0" type="line"/>
      <point x="33" y="0" type="line" smooth="yes"/>
      <point x="19" y="0"/>
      <point x="0" y="19"/>
      <point x="0" y="33" type="qcurve" smooth="yes"/>
      <point x="0" y="542" type="line"/>
      <point x="67" y="542" type="line"/>
      <point x="67" y="67" type="line"/>
      <point x="79" y="67" type="line"/>
    </contour>
  </outline>
</glyph>
<glyph name="z" format="2">
  <advance width="158"/>
  <unicode hex="007A"/>
  <outline>
    <contour>
      <point x="146" y="0" type="line"/>
      <point x="0" y="0" type="line"/>
      <point x="0" y="231" type="line" smooth="yes"/>
      <point x="0.0" y="238.5" name="inserted"/>
      <point x="5.0" y="250.5"/>
      <point x="10" y="255" type="qcurve"/>
      <point x="79" y="324" type="line"/>
      <point x="79" y="475" type="line"/>
      <point x="67" y="475" type="line"/>
      <point x="67" y="356" type="line"/>
      <point x="0" y="356" type="line"/>
      <point x="0" y="542" type="line"/>
      <point x="146" y="542" type="line"/>
      <point x="146" y="310" type="line" smooth="yes"/>
      <point x="146.0" y="303.0" name="inserted"/>
      <point x="141.0" y="291.5"/>
      <point x="136" y="287" type="qcurve"/>
      <point x="67" y="217" type="line"/>
      <point x="67" y="67" type="line"/>
      <point x="79" y="67" type="line"/>
      <point x="79" y="186" type="line"/>
      <point x="146" y="186" type="line"/>
    </contour>
  </outline>
</glyph>
<glyph name="braceleft" format="2">
  <advance width="158"/>
  <unicode hex="007B"/>
  <outline>
    <contour>
      <point x="40" y="667" type="line"/>
      <point x="40" y="681"/>
      <point x="59" y="700"/>
      <point x="73" y="700" type="qcurve" smooth="yes"/>
      <point x="146" y="700" type="line"/>
      <point x="146" y="633" type="line"/>
      <point x="107" y="633" type="line"/>
      <point x="107" y="390" type="line" smooth="yes"/>
      <point x="107" y="376"/>
      <point x="87" y="356"/>
      <point x="73" y="356" type="qcurve" smooth="yes"/>
      <point x="67" y="356" type="line"/>
      <point x="67" y="344" type="line"/>
      <point x="73" y="344" type="line" smooth="yes"/>
      <point x="87" y="344"/>
      <point x="107" y="324"/>
      <point x="107" y="310" type="qcurve" smooth="yes"/>
      <point x="107" y="67" type="line"/>
      <point x="146" y="67" type="line"/>
      <point x="146" y="0" type="line"/>
      <point x="73" y="0" type="line" smooth="yes"/>
      <point x="59" y="0"/>
      <point x="40" y="19"/>
      <point x="40" y="33" type="qcurve" smooth="yes"/>
      <point x="40" y="277" type="line"/>
      <point x="33" y="277" type="line" smooth="yes"/>
      <point x="19" y="277"/>
      <point x="0" y="296"/>
      <point x="0" y="310" type="qcurve" smooth="yes"/>
      <point x="0" y="390" type="line" smooth="yes"/>
      <point x="0" y="404"/>
      <point x="19" y="423"/>
      <point x="33" y="423" type="qcurve" smooth="yes"/>
      <point x="40" y="423" type="line"/>
      <point x="40" y="667" type="line"/>
    </contour>
  </outline>
</glyph>
<glyph name="bar" format="2">
  <advance width="79"/>
  <unicode hex="007C"/>
  <outline>
    <contour>
      <point x="0" y="-79" type="line"/>
      <point x="0" y="779" type="line"/>
      <point x="67" y="779" type="line"/>
      <point x="67" y="-79" type="line"/>
      <point x="0" y="-79" type="line"/>
    </contour>
  </outline>
</glyph>
<glyph name="braceright" format="2">
  <advance width="158"/>
  <unicode hex="007D"/>
  <outline>
    <contour>
      <point x="107" y="667" type="qcurve" smooth="yes"/>
      <point x="107" y="423" type="line"/>
      <point x="113" y="423" type="line" smooth="yes"/>
      <point x="127" y="423"/>
      <point x="146" y="404"/>
      <point x="146" y="390" type="qcurve" smooth="yes"/>
      <point x="146" y="310" type="line" smooth="yes"/>
      <point x="146" y="296"/>
      <point x="127" y="277"/>
      <point x="113" y="277" type="qcurve" smooth="yes"/>
      <point x="107" y="277" type="line"/>
      <point x="107" y="33" type="line" smooth="yes"/>
      <point x="107" y="19"/>
      <point x="87" y="0"/>
      <point x="73" y="0" type="qcurve" smooth="yes"/>
      <point x="0" y="0" type="line"/>
      <point x="0" y="67" type="line"/>
      <point x="40" y="67" type="line"/>
      <point x="40" y="310" type="line" smooth="yes"/>
      <point x="40" y="324"/>
      <point x="59" y="344"/>
      <point x="73" y="344" type="qcurve" smooth="yes"/>
      <point x="79" y="344" type="line"/>
      <point x="79" y="356" type="line"/>
      <point x="73" y="356" type="line" smooth="yes"/>
      <point x="59" y="356"/>
      <point x="40" y="376"/>
      <point x="40" y="390" type="qcurve" smooth="yes"/>
      <point x="40" y="633" type="line"/>
      <point x="0" y="633" type="line"/>
      <point x="0" y="700" type="line"/>
      <point x="73" y="700" type="line" smooth="yes"/>
      <point x="87" y="700"/>
      <point x="107" y="681"/>
    </contour>
  </outline>
</glyph>
<glyph name="asciitilde" format="2">
  <advance width="198"/>
  <unicode hex="007E"/>
  <outline>
    <contour>
      <point x="119" y="344" type="line"/>
      <point x="186" y="344" type="line"/>
      <point x="186" y="271" type="line" smooth="yes"/>
      <point x="186" y="257"/>
      <point x="166" y="237"/>
      <point x="152" y="237" type="qcurve" smooth="yes"/>
      <point x="67" y="237" type="line"/>
      <point x="67" y="198" type="line"/>
      <point x="0" y="198" type="line"/>
      <point x="0" y="271" type="line" smooth="yes"/>
      <point x="0" y="285"/>
      <point x="19" y="304"/>
      <point x="33" y="304" type="qcurve" smooth="yes"/>
      <point x="119" y="304" type="line"/>
    </contour>
  </outline>
</glyph>
<glyph name="cent" format="2">
  <advance width="237"/>
  <unicode hex="00A2"/>
  <outline>
    <contour>
      <point x="146" y="-79" type="line"/>
      <point x="79" y="-79" type="line"/>
      <point x="79" y="0" type="line"/>
      <point x="33" y="0" type="line" smooth="yes"/>
      <point x="19" y="0"/>
      <point x="0" y="19"/>
      <point x="0" y="33" type="qcurve" smooth="yes"/>
      <point x="0" y="508" type="line" smooth="yes"/>
      <point x="0" y="522"/>
      <point x="19" y="542"/>
      <point x="33" y="542" type="qcurve" smooth="yes"/>
      <point x="79" y="542" type="line"/>
      <point x="79" y="621" type="line"/>
      <point x="146" y="621" type="line"/>
      <point x="146" y="542" type="line"/>
      <point x="192" y="542" type="line" smooth="yes"/>
      <point x="206" y="542"/>
      <point x="225" y="522"/>
      <point x="225" y="508" type="qcurve" smooth="yes"/>
      <point x="225" y="277" type="line"/>
      <point x="158" y="277" type="line"/>
      <point x="158" y="475" type="line"/>
      <point x="146" y="475" type="line"/>
      <point x="146" y="67" type="line"/>
      <point x="158" y="67" type="line"/>
      <point x="158" y="265" type="line"/>
      <point x="225" y="265" type="line"/>
      <point x="225" y="33" type="line" smooth="yes"/>
      <point x="225" y="19"/>
      <point x="206" y="0"/>
      <point x="192" y="0" type="qcurve" smooth="yes"/>
      <point x="146" y="0" type="line"/>
    </contour>
    <contour>
      <point x="67" y="67" type="line"/>
      <point x="79" y="67" type="line"/>
      <point x="79" y="475" type="line"/>
      <point x="67" y="475" type="line"/>
    </contour>
  </outline>
</glyph>
<glyph name="currency" format="2">
  <advance width="237"/>
  <unicode hex="00A4"/>
  <outline>
    <contour>
      <point x="146" y="80" type="line"/>
      <point x="79" y="80" type="line"/>
      <point x="79" y="159" type="line"/>
      <point x="73" y="159" type="line" smooth="yes"/>
      <point x="59" y="159"/>
      <point x="40" y="179"/>
      <point x="40" y="193" type="qcurve" smooth="yes"/>
      <point x="40" y="317" type="line"/>
      <point x="0" y="317" type="line"/>
      <point x="0" y="384" type="line"/>
      <point x="40" y="384" type="line"/>
      <point x="40" y="509" type="line" smooth="yes"/>
      <point x="40" y="523"/>
      <point x="59" y="543"/>
      <point x="73" y="543" type="qcurve" smooth="yes"/>
      <point x="79" y="543" type="line"/>
      <point x="79" y="622" type="line"/>
      <point x="146" y="622" type="line"/>
      <point x="146" y="543" type="line"/>
      <point x="152" y="543" type="line" smooth="yes"/>
      <point x="166" y="543"/>
      <point x="186" y="523"/>
      <point x="186" y="509" type="qcurve" smooth="yes"/>
      <point x="186" y="384" type="line"/>
      <point x="225" y="384" type="line"/>
      <point x="225" y="317" type="line"/>
      <point x="186" y="317" type="line"/>
      <point x="186" y="193" type="line" smooth="yes"/>
      <point x="186" y="179"/>
      <point x="166" y="159"/>
      <point x="152" y="159" type="qcurve" smooth="yes"/>
      <point x="146" y="159" type="line"/>
    </contour>
    <contour>
      <point x="107" y="226" type="line"/>
      <point x="119" y="226" type="line"/>
      <point x="119" y="476" type="line"/>
      <point x="107" y="476" type="line"/>
    </contour>
  </outline>
</glyph>
<glyph name="yen" format="2">
  <advance width="158"/>
  <unicode hex="00A5"/>
  <outline>
    <contour>
      <point x="107" y="356" type="line"/>
      <point x="107" y="344" type="line"/>
      <point x="146" y="344" type="line"/>
      <point x="146" y="277" type="line"/>
      <point x="107" y="277" type="line"/>
      <point x="107" y="265" type="line"/>
      <point x="146" y="265" type="line"/>
      <point x="146" y="198" type="line"/>
      <point x="107" y="198" type="line"/>
      <point x="107" y="0" type="line"/>
      <point x="40" y="0" type="line"/>
      <point x="40" y="198" type="line"/>
      <point x="0" y="198" type="line"/>
      <point x="0" y="265" type="line"/>
      <point x="40" y="265" type="line"/>
      <point x="40" y="277" type="line"/>
      <point x="0" y="277" type="line"/>
      <point x="0" y="344" type="line"/>
      <point x="40" y="344" type="line"/>
      <point x="40" y="356" type="line"/>
      <point x="33" y="356" type="line" smooth="yes"/>
      <point x="19" y="356"/>
      <point x="0" y="376"/>
      <point x="0" y="390" type="qcurve" smooth="yes"/>
      <point x="0" y="700" type="line"/>
      <point x="67" y="700" type="line"/>
      <point x="67" y="423" type="line"/>
      <point x="79" y="423" type="line"/>
      <point x="79" y="700" type="line"/>
      <point x="146" y="700" type="line"/>
      <point x="146" y="390" type="line" smooth="yes"/>
      <point x="146" y="376"/>
      <point x="127" y="356"/>
      <point x="113" y="356" type="qcurve" smooth="yes"/>
    </contour>
  </outline>
</glyph>
<glyph name="brokenbar" format="2">
  <advance width="79"/>
  <unicode hex="00A6"/>
  <outline>
    <contour>
      <point x="67" y="-79" type="line"/>
      <point x="0" y="-79" type="line"/>
      <point x="0" y="305" type="line"/>
      <point x="67" y="305" type="line"/>
      <point x="67" y="-79" type="line"/>
    </contour>
    <contour>
      <point x="67" y="396" type="line"/>
      <point x="0" y="396" type="line"/>
      <point x="0" y="779" type="line"/>
      <point x="67" y="779" type="line"/>
      <point x="67" y="396" type="line"/>
    </contour>
  </outline>
</glyph>
<glyph name="section" format="2">
  <advance width="158"/>
  <unicode hex="00A7"/>
  <outline>
    <contour>
      <point x="113" y="0" type="qcurve" smooth="yes"/>
      <point x="0" y="0" type="line"/>
      <point x="0" y="225" type="line"/>
      <point x="67" y="225" type="line"/>
      <point x="67" y="67" type="line"/>
      <point x="79" y="67" type="line"/>
      <point x="79" y="237" type="line"/>
      <point x="33" y="237" type="line" smooth="yes"/>
      <point x="19" y="237"/>
      <point x="0" y="257"/>
      <point x="0" y="271" type="qcurve" smooth="yes"/>
      <point x="0" y="666" type="line" smooth="yes"/>
      <point x="0" y="680"/>
      <point x="19" y="700"/>
      <point x="33" y="700" type="qcurve" smooth="yes"/>
      <point x="146" y="700" type="line"/>
      <point x="146" y="474" type="line"/>
      <point x="79" y="474" type="line"/>
      <point x="79" y="633" type="line"/>
      <point x="67" y="633" type="line"/>
      <point x="67" y="462" type="line"/>
      <point x="113" y="462" type="line" smooth="yes"/>
      <point x="127" y="462"/>
      <point x="146" y="443"/>
      <point x="146" y="429" type="qcurve" smooth="yes"/>
      <point x="146" y="33" type="line" smooth="yes"/>
      <point x="146" y="19"/>
      <point x="127" y="0"/>
    </contour>
    <contour>
      <point x="67" y="304" type="line"/>
      <point x="79" y="304" type="line"/>
      <point x="79" y="395" type="line"/>
      <point x="67" y="395" type="line"/>
    </contour>
  </outline>
</glyph>
<glyph name="dieresis" format="2">
  <advance width="158"/>
  <unicode hex="00A8"/>
  <outline>
    <contour>
      <point x="146" y="700" type="line"/>
      <point x="146" y="554" type="line"/>
      <point x="79" y="554" type="line"/>
      <point x="79" y="554" type="line"/>
      <point x="79" y="554" type="line"/>
      <point x="79" y="700" type="line"/>
    </contour>
    <contour>
      <point x="67" y="700" type="line"/>
      <point x="67" y="554" type="line"/>
      <point x="0" y="554" type="line"/>
      <point x="0" y="700" type="line"/>
      <point x="67" y="700" type="line"/>
      <point x="67" y="700" type="line"/>
    </contour>
  </outline>
</glyph>
<glyph name="copyright" format="2">
  <advance width="316"/>
  <unicode hex="00A9"/>
  <outline>
    <contour>
      <point x="192" y="158" type="qcurve" smooth="yes"/>
      <point x="113" y="158" type="line" smooth="yes"/>
      <point x="99" y="158"/>
      <point x="79" y="178"/>
      <point x="79" y="192" type="qcurve" smooth="yes"/>
      <point x="79" y="508" type="line" smooth="yes"/>
      <point x="79" y="522"/>
      <point x="99" y="542"/>
      <point x="113" y="542" type="qcurve" smooth="yes"/>
      <point x="192" y="542" type="line" smooth="yes"/>
      <point x="206" y="542"/>
      <point x="225" y="522"/>
      <point x="225" y="508" type="qcurve" smooth="yes"/>
      <point x="225" y="356" type="line"/>
      <point x="158" y="356" type="line"/>
      <point x="158" y="475" type="line"/>
      <point x="146" y="475" type="line"/>
      <point x="146" y="225" type="line"/>
      <point x="158" y="225" type="line"/>
      <point x="158" y="344" type="line"/>
      <point x="225" y="344" type="line"/>
      <point x="225" y="192" type="line" smooth="yes"/>
      <point x="225" y="178"/>
      <point x="206" y="158"/>
    </contour>
    <contour>
      <point x="271" y="79" type="qcurve" smooth="yes"/>
      <point x="33" y="79" type="line" smooth="yes"/>
      <point x="19" y="79"/>
      <point x="0" y="99"/>
      <point x="0" y="113" type="qcurve" smooth="yes"/>
      <point x="0" y="587" type="line" smooth="yes"/>
      <point x="0" y="601"/>
      <point x="19" y="621"/>
      <point x="33" y="621" type="qcurve" smooth="yes"/>
      <point x="271" y="621" type="line" smooth="yes"/>
      <point x="285" y="621"/>
      <point x="304" y="601"/>
      <point x="304" y="587" type="qcurve" smooth="yes"/>
      <point x="304" y="113" type="line" smooth="yes"/>
      <point x="304" y="99"/>
      <point x="285" y="79"/>
    </contour>
    <contour>
      <point x="67" y="146" type="line"/>
      <point x="237" y="146" type="line"/>
      <point x="237" y="554" type="line"/>
      <point x="67" y="554" type="line"/>
    </contour>
  </outline>
</glyph>
<glyph name="ordfeminine" format="2">
  <advance width="158"/>
  <unicode hex="00AA"/>
  <outline>
    <contour>
      <point x="146" y="396" type="line"/>
      <point x="33" y="396" type="line" smooth="yes"/>
      <point x="19" y="396"/>
      <point x="0" y="415"/>
      <point x="0" y="429" type="qcurve" smooth="yes"/>
      <point x="0" y="548" type="line" smooth="yes"/>
      <point x="0" y="562"/>
      <point x="19" y="581"/>
      <point x="33" y="581" type="qcurve" smooth="yes"/>
      <point x="79" y="581" type="line"/>
      <point x="79" y="633" type="line"/>
      <point x="67" y="633" type="line"/>
      <point x="67" y="594" type="line"/>
      <point x="0" y="594" type="line"/>
      <point x="0" y="667" type="line" smooth="yes"/>
      <point x="0" y="681"/>
      <point x="19" y="700"/>
      <point x="33" y="700" type="qcurve" smooth="yes"/>
      <point x="113" y="700" type="line" smooth="yes"/>
      <point x="127" y="700"/>
      <point x="146" y="681"/>
      <point x="146" y="667" type="qcurve" smooth="yes"/>
    </contour>
    <contour>
      <point x="67" y="463" type="line"/>
      <point x="79" y="463" type="line"/>
      <point x="79" y="514" type="line"/>
      <point x="67" y="514" type="line"/>
    </contour>
  </outline>
</glyph>
<glyph name="guillemotleft" format="2">
  <advance width="237"/>
  <unicode hex="00AB"/>
  <outline>
    <contour>
      <point x="225" y="159" type="line"/>
      <point x="152" y="159" type="line" smooth="yes"/>
      <point x="138" y="159"/>
      <point x="119" y="178"/>
      <point x="119" y="192" type="qcurve" smooth="yes"/>
      <point x="119" y="350" type="line" smooth="yes"/>
      <point x="119" y="364"/>
      <point x="138" y="384"/>
      <point x="152" y="384" type="qcurve" smooth="yes"/>
      <point x="225" y="384" type="line"/>
      <point x="225" y="317" type="line"/>
      <point x="186" y="317" type="line"/>
      <point x="186" y="226" type="line"/>
      <point x="225" y="226" type="line"/>
    </contour>
    <contour>
      <point x="107" y="159" type="line"/>
      <point x="33" y="159" type="line" smooth="yes"/>
      <point x="19" y="159"/>
      <point x="0" y="178"/>
      <point x="0" y="192" type="qcurve" smooth="yes"/>
      <point x="0" y="350" type="line" smooth="yes"/>
      <point x="0" y="364"/>
      <point x="19" y="384"/>
      <point x="33" y="384" type="qcurve" smooth="yes"/>
      <point x="107" y="384" type="line"/>
      <point x="107" y="317" type="line"/>
      <point x="67" y="317" type="line"/>
      <point x="67" y="226" type="line"/>
      <point x="107" y="226" type="line"/>
    </contour>
  </outline>
</glyph>
<glyph name="logicalnot" format="2">
  <advance width="237"/>
  <unicode hex="00AC"/>
  <outline>
    <contour>
      <point x="225" y="159" type="line"/>
      <point x="158" y="159" type="line"/>
      <point x="158" y="238" type="line"/>
      <point x="0" y="238" type="line"/>
      <point x="0" y="305" type="line"/>
      <point x="225" y="305" type="line"/>
      <point x="225" y="159" type="line"/>
    </contour>
  </outline>
</glyph>
<glyph name="registered" format="2">
  <advance width="158"/>
  <unicode hex="00AE"/>
  <outline>
    <contour>
      <point x="146" y="317" type="line"/>
      <point x="79" y="317" type="line"/>
      <point x="79" y="435" type="line"/>
      <point x="67" y="435" type="line"/>
      <point x="67" y="317" type="line"/>
      <point x="0" y="317" type="line"/>
      <point x="0" y="700" type="line"/>
      <point x="113" y="700" type="line" smooth="yes"/>
      <point x="127" y="700"/>
      <point x="146" y="681"/>
      <point x="146" y="667" type="qcurve" smooth="yes"/>
      <point x="146" y="548" type="line" smooth="yes"/>
      <point x="146" y="534"/>
      <point x="127" y="515"/>
      <point x="113" y="515" type="qcurve" smooth="yes"/>
      <point x="67" y="515" type="line"/>
      <point x="67" y="502" type="line"/>
      <point x="113" y="502" type="line" smooth="yes"/>
      <point x="127" y="502"/>
      <point x="146" y="483"/>
      <point x="146" y="469" type="qcurve" smooth="yes"/>
    </contour>
    <contour>
      <point x="67" y="582" type="line"/>
      <point x="79" y="582" type="line"/>
      <point x="79" y="633" type="line"/>
      <point x="67" y="633" type="line"/>
    </contour>
  </outline>
</glyph>
<glyph name="macron" format="2">
  <advance width="158"/>
  <unicode hex="00AF"/>
  <outline>
    <contour>
      <point x="146" y="554" type="line"/>
      <point x="0" y="554" type="line"/>
      <point x="0" y="621" type="line"/>
      <point x="146" y="621" type="line"/>
      <point x="146" y="554" type="line"/>
    </contour>
  </outline>
</glyph>
<glyph name="degree" format="2">
  <advance width="158"/>
  <unicode hex="00B0"/>
  <outline>
    <contour>
      <point x="113" y="700" type="line" smooth="yes"/>
      <point x="127" y="700"/>
      <point x="146" y="681"/>
      <point x="146" y="667" type="qcurve" smooth="yes"/>
      <point x="146" y="429" type="line" smooth="yes"/>
      <point x="146" y="415"/>
      <point x="127" y="396"/>
      <point x="113" y="396" type="qcurve" smooth="yes"/>
      <point x="33" y="396" type="line" smooth="yes"/>
      <point x="19" y="396"/>
      <point x="0" y="415"/>
      <point x="0" y="429" type="qcurve" smooth="yes"/>
      <point x="0" y="667" type="line" smooth="yes"/>
      <point x="0" y="681"/>
      <point x="19" y="700"/>
      <point x="33" y="700" type="qcurve" smooth="yes"/>
    </contour>
    <contour>
      <point x="79" y="633" type="line"/>
      <point x="67" y="633" type="line"/>
      <point x="67" y="463" type="line"/>
      <point x="79" y="463" type="line"/>
    </contour>
  </outline>
</glyph>
<glyph name="plusminus" format="2">
  <advance width="237"/>
  <unicode hex="00B1"/>
  <outline>
    <contour>
      <point x="225" y="119" type="line"/>
      <point x="0" y="119" type="line"/>
      <point x="0" y="186" type="line"/>
      <point x="225" y="186" type="line"/>
      <point x="225" y="119" type="line"/>
    </contour>
    <contour>
      <point x="146" y="198" type="line"/>
      <point x="79" y="198" type="line"/>
      <point x="79" y="277" type="line"/>
      <point x="0" y="277" type="line"/>
      <point x="0" y="344" type="line"/>
      <point x="79" y="344" type="line"/>
      <point x="79" y="424" type="line"/>
      <point x="146" y="424" type="line"/>
      <point x="146" y="344" type="line"/>
      <point x="225" y="344" type="line"/>
      <point x="225" y="277" type="line"/>
      <point x="146" y="277" type="line"/>
      <point x="146" y="198" type="line"/>
    </contour>
  </outline>
</glyph>
<glyph name="periodcentered" format="2">
  <advance width="79"/>
  <unicode hex="00B7"/>
  <outline>
    <contour>
      <point x="67" y="198" type="line"/>
      <point x="0" y="198" type="line"/>
      <point x="0" y="344" type="line"/>
      <point x="67" y="344" type="line"/>
      <point x="67" y="198" type="line"/>
    </contour>
  </outline>
</glyph>
<glyph name="cedilla" format="2">
  <advance width="79"/>
  <unicode hex="00B8"/>
  <outline>
    <contour>
      <point x="67" y="67" type="line"/>
      <point x="67" y="-12" type="line"/>
      <point x="73" y="-12" type="line" smooth="yes"/>
      <point x="87" y="-12"/>
      <point x="107" y="-32"/>
      <point x="107" y="-46" type="qcurve" smooth="yes"/>
      <point x="107" y="-125" type="line" smooth="yes"/>
      <point x="107" y="-139"/>
      <point x="87" y="-158"/>
      <point x="73" y="-158" type="qcurve" smooth="yes"/>
      <point x="0" y="-158" type="line"/>
      <point x="0" y="-91" type="line"/>
      <point x="40" y="-91" type="line"/>
      <point x="40" y="-79" type="line"/>
      <point x="33" y="-79" type="line" smooth="yes"/>
      <point x="19" y="-79"/>
      <point x="0" y="-60"/>
      <point x="0" y="-46" type="qcurve" smooth="yes"/>
      <point x="0" y="67" type="line"/>
    </contour>
  </outline>
</glyph>
<glyph name="ordmasculine" format="2">
  <advance width="158"/>
  <unicode hex="00BA"/>
  <outline>
    <contour>
      <point x="113" y="396" type="qcurve" smooth="yes"/>
      <point x="34" y="396" type="line" smooth="yes"/>
      <point x="20" y="396"/>
      <point x="0" y="415"/>
      <point x="0" y="429" type="qcurve" smooth="yes"/>
      <point x="0" y="666" type="line" smooth="yes"/>
      <point x="0" y="680"/>
      <point x="20" y="700"/>
      <point x="34" y="700" type="qcurve" smooth="yes"/>
      <point x="113" y="700" type="line" smooth="yes"/>
      <point x="127" y="700"/>
      <point x="146" y="680"/>
      <point x="146" y="666" type="qcurve" smooth="yes"/>
      <point x="146" y="429" type="line" smooth="yes"/>
      <point x="146" y="415"/>
      <point x="127" y="396"/>
    </contour>
    <contour>
      <point x="67" y="463" type="line"/>
      <point x="79" y="463" type="line"/>
      <point x="79" y="633" type="line"/>
      <point x="67" y="633" type="line"/>
    </contour>
  </outline>
</glyph>
<glyph name="guillemotright" format="2">
  <advance width="237"/>
  <unicode hex="00BB"/>
  <outline>
    <contour>
      <point x="0" y="226" type="line"/>
      <point x="39" y="226" type="line"/>
      <point x="39" y="317" type="line"/>
      <point x="0" y="317" type="line"/>
      <point x="0" y="384" type="line"/>
      <point x="73" y="384" type="line" smooth="yes"/>
      <point x="87" y="384"/>
      <point x="106" y="364"/>
      <point x="106" y="350" type="qcurve" smooth="yes"/>
      <point x="106" y="192" type="line" smooth="yes"/>
      <point x="106" y="178"/>
      <point x="87" y="159"/>
      <point x="73" y="159" type="qcurve" smooth="yes"/>
      <point x="0" y="159" type="line"/>
    </contour>
    <contour>
      <point x="118" y="226" type="line"/>
      <point x="158" y="226" type="line"/>
      <point x="158" y="317" type="line"/>
      <point x="118" y="317" type="line"/>
      <point x="118" y="384" type="line"/>
      <point x="192" y="384" type="line" smooth="yes"/>
      <point x="206" y="384"/>
      <point x="225" y="364"/>
      <point x="225" y="350" type="qcurve" smooth="yes"/>
      <point x="225" y="192" type="line" smooth="yes"/>
      <point x="225" y="178"/>
      <point x="206" y="159"/>
      <point x="192" y="159" type="qcurve" smooth="yes"/>
      <point x="118" y="159" type="line"/>
    </contour>
  </outline>
</glyph>
<glyph name="Aacute" format="2">
  <advance width="158"/>
  <unicode hex="00C1"/>
  <outline>
    <contour>
      <point x="113" y="542" type="line" smooth="yes"/>
      <point x="127" y="542"/>
      <point x="146" y="522"/>
      <point x="146" y="508" type="qcurve" smooth="yes"/>
      <point x="146" y="0" type="line"/>
      <point x="79" y="0" type="line"/>
      <point x="79" y="237" type="line"/>
      <point x="67" y="237" type="line"/>
      <point x="67" y="0" type="line"/>
      <point x="0" y="0" type="line"/>
      <point x="0" y="508" type="line" smooth="yes"/>
      <point x="0" y="522"/>
      <point x="19" y="542"/>
      <point x="33" y="542" type="qcurve" smooth="yes"/>
    </contour>
    <contour>
      <point x="79" y="304" type="line"/>
      <point x="79" y="475" type="line"/>
      <point x="67" y="475" type="line"/>
      <point x="67" y="304" type="line"/>
    </contour>
    <contour>
      <point x="146" y="700" type="line"/>
      <point x="146" y="587" type="line" smooth="yes"/>
      <point x="146" y="573"/>
      <point x="127" y="554"/>
      <point x="113" y="554" type="qcurve" smooth="yes"/>
      <point x="0" y="554" type="line"/>
      <point x="0" y="621" type="line"/>
      <point x="79" y="621" type="line"/>
      <point x="79" y="700" type="line"/>
    </contour>
  </outline>
</glyph>
<glyph name="Atilde" format="2">
  <advance width="158"/>
  <unicode hex="00C3"/>
  <outline>
    <contour>
      <point x="113" y="542" type="line" smooth="yes"/>
      <point x="127" y="542"/>
      <point x="146" y="522"/>
      <point x="146" y="508" type="qcurve" smooth="yes"/>
      <point x="146" y="0" type="line"/>
      <point x="79" y="0" type="line"/>
      <point x="79" y="237" type="line"/>
      <point x="67" y="237" type="line"/>
      <point x="67" y="0" type="line"/>
      <point x="0" y="0" type="line"/>
      <point x="0" y="508" type="line" smooth="yes"/>
      <point x="0" y="522"/>
      <point x="19" y="542"/>
      <point x="33" y="542" type="qcurve" smooth="yes"/>
    </contour>
    <contour>
      <point x="79" y="304" type="line"/>
      <point x="79" y="475" type="line"/>
      <point x="67" y="475" type="line"/>
      <point x="67" y="304" type="line"/>
    </contour>
    <contour>
      <point x="146" y="700" type="line"/>
      <point x="146" y="627" type="line" smooth="yes"/>
      <point x="146" y="613"/>
      <point x="127" y="593"/>
      <point x="113" y="593" type="qcurve" smooth="yes"/>
      <point x="67" y="593" type="line"/>
      <point x="67" y="554" type="line"/>
      <point x="0" y="554" type="line"/>
      <point x="0" y="627" type="line" smooth="yes"/>
      <point x="0" y="641"/>
      <point x="19" y="660"/>
      <point x="33" y="660" type="qcurve" smooth="yes"/>
      <point x="79" y="660" type="line"/>
      <point x="79" y="700" type="line"/>
    </contour>
  </outline>
</glyph>
<glyph name="AE" format="2">
  <advance width="237"/>
  <unicode hex="00C6"/>
  <outline>
    <contour>
      <point x="225" y="0" type="line"/>
      <point x="79" y="0" type="line"/>
      <point x="79" y="316" type="line"/>
      <point x="67" y="316" type="line"/>
      <point x="67" y="0" type="line"/>
      <point x="0" y="0" type="line"/>
      <point x="0" y="666" type="line" smooth="yes"/>
      <point x="0" y="680"/>
      <point x="19" y="700"/>
      <point x="33" y="700" type="qcurve" smooth="yes"/>
      <point x="225" y="700" type="line"/>
      <point x="225" y="396" type="line"/>
      <point x="158" y="396" type="line"/>
      <point x="158" y="633" type="line"/>
      <point x="146" y="633" type="line"/>
      <point x="146" y="383" type="line"/>
      <point x="225" y="383" type="line"/>
      <point x="225" y="316" type="line"/>
      <point x="146" y="316" type="line"/>
      <point x="146" y="67" type="line"/>
      <point x="158" y="67" type="line"/>
      <point x="158" y="304" type="line"/>
      <point x="225" y="304" type="line"/>
    </contour>
    <contour>
      <point x="67" y="383" type="line"/>
      <point x="79" y="383" type="line"/>
      <point x="79" y="633" type="line"/>
      <point x="67" y="633" type="line"/>
    </contour>
  </outline>
</glyph>
<glyph name="Eacute" format="2">
  <advance width="158"/>
  <unicode hex="00C9"/>
  <outline>
    <contour>
      <point x="146" y="0" type="line"/>
      <point x="0" y="0" type="line"/>
      <point x="0" y="542" type="line"/>
      <point x="146" y="542" type="line"/>
      <point x="146" y="317" type="line"/>
      <point x="79" y="317" type="line"/>
      <point x="79" y="475" type="line"/>
      <point x="67" y="475" type="line"/>
      <point x="67" y="305" type="line"/>
      <point x="146" y="305" type="line"/>
      <point x="146" y="238" type="line"/>
      <point x="67" y="238" type="line"/>
      <point x="67" y="67" type="line"/>
      <point x="79" y="67" type="line"/>
      <point x="79" y="226" type="line"/>
      <point x="146" y="226" type="line"/>
    </contour>
    <contour>
      <point x="146" y="700" type="line"/>
      <point x="146" y="587" type="line" smooth="yes"/>
      <point x="146" y="573"/>
      <point x="127" y="554"/>
      <point x="113" y="554" type="qcurve" smooth="yes"/>
      <point x="0" y="554" type="line"/>
      <point x="0" y="621" type="line"/>
      <point x="79" y="621" type="line"/>
      <point x="79" y="700" type="line"/>
    </contour>
  </outline>
</glyph>
<glyph name="Ecircumflex" format="2">
  <advance width="158"/>
  <unicode hex="00CA"/>
  <outline>
    <contour>
      <point x="146" y="0" type="line"/>
      <point x="0" y="0" type="line"/>
      <point x="0" y="542" type="line"/>
      <point x="146" y="542" type="line"/>
      <point x="146" y="317" type="line"/>
      <point x="79" y="317" type="line"/>
      <point x="79" y="475" type="line"/>
      <point x="67" y="475" type="line"/>
      <point x="67" y="305" type="line"/>
      <point x="146" y="305" type="line"/>
      <point x="146" y="238" type="line"/>
      <point x="67" y="238" type="line"/>
      <point x="67" y="67" type="line"/>
      <point x="79" y="67" type="line"/>
      <point x="79" y="226" type="line"/>
      <point x="146" y="226" type="line"/>
    </contour>
    <contour>
      <point x="146" y="554" type="line"/>
      <point x="79" y="554" type="line"/>
      <point x="79" y="614" type="line"/>
      <point x="73" y="620" type="line"/>
      <point x="67" y="614" type="line"/>
      <point x="67" y="554" type="line"/>
      <point x="0" y="554" type="line"/>
      <point x="0" y="627" type="line" smooth="yes"/>
      <point x="0.0" y="634.5" name="inserted"/>
      <point x="5.0" y="646.5"/>
      <point x="10" y="651" type="qcurve"/>
      <point x="49" y="691" type="line" smooth="yes"/>
      <point x="59" y="701"/>
      <point x="87" y="701"/>
      <point x="97" y="691" type="qcurve" smooth="yes"/>
      <point x="136" y="651" type="line"/>
      <point x="141.0" y="646.5" name="inserted"/>
      <point x="146.0" y="634.5"/>
      <point x="146" y="627" type="qcurve" smooth="yes"/>
    </contour>
  </outline>
</glyph>
<glyph name="Igrave" format="2">
  <advance width="237"/>
  <unicode hex="00CC"/>
  <outline>
    <contour>
      <point x="225" y="0" type="line"/>
      <point x="0" y="0" type="line"/>
      <point x="0" y="265" type="line"/>
      <point x="67" y="265" type="line"/>
      <point x="67" y="67" type="line"/>
      <point x="79" y="67" type="line"/>
      <point x="79" y="475" type="line"/>
      <point x="67" y="475" type="line"/>
      <point x="67" y="277" type="line"/>
      <point x="0" y="277" type="line"/>
      <point x="0" y="542" type="line"/>
      <point x="225" y="542" type="line"/>
      <point x="225" y="277" type="line"/>
      <point x="158" y="277" type="line"/>
      <point x="158" y="475" type="line"/>
      <point x="146" y="475" type="line"/>
      <point x="146" y="67" type="line"/>
      <point x="158" y="67" type="line"/>
      <point x="158" y="265" type="line"/>
      <point x="225" y="265" type="line"/>
    </contour>
    <contour>
      <point x="185" y="554" type="line"/>
      <point x="72" y="554" type="line" smooth="yes"/>
      <point x="58" y="554"/>
      <point x="39" y="573"/>
      <point x="39" y="587" type="qcurve" smooth="yes"/>
      <point x="39" y="700" type="line"/>
      <point x="106" y="700" type="line"/>
      <point x="106" y="621" type="line"/>
      <point x="185" y="621" type="line"/>
    </contour>
  </outline>
</glyph>
<glyph name="Iacute" format="2">
  <advance width="237"/>
  <unicode hex="00CD"/>
  <outline>
    <contour>
      <point x="225" y="0" type="line"/>
      <point x="0" y="0" type="line"/>
      <point x="0" y="265" type="line"/>
      <point x="67" y="265" type="line"/>
      <point x="67" y="67" type="line"/>
      <point x="79" y="67" type="line"/>
      <point x="79" y="475" type="line"/>
      <point x="67" y="475" type="line"/>
      <point x="67" y="277" type="line"/>
      <point x="0" y="277" type="line"/>
      <point x="0" y="542" type="line"/>
      <point x="225" y="542" type="line"/>
      <point x="225" y="277" type="line"/>
      <point x="158" y="277" type="line"/>
      <point x="158" y="475" type="line"/>
      <point x="146" y="475" type="line"/>
      <point x="146" y="67" type="line"/>
      <point x="158" y="67" type="line"/>
      <point x="158" y="265" type="line"/>
      <point x="225" y="265" type="line"/>
    </contour>
    <contour>
      <point x="185" y="700" type="line"/>
      <point x="185" y="587" type="line" smooth="yes"/>
      <point x="185" y="573"/>
      <point x="166" y="554"/>
      <point x="152" y="554" type="qcurve" smooth="yes"/>
      <point x="39" y="554" type="line"/>
      <point x="39" y="621" type="line"/>
      <point x="118" y="621" type="line"/>
      <point x="118" y="700" type="line"/>
    </contour>
  </outline>
</glyph>
<glyph name="Icircumflex" format="2">
  <advance width="237"/>
  <unicode hex="00CE"/>
  <outline>
    <contour>
      <point x="225" y="0" type="line"/>
      <point x="0" y="0" type="line"/>
      <point x="0" y="265" type="line"/>
      <point x="67" y="265" type="line"/>
      <point x="67" y="67" type="line"/>
      <point x="79" y="67" type="line"/>
      <point x="79" y="475" type="line"/>
      <point x="67" y="475" type="line"/>
      <point x="67" y="277" type="line"/>
      <point x="0" y="277" type="line"/>
      <point x="0" y="542" type="line"/>
      <point x="225" y="542" type="line"/>
      <point x="225" y="277" type="line"/>
      <point x="158" y="277" type="line"/>
      <point x="158" y="475" type="line"/>
      <point x="146" y="475" type="line"/>
      <point x="146" y="67" type="line"/>
      <point x="158" y="67" type="line"/>
      <point x="158" y="265" type="line"/>
      <point x="225" y="265" type="line"/>
    </contour>
    <contour>
      <point x="185" y="554" type="line"/>
      <point x="118" y="554" type="line"/>
      <point x="118" y="614" type="line"/>
      <point x="112" y="620" type="line"/>
      <point x="106" y="614" type="line"/>
      <point x="106" y="554" type="line"/>
      <point x="39" y="554" type="line"/>
      <point x="39" y="627" type="line" smooth="yes"/>
      <point x="39.0" y="634.5" name="inserted"/>
      <point x="44.0" y="646.5"/>
      <point x="49" y="651" type="qcurve"/>
      <point x="88" y="691" type="line" smooth="yes"/>
      <point x="98" y="701"/>
      <point x="126" y="701"/>
      <point x="136" y="691" type="qcurve" smooth="yes"/>
      <point x="175" y="651" type="line"/>
      <point x="180.0" y="646.5" name="inserted"/>
      <point x="185.0" y="634.5"/>
      <point x="185" y="627" type="qcurve" smooth="yes"/>
    </contour>
  </outline>
</glyph>
<glyph name="Ntilde" format="2">
  <advance width="237"/>
  <unicode hex="00D1"/>
  <outline>
    <contour>
      <point x="225" y="0" type="line"/>
      <point x="113" y="0" type="line" smooth="yes"/>
      <point x="99" y="0"/>
      <point x="79" y="20"/>
      <point x="79" y="34" type="qcurve" smooth="yes"/>
      <point x="79" y="475" type="line"/>
      <point x="67" y="475" type="line"/>
      <point x="67" y="0" type="line"/>
      <point x="0" y="0" type="line"/>
      <point x="0" y="542" type="line"/>
      <point x="113" y="542" type="line" smooth="yes"/>
      <point x="127" y="542"/>
      <point x="146" y="523"/>
      <point x="146" y="509" type="qcurve" smooth="yes"/>
      <point x="146" y="67" type="line"/>
      <point x="158" y="67" type="line"/>
      <point x="158" y="542" type="line"/>
      <point x="225" y="542" type="line"/>
    </contour>
    <contour>
      <point x="191" y="700" type="line"/>
      <point x="191" y="627" type="line" smooth="yes"/>
      <point x="191" y="613"/>
      <point x="172" y="593"/>
      <point x="158" y="593" type="qcurve" smooth="yes"/>
      <point x="112" y="593" type="line"/>
      <point x="112" y="554" type="line"/>
      <point x="45" y="554" type="line"/>
      <point x="45" y="627" type="line" smooth="yes"/>
      <point x="45" y="641"/>
      <point x="64" y="660"/>
      <point x="78" y="660" type="qcurve" smooth="yes"/>
      <point x="124" y="660" type="line"/>
      <point x="124" y="700" type="line"/>
    </contour>
  </outline>
</glyph>
<glyph name="Otilde" format="2">
  <advance width="158"/>
  <unicode hex="00D5"/>
  <outline>
    <contour>
      <point x="112" y="542" type="line" smooth="yes"/>
      <point x="126" y="542"/>
      <point x="146" y="522"/>
      <point x="146" y="508" type="qcurve" smooth="yes"/>
      <point x="146" y="33" type="line" smooth="yes"/>
      <point x="146" y="19"/>
      <point x="126" y="0"/>
      <point x="112" y="0" type="qcurve" smooth="yes"/>
      <point x="33" y="0" type="line" smooth="yes"/>
      <point x="19" y="0"/>
      <point x="0" y="19"/>
      <point x="0" y="33" type="qcurve" smooth="yes"/>
      <point x="0" y="508" type="line" smooth="yes"/>
      <point x="0" y="522"/>
      <point x="19" y="542"/>
      <point x="33" y="542" type="qcurve" smooth="yes"/>
    </contour>
    <contour>
      <point x="79" y="475" type="line"/>
      <point x="67" y="475" type="line"/>
      <point x="67" y="67" type="line"/>
      <point x="79" y="67" type="line"/>
    </contour>
    <contour>
      <point x="146" y="700" type="line"/>
      <point x="146" y="627" type="line" smooth="yes"/>
      <point x="146" y="613"/>
      <point x="127" y="593"/>
      <point x="113" y="593" type="qcurve" smooth="yes"/>
      <point x="67" y="593" type="line"/>
      <point x="67" y="554" type="line"/>
      <point x="0" y="554" type="line"/>
      <point x="0" y="627" type="line" smooth="yes"/>
      <point x="0" y="641"/>
      <point x="19" y="660"/>
      <point x="33" y="660" type="qcurve" smooth="yes"/>
      <point x="79" y="660" type="line"/>
      <point x="79" y="700" type="line"/>
    </contour>
  </outline>
</glyph>
<glyph name="Yacute" format="2">
  <advance width="158"/>
  <unicode hex="00DD"/>
  <outline>
    <contour>
      <point x="146" y="542" type="line"/>
      <point x="146" y="271" type="line" smooth="yes"/>
      <point x="146" y="257"/>
      <point x="126" y="237"/>
      <point x="112" y="237" type="qcurve" smooth="yes"/>
      <point x="106" y="237" type="line"/>
      <point x="106" y="0" type="line"/>
      <point x="39" y="0" type="line"/>
      <point x="39" y="237" type="line"/>
      <point x="33" y="237" type="line" smooth="yes"/>
      <point x="19" y="237"/>
      <point x="0" y="257"/>
      <point x="0" y="271" type="qcurve" smooth="yes"/>
      <point x="0" y="542" type="line"/>
      <point x="67" y="542" type="line"/>
      <point x="67" y="304" type="line"/>
      <point x="79" y="304" type="line"/>
      <point x="79" y="542" type="line"/>
    </contour>
    <contour>
      <point x="146" y="700" type="line"/>
      <point x="146" y="587" type="line" smooth="yes"/>
      <point x="146" y="573"/>
      <point x="127" y="554"/>
      <point x="113" y="554" type="qcurve" smooth="yes"/>
      <point x="0" y="554" type="line"/>
      <point x="0" y="621" type="line"/>
      <point x="79" y="621" type="line"/>
      <point x="79" y="700" type="line"/>
    </contour>
  </outline>
</glyph>
<glyph name="Thorn" format="2">
  <advance width="158"/>
  <unicode hex="00DE"/>
  <outline>
    <contour>
      <point x="67" y="0" type="line"/>
      <point x="0" y="0" type="line"/>
      <point x="0" y="700" type="line"/>
      <point x="67" y="700" type="line"/>
      <point x="67" y="621" type="line"/>
      <point x="113" y="621" type="line" smooth="yes"/>
      <point x="127" y="621"/>
      <point x="146" y="602"/>
      <point x="146" y="588" type="qcurve" smooth="yes"/>
      <point x="146" y="113" type="line" smooth="yes"/>
      <point x="146" y="99"/>
      <point x="127" y="80"/>
      <point x="113" y="80" type="qcurve" smooth="yes"/>
      <point x="67" y="80" type="line"/>
    </contour>
    <contour>
      <point x="67" y="147" type="line"/>
      <point x="79" y="147" type="line"/>
      <point x="79" y="554" type="line"/>
      <point x="67" y="554" type="line"/>
    </contour>
  </outline>
</glyph>
<glyph name="ccedilla" format="2">
  <advance width="158"/>
  <unicode hex="00E7"/>
  <outline>
    <contour>
      <point x="113" y="0" type="qcurve" smooth="yes"/>
      <point x="106" y="0" type="line"/>
      <point x="106" y="-12" type="line"/>
      <point x="112" y="-12" type="line" smooth="yes"/>
      <point x="126" y="-12"/>
      <point x="146" y="-32"/>
      <point x="146" y="-46" type="qcurve" smooth="yes"/>
      <point x="146" y="-125" type="line" smooth="yes"/>
      <point x="146" y="-139"/>
      <point x="126" y="-158"/>
      <point x="112" y="-158" type="qcurve" smooth="yes"/>
      <point x="39" y="-158" type="line"/>
      <point x="39" y="-91" type="line"/>
      <point x="79" y="-91" type="line"/>
      <point x="79" y="-79" type="line"/>
      <point x="72" y="-79" type="line" smooth="yes"/>
      <point x="58" y="-79"/>
      <point x="39" y="-60"/>
      <point x="39" y="-46" type="qcurve" smooth="yes"/>
      <point x="39" y="0" type="line"/>
      <point x="33" y="0" type="line" smooth="yes"/>
      <point x="19" y="0"/>
      <point x="0" y="19"/>
      <point x="0" y="33" type="qcurve" smooth="yes"/>
      <point x="0" y="508" type="line" smooth="yes"/>
      <point x="0" y="522"/>
      <point x="19" y="542"/>
      <point x="33" y="542" type="qcurve" smooth="yes"/>
      <point x="113" y="542" type="line" smooth="yes"/>
      <point x="127" y="542"/>
      <point x="146" y="522"/>
      <point x="146" y="508" type="qcurve" smooth="yes"/>
      <point x="146" y="277" type="line"/>
      <point x="79" y="277" type="line"/>
      <point x="79" y="475" type="line"/>
      <point x="67" y="475" type="line"/>
      <point x="67" y="67" type="line"/>
      <point x="79" y="67" type="line"/>
      <point x="79" y="265" type="line"/>
      <point x="146" y="265" type="line"/>
      <point x="146" y="33" type="line" smooth="yes"/>
      <point x="146" y="19"/>
      <point x="127" y="0"/>
    </contour>
  </outline>
</glyph>
<glyph name="oslash" format="2">
  <advance width="238"/>
  <unicode hex="00F8"/>
  <outline>
    <contour>
      <point x="192" y="542" type="line" smooth="yes"/>
      <point x="206" y="542"/>
      <point x="226" y="522"/>
      <point x="226" y="508" type="qcurve" smooth="yes"/>
      <point x="226" y="33" type="line" smooth="yes"/>
      <point x="226" y="19"/>
      <point x="206" y="0"/>
      <point x="192" y="0" type="qcurve" smooth="yes"/>
      <point x="147" y="0" type="line"/>
      <point x="147" y="-79" type="line"/>
      <point x="80" y="-79" type="line"/>
      <point x="80" y="0" type="line"/>
      <point x="34" y="0" type="line" smooth="yes"/>
      <point x="20" y="0"/>
      <point x="0" y="19"/>
      <point x="0" y="33" type="qcurve" smooth="yes"/>
      <point x="0" y="508" type="line" smooth="yes"/>
      <point x="0" y="522"/>
      <point x="20" y="542"/>
      <point x="34" y="542" type="qcurve" smooth="yes"/>
      <point x="80" y="542" type="line"/>
      <point x="80" y="621" type="line"/>
      <point x="147" y="621" type="line"/>
      <point x="147" y="542" type="line"/>
    </contour>
    <contour>
      <point x="80" y="67" type="line"/>
      <point x="80" y="475" type="line"/>
      <point x="67" y="475" type="line"/>
      <point x="67" y="67" type="line"/>
    </contour>
    <contour>
      <point x="159" y="475" type="line"/>
      <point x="147" y="475" type="line"/>
      <point x="147" y="67" type="line"/>
      <point x="159" y="67" type="line"/>
    </contour>
  </outline>
</glyph>
<glyph name="Amacron" format="2">
  <advance width="158"/>
  <unicode hex="0100"/>
  <outline>
    <contour>
      <point x="113" y="621" type="qcurve" smooth="yes"/>
      <point x="33" y="621" type="line" smooth="yes"/>
      <point x="19" y="621"/>
      <point x="0" y="601"/>
      <point x="0" y="587" type="qcurve" smooth="yes"/>
      <point x="0" y="344" type="line"/>
      <point x="0" y="277" type="line"/>
      <point x="0" y="0" type="line"/>
      <point x="67" y="0" type="line"/>
      <point x="67" y="277" type="line"/>
      <point x="79" y="277" type="line"/>
      <point x="79" y="0" type="line"/>
      <point x="146" y="0" type="line"/>
      <point x="146" y="277" type="line"/>
      <point x="146" y="344" type="line"/>
      <point x="146" y="587" type="line" smooth="yes"/>
      <point x="146" y="601"/>
      <point x="127" y="621"/>
    </contour>
    <contour>
      <point x="67" y="344" type="line"/>
      <point x="67" y="554" type="line"/>
      <point x="79" y="554" type="line"/>
      <point x="79" y="344" type="line"/>
    </contour>
    <contour>
      <point x="146" y="633" type="line"/>
      <point x="0" y="633" type="line"/>
      <point x="0" y="700" type="line"/>
      <point x="146" y="700" type="line"/>
    </contour>
  </outline>
</glyph>
<glyph name="Abreve" format="2">
  <advance width="158"/>
  <unicode hex="0102"/>
  <outline>
    <contour>
      <point x="113" y="542" type="line" smooth="yes"/>
      <point x="127" y="542"/>
      <point x="146" y="522"/>
      <point x="146" y="508" type="qcurve" smooth="yes"/>
      <point x="146" y="0" type="line"/>
      <point x="79" y="0" type="line"/>
      <point x="79" y="237" type="line"/>
      <point x="67" y="237" type="line"/>
      <point x="67" y="0" type="line"/>
      <point x="0" y="0" type="line"/>
      <point x="0" y="508" type="line" smooth="yes"/>
      <point x="0" y="522"/>
      <point x="19" y="542"/>
      <point x="33" y="542" type="qcurve" smooth="yes"/>
    </contour>
    <contour>
      <point x="79" y="304" type="line"/>
      <point x="79" y="475" type="line"/>
      <point x="67" y="475" type="line"/>
      <point x="67" y="304" type="line"/>
    </contour>
    <contour>
      <point x="0" y="700" type="line"/>
      <point x="67" y="700" type="line"/>
      <point x="67" y="621" type="line"/>
      <point x="79" y="621" type="line"/>
      <point x="79" y="700" type="line"/>
      <point x="146" y="700" type="line"/>
      <point x="146" y="588" type="line" smooth="yes"/>
      <point x="146" y="574"/>
      <point x="127" y="554"/>
      <point x="113" y="554" type="qcurve" smooth="yes"/>
      <point x="33" y="554" type="line" smooth="yes"/>
      <point x="19" y="554"/>
      <point x="0" y="574"/>
      <point x="0" y="588" type="qcurve" smooth="yes"/>
    </contour>
  </outline>
</glyph>
<glyph name="Ccircumflex" format="2">
  <advance width="158"/>
  <unicode hex="0108"/>
  <outline>
    <contour>
      <point x="113" y="0" type="qcurve" smooth="yes"/>
      <point x="33" y="0" type="line" smooth="yes"/>
      <point x="19" y="0"/>
      <point x="0" y="19"/>
      <point x="0" y="33" type="qcurve" smooth="yes"/>
      <point x="0" y="509" type="line" smooth="yes"/>
      <point x="0" y="523"/>
      <point x="19" y="542"/>
      <point x="33" y="542" type="qcurve" smooth="yes"/>
      <point x="113" y="542" type="line" smooth="yes"/>
      <point x="127" y="542"/>
      <point x="146" y="523"/>
      <point x="146" y="509" type="qcurve" smooth="yes"/>
      <point x="146" y="276" type="line"/>
      <point x="79" y="276" type="line"/>
      <point x="79" y="474" type="line"/>
      <point x="67" y="474" type="line"/>
      <point x="67" y="67" type="line"/>
      <point x="79" y="67" type="line"/>
      <point x="79" y="264" type="line"/>
      <point x="146" y="264" type="line"/>
      <point x="146" y="33" type="line" smooth="yes"/>
      <point x="146" y="19"/>
      <point x="127" y="0"/>
    </contour>
    <contour>
      <point x="146" y="554" type="line"/>
      <point x="79" y="554" type="line"/>
      <point x="79" y="614" type="line"/>
      <point x="73" y="620" type="line"/>
      <point x="67" y="614" type="line"/>
      <point x="67" y="554" type="line"/>
      <point x="0" y="554" type="line"/>
      <point x="0" y="627" type="line" smooth="yes"/>
      <point x="0.0" y="634.5" name="inserted"/>
      <point x="5.0" y="646.5"/>
      <point x="10" y="651" type="qcurve"/>
      <point x="49" y="691" type="line" smooth="yes"/>
      <point x="59" y="701"/>
      <point x="87" y="701"/>
      <point x="97" y="691" type="qcurve" smooth="yes"/>
      <point x="136" y="651" type="line"/>
      <point x="141.0" y="646.5" name="inserted"/>
      <point x="146.0" y="634.5"/>
      <point x="146" y="627" type="qcurve" smooth="yes"/>
    </contour>
  </outline>
</glyph>
<glyph name="Cdotaccent" format="2">
  <advance width="158"/>
  <unicode hex="010A"/>
  <outline>
    <contour>
      <point x="113" y="0" type="qcurve" smooth="yes"/>
      <point x="33" y="0" type="line" smooth="yes"/>
      <point x="19" y="0"/>
      <point x="0" y="19"/>
      <point x="0" y="33" type="qcurve" smooth="yes"/>
      <point x="0" y="509" type="line" smooth="yes"/>
      <point x="0" y="523"/>
      <point x="19" y="542"/>
      <point x="33" y="542" type="qcurve" smooth="yes"/>
      <point x="113" y="542" type="line" smooth="yes"/>
      <point x="127" y="542"/>
      <point x="146" y="523"/>
      <point x="146" y="509" type="qcurve" smooth="yes"/>
      <point x="146" y="277" type="line"/>
      <point x="79" y="277" type="line"/>
      <point x="79" y="475" type="line"/>
      <point x="67" y="475" type="line"/>
      <point x="67" y="68" type="line"/>
      <point x="79" y="68" type="line"/>
      <point x="79" y="265" type="line"/>
      <point x="146" y="265" type="line"/>
      <point x="146" y="33" type="line" smooth="yes"/>
      <point x="146" y="19"/>
      <point x="127" y="0"/>
    </contour>
    <contour>
      <point x="40" y="700" type="line"/>
      <point x="107" y="700" type="line"/>
      <point x="107" y="554" type="line"/>
      <point x="40" y="554" type="line"/>
    </contour>
  </outline>
</glyph>
<glyph name="Ccaron" format="2">
  <advance width="158"/>
  <unicode hex="010C"/>
  <outline>
    <contour>
      <point x="33" y="0" type="qcurve" smooth="yes"/>
      <point x="112" y="0" type="line" smooth="yes"/>
      <point x="126" y="0"/>
      <point x="146" y="19"/>
      <point x="146" y="33" type="qcurve" smooth="yes"/>
      <point x="146" y="271" type="line"/>
      <point x="79" y="271" type="line"/>
      <point x="79" y="67" type="line"/>
      <point x="67" y="67" type="line"/>
      <point x="67" y="475" type="line"/>
      <point x="79" y="475" type="line"/>
      <point x="79" y="283" type="line"/>
      <point x="146" y="283" type="line"/>
      <point x="146" y="508" type="line" smooth="yes"/>
      <point x="146" y="522"/>
      <point x="126" y="542"/>
      <point x="112" y="542" type="qcurve" smooth="yes"/>
      <point x="33" y="542" type="line" smooth="yes"/>
      <point x="19" y="542"/>
      <point x="0" y="522"/>
      <point x="0" y="508" type="qcurve" smooth="yes"/>
      <point x="0" y="33" type="line" smooth="yes"/>
      <point x="0" y="19"/>
      <point x="19" y="0"/>
    </contour>
    <contour>
      <point x="0" y="700" type="line"/>
      <point x="67" y="700" type="line"/>
      <point x="67" y="640" type="line"/>
      <point x="73" y="634" type="line"/>
      <point x="79" y="640" type="line"/>
      <point x="79" y="700" type="line"/>
      <point x="146" y="700" type="line"/>
      <point x="146" y="627" type="line" smooth="yes"/>
      <point x="146.0" y="619.5" name="inserted"/>
      <point x="141.0" y="607.5"/>
      <point x="136" y="603" type="qcurve"/>
      <point x="97" y="563" type="line" smooth="yes"/>
      <point x="87" y="553"/>
      <point x="59" y="553"/>
      <point x="49" y="563" type="qcurve" smooth="yes"/>
      <point x="10" y="603" type="line"/>
      <point x="5.0" y="607.5" name="inserted"/>
      <point x="0.0" y="619.5"/>
      <point x="0" y="627" type="qcurve" smooth="yes"/>
    </contour>
  </outline>
</glyph>
<glyph name="Dcaron" format="2">
  <advance width="237"/>
  <unicode hex="010E"/>
  <outline>
    <contour>
      <point x="192" y="0" type="qcurve" smooth="yes"/>
      <point x="0" y="0" type="line"/>
      <point x="0" y="265" type="line"/>
      <point x="67" y="265" type="line"/>
      <point x="67" y="67" type="line"/>
      <point x="79" y="67" type="line"/>
      <point x="79" y="475" type="line"/>
      <point x="67" y="475" type="line"/>
      <point x="67" y="277" type="line"/>
      <point x="0" y="277" type="line"/>
      <point x="0" y="542" type="line"/>
      <point x="192" y="542" type="line" smooth="yes"/>
      <point x="206" y="542"/>
      <point x="225" y="523"/>
      <point x="225" y="509" type="qcurve" smooth="yes"/>
      <point x="225" y="34" type="line" smooth="yes"/>
      <point x="225" y="20"/>
      <point x="206" y="0"/>
    </contour>
    <contour>
      <point x="146" y="67" type="line"/>
      <point x="158" y="67" type="line"/>
      <point x="158" y="475" type="line"/>
      <point x="146" y="475" type="line"/>
    </contour>
    <contour>
      <point x="39" y="700" type="line"/>
      <point x="106" y="700" type="line"/>
      <point x="106" y="640" type="line"/>
      <point x="112" y="634" type="line"/>
      <point x="118" y="640" type="line"/>
      <point x="118" y="700" type="line"/>
      <point x="185" y="700" type="line"/>
      <point x="185" y="627" type="line" smooth="yes"/>
      <point x="185.0" y="619.5" name="inserted"/>
      <point x="180.0" y="607.5"/>
      <point x="175" y="603" type="qcurve"/>
      <point x="136" y="563" type="line" smooth="yes"/>
      <point x="126" y="553"/>
      <point x="98" y="553"/>
      <point x="88" y="563" type="qcurve" smooth="yes"/>
      <point x="49" y="603" type="line"/>
      <point x="44.0" y="607.5" name="inserted"/>
      <point x="39.0" y="619.5"/>
      <point x="39" y="627" type="qcurve" smooth="yes"/>
    </contour>
  </outline>
</glyph>
<glyph name="dcroat" format="2">
  <advance width="198"/>
  <unicode hex="0111"/>
  <outline>
    <contour>
      <point x="146" y="0" type="line"/>
      <point x="33" y="0" type="line" smooth="yes"/>
      <point x="19" y="0"/>
      <point x="0" y="20"/>
      <point x="0" y="34" type="qcurve" smooth="yes"/>
      <point x="0" y="509" type="line" smooth="yes"/>
      <point x="0" y="523"/>
      <point x="19" y="542"/>
      <point x="33" y="542" type="qcurve" smooth="yes"/>
      <point x="79" y="542" type="line"/>
      <point x="79" y="554" type="line"/>
      <point x="40" y="554" type="line"/>
      <point x="40" y="621" type="line"/>
      <point x="79" y="621" type="line"/>
      <point x="79" y="700" type="line"/>
      <point x="146" y="700" type="line"/>
      <point x="146" y="621" type="line"/>
      <point x="186" y="621" type="line"/>
      <point x="186" y="554" type="line"/>
      <point x="146" y="554" type="line"/>
    </contour>
    <contour>
      <point x="67" y="67" type="line"/>
      <point x="79" y="67" type="line"/>
      <point x="79" y="475" type="line"/>
      <point x="67" y="475" type="line"/>
    </contour>
  </outline>
</glyph>
<glyph name="Emacron" format="2">
  <advance width="158"/>
  <unicode hex="0112"/>
  <outline>
    <contour>
      <point x="146" y="0" type="line"/>
      <point x="0" y="0" type="line"/>
      <point x="0" y="621" type="line"/>
      <point x="146" y="621" type="line"/>
      <point x="146" y="356" type="line"/>
      <point x="79" y="356" type="line"/>
      <point x="79" y="554" type="line"/>
      <point x="67" y="554" type="line"/>
      <point x="67" y="344" type="line"/>
      <point x="146" y="344" type="line"/>
      <point x="146" y="277" type="line"/>
      <point x="67" y="277" type="line"/>
      <point x="67" y="67" type="line"/>
      <point x="79" y="67" type="line"/>
      <point x="79" y="265" type="line"/>
      <point x="146" y="265" type="line"/>
      <point x="146" y="0" type="line"/>
    </contour>
    <contour>
      <point x="146" y="633" type="line"/>
      <point x="0" y="633" type="line"/>
      <point x="0" y="700" type="line"/>
      <point x="146" y="700" type="line"/>
      <point x="146" y="633" type="line"/>
    </contour>
  </outline>
</glyph>
<glyph name="Ebreve" format="2">
  <advance width="158"/>
  <unicode hex="0114"/>
  <outline>
    <contour>
      <point x="146" y="0" type="line"/>
      <point x="0" y="0" type="line"/>
      <point x="0" y="542" type="line"/>
      <point x="146" y="542" type="line"/>
      <point x="146" y="317" type="line"/>
      <point x="79" y="317" type="line"/>
      <point x="79" y="475" type="line"/>
      <point x="67" y="475" type="line"/>
      <point x="67" y="305" type="line"/>
      <point x="146" y="305" type="line"/>
      <point x="146" y="238" type="line"/>
      <point x="67" y="238" type="line"/>
      <point x="67" y="67" type="line"/>
      <point x="79" y="67" type="line"/>
      <point x="79" y="226" type="line"/>
      <point x="146" y="226" type="line"/>
    </contour>
    <contour>
      <point x="0" y="700" type="line"/>
      <point x="67" y="700" type="line"/>
      <point x="67" y="621" type="line"/>
      <point x="79" y="621" type="line"/>
      <point x="79" y="700" type="line"/>
      <point x="146" y="700" type="line"/>
      <point x="146" y="588" type="line" smooth="yes"/>
      <point x="146" y="574"/>
      <point x="127" y="554"/>
      <point x="113" y="554" type="qcurve" smooth="yes"/>
      <point x="33" y="554" type="line" smooth="yes"/>
      <point x="19" y="554"/>
      <point x="0" y="574"/>
      <point x="0" y="588" type="qcurve" smooth="yes"/>
    </contour>
  </outline>
</glyph>
<glyph name="Eogonek" format="2">
  <advance width="158"/>
  <unicode hex="0118"/>
  <outline>
    <contour>
      <point x="146" y="-79" type="line"/>
      <point x="73" y="-79" type="line" smooth="yes"/>
      <point x="59" y="-79"/>
      <point x="40" y="-59"/>
      <point x="40" y="-45" type="qcurve" smooth="yes"/>
      <point x="40" y="0" type="line"/>
      <point x="0" y="0" type="line"/>
      <point x="0" y="700" type="line"/>
      <point x="146" y="700" type="line"/>
      <point x="146" y="395" type="line"/>
      <point x="79" y="395" type="line"/>
      <point x="79" y="633" type="line"/>
      <point x="67" y="633" type="line"/>
      <point x="67" y="383" type="line"/>
      <point x="146" y="383" type="line"/>
      <point x="146" y="316" type="line"/>
      <point x="67" y="316" type="line"/>
      <point x="67" y="67" type="line"/>
      <point x="79" y="67" type="line"/>
      <point x="79" y="304" type="line"/>
      <point x="146" y="304" type="line"/>
      <point x="146" y="0" type="line"/>
      <point x="107" y="0" type="line"/>
      <point x="107" y="-12" type="line"/>
      <point x="146" y="-12" type="line"/>
    </contour>
  </outline>
</glyph>
<glyph name="eogonek" format="2">
  <advance width="158"/>
  <unicode hex="0119"/>
  <outline>
    <contour>
      <point x="73" y="-79" type="line" smooth="yes"/>
      <point x="59" y="-79"/>
      <point x="40" y="-60"/>
      <point x="40" y="-46" type="qcurve" smooth="yes"/>
      <point x="40" y="0" type="line"/>
      <point x="33" y="0" type="line" smooth="yes"/>
      <point x="19" y="0"/>
      <point x="0" y="19"/>
      <point x="0" y="33" type="qcurve" smooth="yes"/>
      <point x="0" y="508" type="line" smooth="yes"/>
      <point x="0" y="522"/>
      <point x="19" y="542"/>
      <point x="33" y="542" type="qcurve" smooth="yes"/>
      <point x="113" y="542" type="line" smooth="yes"/>
      <point x="127" y="542"/>
      <point x="146" y="522"/>
      <point x="146" y="508" type="qcurve" smooth="yes"/>
      <point x="146" y="237" type="line"/>
      <point x="67" y="237" type="line"/>
      <point x="67" y="67" type="line"/>
      <point x="79" y="67" type="line"/>
      <point x="79" y="225" type="line"/>
      <point x="146" y="225" type="line"/>
      <point x="146" y="33" type="line" smooth="yes"/>
      <point x="146" y="19"/>
      <point x="127" y="0"/>
      <point x="113" y="0" type="qcurve" smooth="yes"/>
      <point x="107" y="0" type="line"/>
      <point x="107" y="-12" type="line"/>
      <point x="146" y="-12" type="line"/>
      <point x="146" y="-79" type="line"/>
    </contour>
    <contour>
      <point x="67" y="304" type="line"/>
      <point x="79" y="304" type="line"/>
      <point x="79" y="475" type="line"/>
      <point x="67" y="475" type="line"/>
    </contour>
  </outline>
</glyph>
<glyph name="Gbreve" format="2">
  <advance width="198"/>
  <unicode hex="011E"/>
  <outline>
    <contour>
      <point x="146" y="0" type="line"/>
      <point x="33" y="0" type="line" smooth="yes"/>
      <point x="19" y="0"/>
      <point x="0" y="19"/>
      <point x="0" y="33" type="qcurve" smooth="yes"/>
      <point x="0" y="508" type="line" smooth="yes"/>
      <point x="0" y="522"/>
      <point x="19" y="542"/>
      <point x="33" y="542" type="qcurve" smooth="yes"/>
      <point x="113" y="542" type="line" smooth="yes"/>
      <point x="127" y="542"/>
      <point x="146" y="522"/>
      <point x="146" y="508" type="qcurve" smooth="yes"/>
      <point x="146" y="277" type="line"/>
      <point x="79" y="277" type="line"/>
      <point x="79" y="475" type="line"/>
      <point x="67" y="475" type="line"/>
      <point x="67" y="67" type="line"/>
      <point x="79" y="67" type="line"/>
      <point x="79" y="265" type="line"/>
      <point x="186" y="265" type="line"/>
      <point x="186" y="198" type="line"/>
      <point x="146" y="198" type="line"/>
    </contour>
    <contour>
      <point x="0" y="700" type="line"/>
      <point x="67" y="700" type="line"/>
      <point x="67" y="621" type="line"/>
      <point x="79" y="621" type="line"/>
      <point x="79" y="700" type="line"/>
      <point x="146" y="700" type="line"/>
      <point x="146" y="588" type="line" smooth="yes"/>
      <point x="146" y="574"/>
      <point x="127" y="554"/>
      <point x="113" y="554" type="qcurve" smooth="yes"/>
      <point x="33" y="554" type="line" smooth="yes"/>
      <point x="19" y="554"/>
      <point x="0" y="574"/>
      <point x="0" y="588" type="qcurve" smooth="yes"/>
    </contour>
  </outline>
</glyph>
<glyph name="Gdotaccent" format="2">
  <advance width="198"/>
  <unicode hex="0120"/>
  <outline>
    <contour>
      <point x="146" y="0" type="line"/>
      <point x="33" y="0" type="line" smooth="yes"/>
      <point x="19" y="0"/>
      <point x="0" y="19"/>
      <point x="0" y="33" type="qcurve" smooth="yes"/>
      <point x="0" y="508" type="line" smooth="yes"/>
      <point x="0" y="522"/>
      <point x="19" y="542"/>
      <point x="33" y="542" type="qcurve" smooth="yes"/>
      <point x="113" y="542" type="line" smooth="yes"/>
      <point x="127" y="542"/>
      <point x="146" y="522"/>
      <point x="146" y="508" type="qcurve" smooth="yes"/>
      <point x="146" y="277" type="line"/>
      <point x="79" y="277" type="line"/>
      <point x="79" y="475" type="line"/>
      <point x="67" y="475" type="line"/>
      <point x="67" y="67" type="line"/>
      <point x="79" y="67" type="line"/>
      <point x="79" y="265" type="line"/>
      <point x="186" y="265" type="line"/>
      <point x="186" y="198" type="line"/>
      <point x="146" y="198" type="line"/>
    </contour>
    <contour>
      <point x="40" y="700" type="line"/>
      <point x="107" y="700" type="line"/>
      <point x="107" y="554" type="line"/>
      <point x="40" y="554" type="line"/>
    </contour>
  </outline>
</glyph>
<glyph name="uni0122" format="2">
  <advance width="198"/>
  <unicode hex="0122"/>
  <outline>
    <contour>
      <point x="39" y="-91" type="line"/>
      <point x="0" y="-91" type="line"/>
      <point x="0" y="-158" type="line"/>
      <point x="73" y="-158" type="line" smooth="yes"/>
      <point x="87" y="-158"/>
      <point x="106" y="-139"/>
      <point x="106" y="-125" type="qcurve" smooth="yes"/>
      <point x="106" y="-12" type="line"/>
      <point x="39" y="-12" type="line"/>
    </contour>
    <contour>
      <point x="146" y="0" type="line"/>
      <point x="34" y="0" type="line" smooth="yes"/>
      <point x="20" y="0"/>
      <point x="0" y="20"/>
      <point x="0" y="34" type="qcurve" smooth="yes"/>
      <point x="0" y="667" type="line" smooth="yes"/>
      <point x="0" y="681"/>
      <point x="20" y="700"/>
      <point x="34" y="700" type="qcurve" smooth="yes"/>
      <point x="113" y="700" type="line" smooth="yes"/>
      <point x="127" y="700"/>
      <point x="146" y="681"/>
      <point x="146" y="667" type="qcurve" smooth="yes"/>
      <point x="146" y="356" type="line"/>
      <point x="79" y="356" type="line"/>
      <point x="79" y="633" type="line"/>
      <point x="67" y="633" type="line"/>
      <point x="67" y="67" type="line"/>
      <point x="79" y="67" type="line"/>
      <point x="79" y="344" type="line"/>
      <point x="186" y="344" type="line"/>
      <point x="186" y="277" type="line"/>
      <point x="146" y="277" type="line"/>
    </contour>
  </outline>
</glyph>
<glyph name="uni0123" format="2">
  <advance width="158"/>
  <unicode hex="0123"/>
  <outline>
    <contour>
      <point x="106" y="554" type="line"/>
      <point x="39" y="554" type="line"/>
      <point x="39" y="667" type="line" smooth="yes"/>
      <point x="39" y="681"/>
      <point x="58" y="700"/>
      <point x="72" y="700" type="qcurve" smooth="yes"/>
      <point x="146" y="700" type="line"/>
      <point x="146" y="633" type="line"/>
      <point x="106" y="633" type="line"/>
    </contour>
    <contour>
      <point x="113" y="-158" type="qcurve" smooth="yes"/>
      <point x="33" y="-158" type="line" smooth="yes"/>
      <point x="19" y="-158"/>
      <point x="0" y="-139"/>
      <point x="0" y="-125" type="qcurve" smooth="yes"/>
      <point x="0" y="-12" type="line"/>
      <point x="67" y="-12" type="line"/>
      <point x="67" y="-91" type="line"/>
      <point x="79" y="-91" type="line"/>
      <point x="79" y="0" type="line"/>
      <point x="33" y="0" type="line" smooth="yes"/>
      <point x="19" y="0"/>
      <point x="0" y="19"/>
      <point x="0" y="33" type="qcurve" smooth="yes"/>
      <point x="0" y="508" type="line" smooth="yes"/>
      <point x="0" y="522"/>
      <point x="19" y="542"/>
      <point x="33" y="542" type="qcurve" smooth="yes"/>
      <point x="146" y="542" type="line"/>
      <point x="146" y="-125" type="line" smooth="yes"/>
      <point x="146" y="-139"/>
      <point x="127" y="-158"/>
    </contour>
    <contour>
      <point x="67" y="67" type="line"/>
      <point x="79" y="67" type="line"/>
      <point x="79" y="475" type="line"/>
      <point x="67" y="475" type="line"/>
    </contour>
  </outline>
</glyph>
<glyph name="hcircumflex" format="2">
  <advance width="158"/>
  <unicode hex="0125"/>
  <outline>
    <contour>
      <point x="146" y="0" type="line"/>
      <point x="79" y="0" type="line"/>
      <point x="79" y="396" type="line"/>
      <point x="67" y="396" type="line"/>
      <point x="67" y="0" type="line"/>
      <point x="0" y="0" type="line"/>
      <point x="0" y="542" type="line"/>
      <point x="67" y="542" type="line"/>
      <point x="67" y="463" type="line"/>
      <point x="113" y="463" type="line" smooth="yes"/>
      <point x="127" y="463"/>
      <point x="146" y="443"/>
      <point x="146" y="429" type="qcurve" smooth="yes"/>
    </contour>
    <contour>
      <point x="146" y="554" type="line"/>
      <point x="79" y="554" type="line"/>
      <point x="79" y="614" type="line"/>
      <point x="73" y="620" type="line"/>
      <point x="67" y="614" type="line"/>
      <point x="67" y="554" type="line"/>
      <point x="0" y="554" type="line"/>
      <point x="0" y="627" type="line" smooth="yes"/>
      <point x="0.0" y="634.5" name="inserted"/>
      <point x="5.0" y="646.5"/>
      <point x="10" y="651" type="qcurve"/>
      <point x="49" y="691" type="line" smooth="yes"/>
      <point x="59" y="701"/>
      <point x="87" y="701"/>
      <point x="97" y="691" type="qcurve" smooth="yes"/>
      <point x="136" y="651" type="line"/>
      <point x="141.0" y="646.5" name="inserted"/>
      <point x="146.0" y="634.5"/>
      <point x="146" y="627" type="qcurve" smooth="yes"/>
    </contour>
  </outline>
</glyph>
<glyph name="Hbar" format="2">
  <advance width="237"/>
  <unicode hex="0126"/>
  <outline>
    <contour>
      <point x="186" y="0" type="line"/>
      <point x="119" y="0" type="line"/>
      <point x="119" y="316" type="line"/>
      <point x="107" y="316" type="line"/>
      <point x="107" y="0" type="line"/>
      <point x="40" y="0" type="line"/>
      <point x="40" y="475" type="line"/>
      <point x="0" y="475" type="line"/>
      <point x="0" y="542" type="line"/>
      <point x="40" y="542" type="line"/>
      <point x="40" y="700" type="line"/>
      <point x="107" y="700" type="line"/>
      <point x="107" y="542" type="line"/>
      <point x="119" y="542" type="line"/>
      <point x="119" y="700" type="line"/>
      <point x="186" y="700" type="line"/>
      <point x="186" y="542" type="line"/>
      <point x="225" y="542" type="line"/>
      <point x="225" y="475" type="line"/>
      <point x="186" y="475" type="line"/>
      <point x="186" y="0" type="line"/>
    </contour>
    <contour>
      <point x="107" y="383" type="line"/>
      <point x="119" y="383" type="line"/>
      <point x="119" y="475" type="line"/>
      <point x="107" y="475" type="line"/>
      <point x="107" y="383" type="line"/>
    </contour>
  </outline>
</glyph>
<glyph name="hbar" format="2">
  <advance width="198"/>
  <unicode hex="0127"/>
  <outline>
    <contour>
      <point x="186" y="0" type="line"/>
      <point x="119" y="0" type="line"/>
      <point x="119" y="475" type="line"/>
      <point x="107" y="475" type="line"/>
      <point x="107" y="0" type="line"/>
      <point x="40" y="0" type="line"/>
      <point x="40" y="554" type="line"/>
      <point x="0" y="554" type="line"/>
      <point x="0" y="621" type="line"/>
      <point x="40" y="621" type="line"/>
      <point x="40" y="700" type="line"/>
      <point x="107" y="700" type="line"/>
      <point x="107" y="621" type="line"/>
      <point x="146" y="621" type="line"/>
      <point x="146" y="554" type="line"/>
      <point x="107" y="554" type="line"/>
      <point x="107" y="542" type="line"/>
      <point x="152" y="542" type="line" smooth="yes"/>
      <point x="166" y="542"/>
      <point x="186" y="522"/>
      <point x="186" y="508" type="qcurve" smooth="yes"/>
    </contour>
  </outline>
</glyph>
<glyph name="Itilde" format="2">
  <advance width="237"/>
  <unicode hex="0128"/>
  <outline>
    <contour>
      <point x="225" y="0" type="line"/>
      <point x="0" y="0" type="line"/>
      <point x="0" y="265" type="line"/>
      <point x="67" y="265" type="line"/>
      <point x="67" y="67" type="line"/>
      <point x="79" y="67" type="line"/>
      <point x="79" y="475" type="line"/>
      <point x="67" y="475" type="line"/>
      <point x="67" y="277" type="line"/>
      <point x="0" y="277" type="line"/>
      <point x="0" y="542" type="line"/>
      <point x="225" y="542" type="line"/>
      <point x="225" y="277" type="line"/>
      <point x="158" y="277" type="line"/>
      <point x="158" y="475" type="line"/>
      <point x="146" y="475" type="line"/>
      <point x="146" y="67" type="line"/>
      <point x="158" y="67" type="line"/>
      <point x="158" y="265" type="line"/>
      <point x="225" y="265" type="line"/>
    </contour>
    <contour>
      <point x="185" y="700" type="line"/>
      <point x="185" y="627" type="line" smooth="yes"/>
      <point x="185" y="613"/>
      <point x="166" y="593"/>
      <point x="152" y="593" type="qcurve" smooth="yes"/>
      <point x="106" y="593" type="line"/>
      <point x="106" y="554" type="line"/>
      <point x="39" y="554" type="line"/>
      <point x="39" y="627" type="line" smooth="yes"/>
      <point x="39" y="641"/>
      <point x="58" y="660"/>
      <point x="72" y="660" type="qcurve" smooth="yes"/>
      <point x="118" y="660" type="line"/>
      <point x="118" y="700" type="line"/>
    </contour>
  </outline>
</glyph>
<glyph name="Imacron" format="2">
  <advance width="237"/>
  <unicode hex="012A"/>
  <outline>
    <contour>
      <point x="225" y="0" type="line"/>
      <point x="0" y="0" type="line"/>
      <point x="0" y="305" type="line"/>
      <point x="67" y="305" type="line"/>
      <point x="67" y="67" type="line"/>
      <point x="79" y="67" type="line"/>
      <point x="79" y="554" type="line"/>
      <point x="67" y="554" type="line"/>
      <point x="67" y="317" type="line"/>
      <point x="0" y="317" type="line"/>
      <point x="0" y="621" type="line"/>
      <point x="225" y="621" type="line"/>
      <point x="225" y="317" type="line"/>
      <point x="158" y="317" type="line"/>
      <point x="158" y="554" type="line"/>
      <point x="146" y="554" type="line"/>
      <point x="146" y="67" type="line"/>
      <point x="158" y="67" type="line"/>
      <point x="158" y="305" type="line"/>
      <point x="225" y="305" type="line"/>
      <point x="225" y="0" type="line"/>
    </contour>
    <contour>
      <point x="186" y="633" type="line"/>
      <point x="40" y="633" type="line"/>
      <point x="40" y="700" type="line"/>
      <point x="186" y="700" type="line"/>
      <point x="186" y="633" type="line"/>
    </contour>
  </outline>
</glyph>
<glyph name="Ibreve" format="2">
  <advance width="237"/>
  <unicode hex="012C"/>
  <outline>
    <contour>
      <point x="225" y="0" type="line"/>
      <point x="0" y="0" type="line"/>
      <point x="0" y="265" type="line"/>
      <point x="67" y="265" type="line"/>
      <point x="67" y="67" type="line"/>
      <point x="79" y="67" type="line"/>
      <point x="79" y="475" type="line"/>
      <point x="67" y="475" type="line"/>
      <point x="67" y="277" type="line"/>
      <point x="0" y="277" type="line"/>
      <point x="0" y="542" type="line"/>
      <point x="225" y="542" type="line"/>
      <point x="225" y="277" type="line"/>
      <point x="158" y="277" type="line"/>
      <point x="158" y="475" type="line"/>
      <point x="146" y="475" type="line"/>
      <point x="146" y="67" type="line"/>
      <point x="158" y="67" type="line"/>
      <point x="158" y="265" type="line"/>
      <point x="225" y="265" type="line"/>
    </contour>
    <contour>
      <point x="39" y="700" type="line"/>
      <point x="106" y="700" type="line"/>
      <point x="106" y="621" type="line"/>
      <point x="118" y="621" type="line"/>
      <point x="118" y="700" type="line"/>
      <point x="185" y="700" type="line"/>
      <point x="185" y="588" type="line" smooth="yes"/>
      <point x="185" y="574"/>
      <point x="166" y="554"/>
      <point x="152" y="554" type="qcurve" smooth="yes"/>
      <point x="72" y="554" type="line" smooth="yes"/>
      <point x="58" y="554"/>
      <point x="39" y="574"/>
      <point x="39" y="588" type="qcurve" smooth="yes"/>
    </contour>
  </outline>
</glyph>
<glyph name="Iogonek" format="2">
  <advance width="237"/>
  <unicode hex="012E"/>
  <outline>
    <contour>
      <point x="186" y="-79" type="line"/>
      <point x="113" y="-79" type="line" smooth="yes"/>
      <point x="99" y="-79"/>
      <point x="79" y="-59"/>
      <point x="79" y="-45" type="qcurve" smooth="yes"/>
      <point x="79" y="0" type="line"/>
      <point x="0" y="0" type="line"/>
      <point x="0" y="343" type="line"/>
      <point x="67" y="343" type="line"/>
      <point x="67" y="67" type="line"/>
      <point x="79" y="67" type="line"/>
      <point x="79" y="633" type="line"/>
      <point x="67" y="633" type="line"/>
      <point x="67" y="356" type="line"/>
      <point x="0" y="356" type="line"/>
      <point x="0" y="700" type="line"/>
      <point x="225" y="700" type="line"/>
      <point x="225" y="356" type="line"/>
      <point x="158" y="356" type="line"/>
      <point x="158" y="633" type="line"/>
      <point x="146" y="633" type="line"/>
      <point x="146" y="67" type="line"/>
      <point x="158" y="67" type="line"/>
      <point x="158" y="343" type="line"/>
      <point x="225" y="343" type="line"/>
      <point x="225" y="0" type="line"/>
      <point x="146" y="0" type="line"/>
      <point x="146" y="-12" type="line"/>
      <point x="186" y="-12" type="line"/>
    </contour>
  </outline>
</glyph>
<glyph name="iogonek" format="2">
  <advance width="79"/>
  <unicode hex="012F"/>
  <outline>
    <contour>
      <point x="33" y="-79" type="line" smooth="yes"/>
      <point x="19" y="-79"/>
      <point x="0" y="-60"/>
      <point x="0" y="-46" type="qcurve" smooth="yes"/>
      <point x="0" y="542" type="line"/>
      <point x="67" y="542" type="line"/>
      <point x="67" y="-12" type="line"/>
      <point x="106" y="-12" type="line"/>
      <point x="106" y="-79" type="line"/>
    </contour>
    <contour>
      <point x="67" y="554" type="line"/>
      <point x="0" y="554" type="line"/>
      <point x="0" y="700" type="line"/>
      <point x="67" y="700" type="line"/>
    </contour>
  </outline>
</glyph>
<glyph name="dotlessi" format="2">
  <advance width="79"/>
  <unicode hex="0131"/>
  <outline>
    <contour>
      <point x="0" y="0" type="line"/>
      <point x="0" y="542" type="line"/>
      <point x="67" y="542" type="line"/>
      <point x="67" y="0" type="line"/>
      <point x="0" y="0" type="line"/>
    </contour>
  </outline>
</glyph>
<glyph name="jcircumflex" format="2">
  <advance width="158"/>
  <unicode hex="0135"/>
  <outline>
    <contour>
      <point x="146" y="-124" type="qcurve" smooth="yes"/>
      <point x="146" y="542" type="line"/>
      <point x="79" y="542" type="line"/>
      <point x="79" y="-91" type="line"/>
      <point x="67" y="-91" type="line"/>
      <point x="67" y="-11" type="line"/>
      <point x="0" y="-11" type="line"/>
      <point x="0" y="-124" type="line" smooth="yes"/>
      <point x="0" y="-138"/>
      <point x="19" y="-158"/>
      <point x="33" y="-158" type="qcurve" smooth="yes"/>
      <point x="113" y="-158" type="line" smooth="yes"/>
      <point x="127" y="-158"/>
      <point x="146" y="-138"/>
    </contour>
    <contour>
      <point x="146" y="555" type="line"/>
      <point x="79" y="555" type="line"/>
      <point x="79" y="615" type="line"/>
      <point x="73" y="621" type="line"/>
      <point x="67" y="615" type="line"/>
      <point x="67" y="555" type="line"/>
      <point x="0" y="555" type="line"/>
      <point x="0" y="628" type="line" smooth="yes"/>
      <point x="0.0" y="635.5" name="inserted"/>
      <point x="5.0" y="647.5"/>
      <point x="10" y="652" type="qcurve"/>
      <point x="49" y="692" type="line" smooth="yes"/>
      <point x="59" y="702"/>
      <point x="87" y="702"/>
      <point x="97" y="692" type="qcurve" smooth="yes"/>
      <point x="136" y="652" type="line"/>
      <point x="141.0" y="647.5" name="inserted"/>
      <point x="146.0" y="635.5"/>
      <point x="146" y="628" type="qcurve" smooth="yes"/>
    </contour>
  </outline>
</glyph>
<glyph name="Lacute" format="2">
  <advance width="158"/>
  <unicode hex="0139"/>
  <outline>
    <contour>
      <point x="146" y="0" type="line"/>
      <point x="0" y="0" type="line"/>
      <point x="0" y="542" type="line"/>
      <point x="67" y="542" type="line"/>
      <point x="67" y="67" type="line"/>
      <point x="79" y="67" type="line"/>
      <point x="79" y="344" type="line"/>
      <point x="146" y="344" type="line"/>
    </contour>
    <contour>
      <point x="146" y="700" type="line"/>
      <point x="146" y="587" type="line" smooth="yes"/>
      <point x="146" y="573"/>
      <point x="127" y="554"/>
      <point x="113" y="554" type="qcurve" smooth="yes"/>
      <point x="0" y="554" type="line"/>
      <point x="0" y="621" type="line"/>
      <point x="79" y="621" type="line"/>
      <point x="79" y="700" type="line"/>
    </contour>
  </outline>
</glyph>
<glyph name="lacute" format="2">
  <advance width="158"/>
  <unicode hex="013A"/>
  <outline>
    <contour>
      <point x="42" y="621" type="line"/>
      <point x="107" y="621" type="line"/>
      <point x="107" y="0" type="line"/>
      <point x="42" y="0" type="line"/>
    </contour>
    <contour>
      <point x="146" y="779" type="line"/>
      <point x="146" y="666" type="line" smooth="yes"/>
      <point x="146" y="652"/>
      <point x="127" y="633"/>
      <point x="113" y="633" type="qcurve" smooth="yes"/>
      <point x="0" y="633" type="line"/>
      <point x="0" y="700" type="line"/>
      <point x="79" y="700" type="line"/>
      <point x="79" y="779" type="line"/>
    </contour>
  </outline>
</glyph>
<glyph name="uni013B" format="2">
  <advance width="158"/>
  <unicode hex="013B"/>
  <outline>
    <contour>
      <point x="39" y="-91" type="line"/>
      <point x="0" y="-91" type="line"/>
      <point x="0" y="-158" type="line"/>
      <point x="73" y="-158" type="line" smooth="yes"/>
      <point x="87" y="-158"/>
      <point x="106" y="-139"/>
      <point x="106" y="-125" type="qcurve" smooth="yes"/>
      <point x="106" y="-12" type="line"/>
      <point x="39" y="-12" type="line"/>
    </contour>
    <contour>
      <point x="146" y="0" type="line"/>
      <point x="0" y="0" type="line"/>
      <point x="0" y="700" type="line"/>
      <point x="67" y="700" type="line"/>
      <point x="67" y="67" type="line"/>
      <point x="79" y="67" type="line"/>
      <point x="79" y="344" type="line"/>
      <point x="146" y="344" type="line"/>
    </contour>
  </outline>
</glyph>
<glyph name="uni013C" format="2">
  <advance width="79"/>
  <unicode hex="013C"/>
  <outline>
    <contour>
      <point x="0" y="-12" type="line"/>
      <point x="67" y="-12" type="line"/>
      <point x="67" y="-125" type="line" smooth="yes"/>
      <point x="67" y="-139"/>
      <point x="48" y="-158"/>
      <point x="34" y="-158" type="qcurve" smooth="yes"/>
      <point x="-39" y="-158" type="line"/>
      <point x="-39" y="-91" type="line"/>
      <point x="0" y="-91" type="line"/>
    </contour>
    <contour>
      <point x="0" y="700" type="line"/>
      <point x="67" y="700" type="line"/>
      <point x="67" y="0" type="line"/>
      <point x="0" y="0" type="line"/>
    </contour>
  </outline>
</glyph>
<glyph name="Ldot" format="2">
  <advance width="158"/>
  <unicode hex="013F"/>
  <outline>
    <contour>
      <point x="146" y="0" type="line"/>
      <point x="0" y="0" type="line"/>
      <point x="0" y="700" type="line"/>
      <point x="67" y="700" type="line"/>
      <point x="67" y="67" type="line"/>
      <point x="79" y="67" type="line"/>
      <point x="79" y="265" type="line"/>
      <point x="146" y="265" type="line"/>
      <point x="146" y="0" type="line"/>
    </contour>
    <contour>
      <point x="146" y="277" type="line"/>
      <point x="79" y="277" type="line"/>
      <point x="79" y="423" type="line"/>
      <point x="146" y="423" type="line"/>
      <point x="146" y="277" type="line"/>
    </contour>
  </outline>
</glyph>
<glyph name="Lslash" format="2">
  <advance width="198"/>
  <unicode hex="0141"/>
  <outline>
    <contour>
      <point x="186" y="0" type="line"/>
      <point x="40" y="0" type="line"/>
      <point x="40" y="356" type="line"/>
      <point x="0" y="356" type="line"/>
      <point x="0" y="423" type="line"/>
      <point x="40" y="423" type="line"/>
      <point x="40" y="700" type="line"/>
      <point x="107" y="700" type="line"/>
      <point x="107" y="423" type="line"/>
      <point x="146" y="423" type="line"/>
      <point x="146" y="356" type="line"/>
      <point x="107" y="356" type="line"/>
      <point x="107" y="67" type="line"/>
      <point x="119" y="67" type="line"/>
      <point x="119" y="344" type="line"/>
      <point x="186" y="344" type="line"/>
      <point x="186" y="0" type="line"/>
    </contour>
  </outline>
</glyph>
<glyph name="lslash" format="2">
  <advance width="159"/>
  <unicode hex="0142"/>
  <outline>
    <contour>
      <point x="107" y="0" type="line"/>
      <point x="40" y="0" type="line"/>
      <point x="40" y="357" type="line"/>
      <point x="0" y="357" type="line"/>
      <point x="0" y="424" type="line"/>
      <point x="40" y="424" type="line"/>
      <point x="40" y="700" type="line"/>
      <point x="107" y="700" type="line"/>
      <point x="107" y="424" type="line"/>
      <point x="147" y="424" type="line"/>
      <point x="147" y="357" type="line"/>
      <point x="107" y="357" type="line"/>
      <point x="107" y="0" type="line"/>
    </contour>
  </outline>
</glyph>
<glyph name="Nacute" format="2">
  <advance width="237"/>
  <unicode hex="0143"/>
  <outline>
    <contour>
      <point x="225" y="0" type="line"/>
      <point x="113" y="0" type="line" smooth="yes"/>
      <point x="99" y="0"/>
      <point x="79" y="20"/>
      <point x="79" y="34" type="qcurve" smooth="yes"/>
      <point x="79" y="475" type="line"/>
      <point x="67" y="475" type="line"/>
      <point x="67" y="0" type="line"/>
      <point x="0" y="0" type="line"/>
      <point x="0" y="542" type="line"/>
      <point x="113" y="542" type="line" smooth="yes"/>
      <point x="127" y="542"/>
      <point x="146" y="523"/>
      <point x="146" y="509" type="qcurve" smooth="yes"/>
      <point x="146" y="67" type="line"/>
      <point x="158" y="67" type="line"/>
      <point x="158" y="542" type="line"/>
      <point x="225" y="542" type="line"/>
    </contour>
    <contour>
      <point x="185" y="700" type="line"/>
      <point x="185" y="587" type="line" smooth="yes"/>
      <point x="185" y="573"/>
      <point x="166" y="554"/>
      <point x="152" y="554" type="qcurve" smooth="yes"/>
      <point x="39" y="554" type="line"/>
      <point x="39" y="621" type="line"/>
      <point x="118" y="621" type="line"/>
      <point x="118" y="700" type="line"/>
    </contour>
  </outline>
</glyph>
<glyph name="uni0145" format="2">
  <advance width="237"/>
  <unicode hex="0145"/>
  <outline>
    <contour>
      <point x="79" y="-91" type="line"/>
      <point x="40" y="-91" type="line"/>
      <point x="40" y="-158" type="line"/>
      <point x="113" y="-158" type="line" smooth="yes"/>
      <point x="127" y="-158"/>
      <point x="146" y="-139"/>
      <point x="146" y="-125" type="qcurve" smooth="yes"/>
      <point x="146" y="-12" type="line"/>
      <point x="79" y="-12" type="line"/>
    </contour>
    <contour>
      <point x="225" y="0" type="line"/>
      <point x="113" y="0" type="line" smooth="yes"/>
      <point x="99" y="0"/>
      <point x="79" y="20"/>
      <point x="79" y="34" type="qcurve" smooth="yes"/>
      <point x="79" y="633" type="line"/>
      <point x="67" y="633" type="line"/>
      <point x="67" y="0" type="line"/>
      <point x="0" y="0" type="line"/>
      <point x="0" y="700" type="line"/>
      <point x="113" y="700" type="line" smooth="yes"/>
      <point x="127" y="700"/>
      <point x="146" y="681"/>
      <point x="146" y="667" type="qcurve" smooth="yes"/>
      <point x="146" y="67" type="line"/>
      <point x="158" y="67" type="line"/>
      <point x="158" y="700" type="line"/>
      <point x="225" y="700" type="line"/>
    </contour>
  </outline>
</glyph>
<glyph name="uni0146" format="2">
  <advance width="158"/>
  <unicode hex="0146"/>
  <outline>
    <contour>
      <point x="39" y="-91" type="line"/>
      <point x="0" y="-91" type="line"/>
      <point x="0" y="-158" type="line"/>
      <point x="73" y="-158" type="line" smooth="yes"/>
      <point x="87" y="-158"/>
      <point x="106" y="-139"/>
      <point x="106" y="-125" type="qcurve" smooth="yes"/>
      <point x="106" y="-12" type="line"/>
      <point x="39" y="-12" type="line"/>
    </contour>
    <contour>
      <point x="146" y="0" type="line"/>
      <point x="79" y="0" type="line"/>
      <point x="79" y="475" type="line"/>
      <point x="67" y="475" type="line"/>
      <point x="67" y="0" type="line"/>
      <point x="0" y="0" type="line"/>
      <point x="0" y="542" type="line"/>
      <point x="113" y="542" type="line" smooth="yes"/>
      <point x="127" y="542"/>
      <point x="146" y="523"/>
      <point x="146" y="509" type="qcurve" smooth="yes"/>
    </contour>
  </outline>
</glyph>
<glyph name="Eng" format="2">
  <advance width="158"/>
  <unicode hex="014A"/>
  <outline>
    <contour>
      <point x="113" y="-79" type="qcurve" smooth="yes"/>
      <point x="40" y="-79" type="line"/>
      <point x="40" y="-12" type="line"/>
      <point x="79" y="-12" type="line"/>
      <point x="79" y="633" type="line"/>
      <point x="67" y="633" type="line"/>
      <point x="67" y="0" type="line"/>
      <point x="0" y="0" type="line"/>
      <point x="0" y="700" type="line"/>
      <point x="113" y="700" type="line" smooth="yes"/>
      <point x="127" y="700"/>
      <point x="146" y="680"/>
      <point x="146" y="666" type="qcurve" smooth="yes"/>
      <point x="146" y="-45" type="line" smooth="yes"/>
      <point x="146" y="-59"/>
      <point x="127" y="-79"/>
    </contour>
  </outline>
</glyph>
<glyph name="Omacron" format="2">
  <advance width="158"/>
  <unicode hex="014C"/>
  <outline>
    <contour>
      <point x="113" y="621" type="qcurve" smooth="yes"/>
      <point x="33" y="621" type="line" smooth="yes"/>
      <point x="19" y="621"/>
      <point x="0" y="601"/>
      <point x="0" y="587" type="qcurve" smooth="yes"/>
      <point x="0" y="33" type="line" smooth="yes"/>
      <point x="0" y="19"/>
      <point x="19" y="0"/>
      <point x="33" y="0" type="qcurve" smooth="yes"/>
      <point x="113" y="0" type="line" smooth="yes"/>
      <point x="127" y="0"/>
      <point x="146" y="19"/>
      <point x="146" y="33" type="qcurve" smooth="yes"/>
      <point x="146" y="587" type="line" smooth="yes"/>
      <point x="146" y="601"/>
      <point x="127" y="621"/>
    </contour>
    <contour>
      <point x="79" y="67" type="line"/>
      <point x="67" y="67" type="line"/>
      <point x="67" y="554" type="line"/>
      <point x="79" y="554" type="line"/>
    </contour>
    <contour>
      <point x="146" y="633" type="line"/>
      <point x="0" y="633" type="line"/>
      <point x="0" y="700" type="line"/>
      <point x="146" y="700" type="line"/>
    </contour>
  </outline>
</glyph>
<glyph name="OE" format="2">
  <advance width="237"/>
  <unicode hex="0152"/>
  <outline>
    <contour>
      <point x="225" y="0" type="line"/>
      <point x="33" y="0" type="line" smooth="yes"/>
      <point x="19" y="0"/>
      <point x="0" y="20"/>
      <point x="0" y="34" type="qcurve" smooth="yes"/>
      <point x="0" y="667" type="line" smooth="yes"/>
      <point x="0" y="681"/>
      <point x="19" y="700"/>
      <point x="33" y="700" type="qcurve" smooth="yes"/>
      <point x="225" y="700" type="line"/>
      <point x="225" y="396" type="line"/>
      <point x="158" y="396" type="line"/>
      <point x="158" y="633" type="line"/>
      <point x="146" y="633" type="line"/>
      <point x="146" y="384" type="line"/>
      <point x="225" y="384" type="line"/>
      <point x="225" y="317" type="line"/>
      <point x="146" y="317" type="line"/>
      <point x="146" y="67" type="line"/>
      <point x="158" y="67" type="line"/>
      <point x="158" y="305" type="line"/>
      <point x="225" y="305" type="line"/>
    </contour>
    <contour>
      <point x="67" y="67" type="line"/>
      <point x="79" y="67" type="line"/>
      <point x="79" y="633" type="line"/>
      <point x="67" y="633" type="line"/>
    </contour>
  </outline>
</glyph>
<glyph name="oe" format="2">
  <advance width="237"/>
  <unicode hex="0153"/>
  <outline>
    <contour>
      <point x="33" y="0" type="line" smooth="yes"/>
      <point x="19" y="0"/>
      <point x="0" y="19"/>
      <point x="0" y="33" type="qcurve" smooth="yes"/>
      <point x="0" y="508" type="line" smooth="yes"/>
      <point x="0" y="522"/>
      <point x="19" y="542"/>
      <point x="33" y="542" type="qcurve" smooth="yes"/>
      <point x="192" y="542" type="line" smooth="yes"/>
      <point x="206" y="542"/>
      <point x="225" y="522"/>
      <point x="225" y="508" type="qcurve" smooth="yes"/>
      <point x="225" y="237" type="line"/>
      <point x="146" y="237" type="line"/>
      <point x="146" y="67" type="line"/>
      <point x="158" y="67" type="line"/>
      <point x="158" y="225" type="line"/>
      <point x="225" y="225" type="line"/>
      <point x="225" y="33" type="line" smooth="yes"/>
      <point x="225" y="19"/>
      <point x="206" y="0"/>
      <point x="192" y="0" type="qcurve" smooth="yes"/>
    </contour>
    <contour>
      <point x="79" y="475" type="line"/>
      <point x="67" y="475" type="line"/>
      <point x="67" y="67" type="line"/>
      <point x="79" y="67" type="line"/>
    </contour>
    <contour>
      <point x="158" y="304" type="line"/>
      <point x="158" y="475" type="line"/>
      <point x="146" y="475" type="line"/>
      <point x="146" y="304" type="line"/>
    </contour>
  </outline>
</glyph>
<glyph name="Racute" format="2">
  <advance width="158"/>
  <unicode hex="0154"/>
  <outline>
    <contour>
      <point x="146" y="0" type="line"/>
      <point x="79" y="0" type="line"/>
      <point x="79" y="198" type="line"/>
      <point x="67" y="198" type="line"/>
      <point x="67" y="0" type="line"/>
      <point x="0" y="0" type="line"/>
      <point x="0" y="542" type="line"/>
      <point x="113" y="542" type="line" smooth="yes"/>
      <point x="127" y="542"/>
      <point x="146" y="522"/>
      <point x="146" y="508" type="qcurve" smooth="yes"/>
      <point x="146" y="310" type="line" smooth="yes"/>
      <point x="146" y="296"/>
      <point x="127" y="277"/>
      <point x="113" y="277" type="qcurve" smooth="yes"/>
      <point x="67" y="277" type="line"/>
      <point x="67" y="265" type="line"/>
      <point x="113" y="265" type="line" smooth="yes"/>
      <point x="127" y="265"/>
      <point x="146" y="245"/>
      <point x="146" y="231" type="qcurve" smooth="yes"/>
    </contour>
    <contour>
      <point x="67" y="344" type="line"/>
      <point x="79" y="344" type="line"/>
      <point x="79" y="475" type="line"/>
      <point x="67" y="475" type="line"/>
    </contour>
    <contour>
      <point x="146" y="700" type="line"/>
      <point x="146" y="587" type="line" smooth="yes"/>
      <point x="146" y="573"/>
      <point x="127" y="554"/>
      <point x="113" y="554" type="qcurve" smooth="yes"/>
      <point x="0" y="554" type="line"/>
      <point x="0" y="621" type="line"/>
      <point x="79" y="621" type="line"/>
      <point x="79" y="700" type="line"/>
    </contour>
  </outline>
</glyph>
<glyph name="uni0156" format="2">
  <advance width="158"/>
  <unicode hex="0156"/>
  <outline>
    <contour>
      <point x="39" y="-91" type="line"/>
      <point x="0" y="-91" type="line"/>
      <point x="0" y="-158" type="line"/>
      <point x="73" y="-158" type="line" smooth="yes"/>
      <point x="87" y="-158"/>
      <point x="106" y="-139"/>
      <point x="106" y="-125" type="qcurve" smooth="yes"/>
      <point x="106" y="-12" type="line"/>
      <point x="39" y="-12" type="line"/>
    </contour>
    <contour>
      <point x="146" y="0" type="line"/>
      <point x="79" y="0" type="line"/>
      <point x="79" y="277" type="line"/>
      <point x="67" y="277" type="line"/>
      <point x="67" y="0" type="line"/>
      <point x="0" y="0" type="line"/>
      <point x="0" y="700" type="line"/>
      <point x="113" y="700" type="line" smooth="yes"/>
      <point x="127" y="700"/>
      <point x="146" y="681"/>
      <point x="146" y="667" type="qcurve" smooth="yes"/>
      <point x="146" y="390" type="line" smooth="yes"/>
      <point x="146" y="376"/>
      <point x="127" y="356"/>
      <point x="113" y="356" type="qcurve" smooth="yes"/>
      <point x="67" y="356" type="line"/>
      <point x="67" y="344" type="line"/>
      <point x="113" y="344" type="line" smooth="yes"/>
      <point x="127" y="344"/>
      <point x="146" y="324"/>
      <point x="146" y="310" type="qcurve" smooth="yes"/>
    </contour>
    <contour>
      <point x="67" y="423" type="line"/>
      <point x="79" y="423" type="line"/>
      <point x="79" y="633" type="line"/>
      <point x="67" y="633" type="line"/>
    </contour>
  </outline>
</glyph>
<glyph name="uni0157" format="2">
  <advance width="158"/>
  <unicode hex="0157"/>
  <outline>
    <contour>
      <point x="0" y="-91" type="line"/>
      <point x="-39" y="-91" type="line"/>
      <point x="-39" y="-158" type="line"/>
      <point x="34" y="-158" type="line" smooth="yes"/>
      <point x="48" y="-158"/>
      <point x="67" y="-139"/>
      <point x="67" y="-125" type="qcurve" smooth="yes"/>
      <point x="67" y="-12" type="line"/>
      <point x="0" y="-12" type="line"/>
    </contour>
    <contour>
      <point x="67" y="0" type="line"/>
      <point x="0" y="0" type="line"/>
      <point x="0" y="542" type="line"/>
      <point x="113" y="542" type="line" smooth="yes"/>
      <point x="127" y="542"/>
      <point x="146" y="522"/>
      <point x="146" y="508" type="qcurve" smooth="yes"/>
      <point x="146" y="316" type="line"/>
      <point x="79" y="316" type="line"/>
      <point x="79" y="475" type="line"/>
      <point x="67" y="475" type="line"/>
    </contour>
  </outline>
</glyph>
<glyph name="Rcaron" format="2">
  <advance width="158"/>
  <unicode hex="0158"/>
  <outline>
    <contour>
      <point x="146" y="0" type="line"/>
      <point x="79" y="0" type="line"/>
      <point x="79" y="198" type="line"/>
      <point x="67" y="198" type="line"/>
      <point x="67" y="0" type="line"/>
      <point x="0" y="0" type="line"/>
      <point x="0" y="542" type="line"/>
      <point x="113" y="542" type="line" smooth="yes"/>
      <point x="127" y="542"/>
      <point x="146" y="522"/>
      <point x="146" y="508" type="qcurve" smooth="yes"/>
      <point x="146" y="310" type="line" smooth="yes"/>
      <point x="146" y="296"/>
      <point x="127" y="277"/>
      <point x="113" y="277" type="qcurve" smooth="yes"/>
      <point x="67" y="277" type="line"/>
      <point x="67" y="265" type="line"/>
      <point x="113" y="265" type="line" smooth="yes"/>
      <point x="127" y="265"/>
      <point x="146" y="245"/>
      <point x="146" y="231" type="qcurve" smooth="yes"/>
    </contour>
    <contour>
      <point x="67" y="344" type="line"/>
      <point x="79" y="344" type="line"/>
      <point x="79" y="475" type="line"/>
      <point x="67" y="475" type="line"/>
    </contour>
    <contour>
      <point x="0" y="700" type="line"/>
      <point x="67" y="700" type="line"/>
      <point x="67" y="640" type="line"/>
      <point x="73" y="634" type="line"/>
      <point x="79" y="640" type="line"/>
      <point x="79" y="700" type="line"/>
      <point x="146" y="700" type="line"/>
      <point x="146" y="627" type="line" smooth="yes"/>
      <point x="146.0" y="619.5" name="inserted"/>
      <point x="141.0" y="607.5"/>
      <point x="136" y="603" type="qcurve"/>
      <point x="97" y="563" type="line" smooth="yes"/>
      <point x="87" y="553"/>
      <point x="59" y="553"/>
      <point x="49" y="563" type="qcurve" smooth="yes"/>
      <point x="10" y="603" type="line"/>
      <point x="5.0" y="607.5" name="inserted"/>
      <point x="0.0" y="619.5"/>
      <point x="0" y="627" type="qcurve" smooth="yes"/>
    </contour>
  </outline>
</glyph>
<glyph name="Sacute" format="2">
  <advance width="158"/>
  <unicode hex="015A"/>
  <outline>
    <contour>
      <point x="112" y="0" type="qcurve" smooth="yes"/>
      <point x="33" y="0" type="line" smooth="yes"/>
      <point x="19" y="0"/>
      <point x="0" y="19"/>
      <point x="0" y="33" type="qcurve" smooth="yes"/>
      <point x="0" y="225" type="line"/>
      <point x="67" y="225" type="line"/>
      <point x="67" y="67" type="line"/>
      <point x="79" y="67" type="line"/>
      <point x="79" y="237" type="line"/>
      <point x="33" y="237" type="line" smooth="yes"/>
      <point x="19" y="237"/>
      <point x="0" y="257"/>
      <point x="0" y="271" type="qcurve" smooth="yes"/>
      <point x="0" y="508" type="line" smooth="yes"/>
      <point x="0" y="522"/>
      <point x="19" y="542"/>
      <point x="33" y="542" type="qcurve" smooth="yes"/>
      <point x="112" y="542" type="line" smooth="yes"/>
      <point x="126" y="542"/>
      <point x="146" y="522"/>
      <point x="146" y="508" type="qcurve" smooth="yes"/>
      <point x="146" y="316" type="line"/>
      <point x="79" y="316" type="line"/>
      <point x="79" y="475" type="line"/>
      <point x="67" y="475" type="line"/>
      <point x="67" y="304" type="line"/>
      <point x="112" y="304" type="line" smooth="yes"/>
      <point x="126" y="304"/>
      <point x="146" y="285"/>
      <point x="146" y="271" type="qcurve" smooth="yes"/>
      <point x="146" y="33" type="line" smooth="yes"/>
      <point x="146" y="19"/>
      <point x="126" y="0"/>
    </contour>
    <contour>
      <point x="146" y="700" type="line"/>
      <point x="146" y="587" type="line" smooth="yes"/>
      <point x="146" y="573"/>
      <point x="127" y="554"/>
      <point x="113" y="554" type="qcurve" smooth="yes"/>
      <point x="0" y="554" type="line"/>
      <point x="0" y="621" type="line"/>
      <point x="79" y="621" type="line"/>
      <point x="79" y="700" type="line"/>
    </contour>
  </outline>
</glyph>
<glyph name="Scircumflex" format="2">
  <advance width="158"/>
  <unicode hex="015C"/>
  <outline>
    <contour>
      <point x="112" y="0" type="qcurve" smooth="yes"/>
      <point x="33" y="0" type="line" smooth="yes"/>
      <point x="19" y="0"/>
      <point x="0" y="19"/>
      <point x="0" y="33" type="qcurve" smooth="yes"/>
      <point x="0" y="225" type="line"/>
      <point x="67" y="225" type="line"/>
      <point x="67" y="67" type="line"/>
      <point x="79" y="67" type="line"/>
      <point x="79" y="237" type="line"/>
      <point x="33" y="237" type="line" smooth="yes"/>
      <point x="19" y="237"/>
      <point x="0" y="257"/>
      <point x="0" y="271" type="qcurve" smooth="yes"/>
      <point x="0" y="508" type="line" smooth="yes"/>
      <point x="0" y="522"/>
      <point x="19" y="542"/>
      <point x="33" y="542" type="qcurve" smooth="yes"/>
      <point x="112" y="542" type="line" smooth="yes"/>
      <point x="126" y="542"/>
      <point x="146" y="522"/>
      <point x="146" y="508" type="qcurve" smooth="yes"/>
      <point x="146" y="316" type="line"/>
      <point x="79" y="316" type="line"/>
      <point x="79" y="475" type="line"/>
      <point x="67" y="475" type="line"/>
      <point x="67" y="304" type="line"/>
      <point x="112" y="304" type="line" smooth="yes"/>
      <point x="126" y="304"/>
      <point x="146" y="285"/>
      <point x="146" y="271" type="qcurve" smooth="yes"/>
      <point x="146" y="33" type="line" smooth="yes"/>
      <point x="146" y="19"/>
      <point x="126" y="0"/>
    </contour>
    <contour>
      <point x="146" y="554" type="line"/>
      <point x="79" y="554" type="line"/>
      <point x="79" y="614" type="line"/>
      <point x="73" y="620" type="line"/>
      <point x="67" y="614" type="line"/>
      <point x="67" y="554" type="line"/>
      <point x="0" y="554" type="line"/>
      <point x="0" y="627" type="line" smooth="yes"/>
      <point x="0.0" y="634.5" name="inserted"/>
      <point x="5.0" y="646.5"/>
      <point x="10" y="651" type="qcurve"/>
      <point x="49" y="691" type="line" smooth="yes"/>
      <point x="59" y="701"/>
      <point x="87" y="701"/>
      <point x="97" y="691" type="qcurve" smooth="yes"/>
      <point x="136" y="651" type="line"/>
      <point x="141.0" y="646.5" name="inserted"/>
      <point x="146.0" y="634.5"/>
      <point x="146" y="627" type="qcurve" smooth="yes"/>
    </contour>
  </outline>
</glyph>
<glyph name="Scaron" format="2">
  <advance width="158"/>
  <unicode hex="0160"/>
  <outline>
    <contour>
      <point x="112" y="0" type="qcurve" smooth="yes"/>
      <point x="33" y="0" type="line" smooth="yes"/>
      <point x="19" y="0"/>
      <point x="0" y="19"/>
      <point x="0" y="33" type="qcurve" smooth="yes"/>
      <point x="0" y="225" type="line"/>
      <point x="67" y="225" type="line"/>
      <point x="67" y="67" type="line"/>
      <point x="79" y="67" type="line"/>
      <point x="79" y="237" type="line"/>
      <point x="33" y="237" type="line" smooth="yes"/>
      <point x="19" y="237"/>
      <point x="0" y="257"/>
      <point x="0" y="271" type="qcurve" smooth="yes"/>
      <point x="0" y="508" type="line" smooth="yes"/>
      <point x="0" y="522"/>
      <point x="19" y="542"/>
      <point x="33" y="542" type="qcurve" smooth="yes"/>
      <point x="112" y="542" type="line" smooth="yes"/>
      <point x="126" y="542"/>
      <point x="146" y="522"/>
      <point x="146" y="508" type="qcurve" smooth="yes"/>
      <point x="146" y="316" type="line"/>
      <point x="79" y="316" type="line"/>
      <point x="79" y="475" type="line"/>
      <point x="67" y="475" type="line"/>
      <point x="67" y="304" type="line"/>
      <point x="112" y="304" type="line" smooth="yes"/>
      <point x="126" y="304"/>
      <point x="146" y="285"/>
      <point x="146" y="271" type="qcurve" smooth="yes"/>
      <point x="146" y="33" type="line" smooth="yes"/>
      <point x="146" y="19"/>
      <point x="126" y="0"/>
    </contour>
    <contour>
      <point x="0" y="700" type="line"/>
      <point x="67" y="700" type="line"/>
      <point x="67" y="640" type="line"/>
      <point x="73" y="634" type="line"/>
      <point x="79" y="640" type="line"/>
      <point x="79" y="700" type="line"/>
      <point x="146" y="700" type="line"/>
      <point x="146" y="627" type="line" smooth="yes"/>
      <point x="146.0" y="619.5" name="inserted"/>
      <point x="141.0" y="607.5"/>
      <point x="136" y="603" type="qcurve"/>
      <point x="97" y="563" type="line" smooth="yes"/>
      <point x="87" y="553"/>
      <point x="59" y="553"/>
      <point x="49" y="563" type="qcurve" smooth="yes"/>
      <point x="10" y="603" type="line"/>
      <point x="5.0" y="607.5" name="inserted"/>
      <point x="0.0" y="619.5"/>
      <point x="0" y="627" type="qcurve" smooth="yes"/>
    </contour>
  </outline>
</glyph>
<glyph name="Tcaron" format="2">
  <advance width="237"/>
  <unicode hex="0164"/>
  <outline>
    <contour>
      <point x="146" y="0" type="line"/>
      <point x="79" y="0" type="line"/>
      <point x="79" y="475" type="line"/>
      <point x="67" y="475" type="line"/>
      <point x="67" y="277" type="line"/>
      <point x="0" y="277" type="line"/>
      <point x="0" y="542" type="line"/>
      <point x="225" y="542" type="line"/>
      <point x="225" y="277" type="line"/>
      <point x="158" y="277" type="line"/>
      <point x="158" y="475" type="line"/>
      <point x="146" y="475" type="line"/>
    </contour>
    <contour>
      <point x="40" y="700" type="line"/>
      <point x="107" y="700" type="line"/>
      <point x="107" y="640" type="line"/>
      <point x="113" y="634" type="line"/>
      <point x="119" y="640" type="line"/>
      <point x="119" y="700" type="line"/>
      <point x="186" y="700" type="line"/>
      <point x="186" y="627" type="line" smooth="yes"/>
      <point x="186.0" y="619.5" name="inserted"/>
      <point x="181.0" y="607.5"/>
      <point x="176" y="603" type="qcurve"/>
      <point x="137" y="563" type="line" smooth="yes"/>
      <point x="127" y="553"/>
      <point x="99" y="553"/>
      <point x="89" y="563" type="qcurve" smooth="yes"/>
      <point x="50" y="603" type="line"/>
      <point x="45.0" y="607.5" name="inserted"/>
      <point x="40.0" y="619.5"/>
      <point x="40" y="627" type="qcurve" smooth="yes"/>
    </contour>
  </outline>
</glyph>
<glyph name="Tbar" format="2">
  <advance width="237"/>
  <unicode hex="0166"/>
  <outline>
    <contour>
      <point x="146" y="0" type="line"/>
      <point x="79" y="0" type="line"/>
      <point x="79" y="317" type="line"/>
      <point x="0" y="317" type="line"/>
      <point x="0" y="384" type="line"/>
      <point x="79" y="384" type="line"/>
      <point x="79" y="633" type="line"/>
      <point x="67" y="633" type="line"/>
      <point x="67" y="396" type="line"/>
      <point x="0" y="396" type="line"/>
      <point x="0" y="700" type="line"/>
      <point x="225" y="700" type="line"/>
      <point x="225" y="396" type="line"/>
      <point x="158" y="396" type="line"/>
      <point x="158" y="633" type="line"/>
      <point x="146" y="633" type="line"/>
      <point x="146" y="384" type="line"/>
      <point x="225" y="384" type="line"/>
      <point x="225" y="317" type="line"/>
      <point x="146" y="317" type="line"/>
      <point x="146" y="0" type="line"/>
    </contour>
  </outline>
</glyph>
<glyph name="tbar" format="2">
  <advance width="158"/>
  <unicode hex="0167"/>
  <outline>
    <contour>
      <point x="0" y="463" type="line"/>
      <point x="39" y="463" type="line"/>
      <point x="39" y="700" type="line"/>
      <point x="106" y="700" type="line"/>
      <point x="106" y="542" type="line"/>
      <point x="146" y="542" type="line"/>
      <point x="146" y="475" type="line"/>
      <point x="106" y="475" type="line"/>
      <point x="106" y="463" type="line"/>
      <point x="146" y="463" type="line"/>
      <point x="146" y="396" type="line"/>
      <point x="106" y="396" type="line"/>
      <point x="106" y="0" type="line"/>
      <point x="39" y="0" type="line"/>
      <point x="39" y="396" type="line"/>
      <point x="0" y="396" type="line"/>
    </contour>
  </outline>
</glyph>
<glyph name="Utilde" format="2">
  <advance width="158"/>
  <unicode hex="0168"/>
  <outline>
    <contour>
      <point x="79" y="542" type="line"/>
      <point x="146" y="542" type="line"/>
      <point x="146" y="33" type="line" smooth="yes"/>
      <point x="146" y="19"/>
      <point x="126" y="0"/>
      <point x="112" y="0" type="qcurve" smooth="yes"/>
      <point x="33" y="0" type="line" smooth="yes"/>
      <point x="19" y="0"/>
      <point x="0" y="19"/>
      <point x="0" y="33" type="qcurve" smooth="yes"/>
      <point x="0" y="542" type="line"/>
      <point x="67" y="542" type="line"/>
      <point x="67" y="67" type="line"/>
      <point x="79" y="67" type="line"/>
    </contour>
    <contour>
      <point x="146" y="700" type="line"/>
      <point x="146" y="627" type="line" smooth="yes"/>
      <point x="146" y="613"/>
      <point x="127" y="593"/>
      <point x="113" y="593" type="qcurve" smooth="yes"/>
      <point x="67" y="593" type="line"/>
      <point x="67" y="554" type="line"/>
      <point x="0" y="554" type="line"/>
      <point x="0" y="627" type="line" smooth="yes"/>
      <point x="0" y="641"/>
      <point x="19" y="660"/>
      <point x="33" y="660" type="qcurve" smooth="yes"/>
      <point x="79" y="660" type="line"/>
      <point x="79" y="700" type="line"/>
    </contour>
  </outline>
</glyph>
<glyph name="Umacron" format="2">
  <advance width="158"/>
  <unicode hex="016A"/>
  <outline>
    <contour>
      <point x="33" y="0" type="qcurve" smooth="yes"/>
      <point x="113" y="0" type="line" smooth="yes"/>
      <point x="127" y="0"/>
      <point x="146" y="19"/>
      <point x="146" y="33" type="qcurve" smooth="yes"/>
      <point x="146" y="621" type="line"/>
      <point x="79" y="621" type="line"/>
      <point x="79" y="67" type="line"/>
      <point x="67" y="67" type="line"/>
      <point x="67" y="621" type="line"/>
      <point x="0" y="621" type="line"/>
      <point x="0" y="33" type="line" smooth="yes"/>
      <point x="0" y="19"/>
      <point x="19" y="0"/>
    </contour>
    <contour>
      <point x="146" y="633" type="line"/>
      <point x="0" y="633" type="line"/>
      <point x="0" y="700" type="line"/>
      <point x="146" y="700" type="line"/>
    </contour>
  </outline>
</glyph>
<glyph name="Ubreve" format="2">
  <advance width="158"/>
  <unicode hex="016C"/>
  <outline>
    <contour>
      <point x="79" y="542" type="line"/>
      <point x="146" y="542" type="line"/>
      <point x="146" y="33" type="line" smooth="yes"/>
      <point x="146" y="19"/>
      <point x="126" y="0"/>
      <point x="112" y="0" type="qcurve" smooth="yes"/>
      <point x="33" y="0" type="line" smooth="yes"/>
      <point x="19" y="0"/>
      <point x="0" y="19"/>
      <point x="0" y="33" type="qcurve" smooth="yes"/>
      <point x="0" y="542" type="line"/>
      <point x="67" y="542" type="line"/>
      <point x="67" y="67" type="line"/>
      <point x="79" y="67" type="line"/>
    </contour>
    <contour>
      <point x="0" y="700" type="line"/>
      <point x="67" y="700" type="line"/>
      <point x="67" y="621" type="line"/>
      <point x="79" y="621" type="line"/>
      <point x="79" y="700" type="line"/>
      <point x="146" y="700" type="line"/>
      <point x="146" y="588" type="line" smooth="yes"/>
      <point x="146" y="574"/>
      <point x="127" y="554"/>
      <point x="113" y="554" type="qcurve" smooth="yes"/>
      <point x="33" y="554" type="line" smooth="yes"/>
      <point x="19" y="554"/>
      <point x="0" y="574"/>
      <point x="0" y="588" type="qcurve" smooth="yes"/>
    </contour>
  </outline>
</glyph>
<glyph name="Uhungarumlaut" format="2">
  <advance width="158"/>
  <unicode hex="0170"/>
  <outline>
    <contour>
      <point x="79" y="542" type="line"/>
      <point x="146" y="542" type="line"/>
      <point x="146" y="33" type="line" smooth="yes"/>
      <point x="146" y="19"/>
      <point x="126" y="0"/>
      <point x="112" y="0" type="qcurve" smooth="yes"/>
      <point x="33" y="0" type="line" smooth="yes"/>
      <point x="19" y="0"/>
      <point x="0" y="19"/>
      <point x="0" y="33" type="qcurve" smooth="yes"/>
      <point x="0" y="542" type="line"/>
      <point x="67" y="542" type="line"/>
      <point x="67" y="67" type="line"/>
      <point x="79" y="67" type="line"/>
    </contour>
    <contour>
      <point x="146" y="554" type="line"/>
      <point x="79" y="554" type="line"/>
      <point x="79" y="700" type="line"/>
      <point x="146" y="700" type="line"/>
    </contour>
    <contour>
      <point x="67" y="554" type="line"/>
      <point x="0" y="554" type="line"/>
      <point x="0" y="700" type="line"/>
      <point x="67" y="700" type="line"/>
    </contour>
  </outline>
</glyph>
<glyph name="Uogonek" format="2">
  <advance width="158"/>
  <unicode hex="0172"/>
  <outline>
    <contour>
      <point x="33" y="0" type="line"/>
      <point x="19" y="0"/>
      <point x="0" y="19"/>
      <point x="0" y="33" type="qcurve" smooth="yes"/>
      <point x="0" y="700" type="line"/>
      <point x="67" y="700" type="line"/>
      <point x="67" y="67" type="line"/>
      <point x="79" y="67" type="line"/>
      <point x="79" y="700" type="line"/>
      <point x="146" y="700" type="line"/>
      <point x="146" y="33" type="line" smooth="yes"/>
      <point x="146" y="19"/>
      <point x="127" y="0"/>
      <point x="113" y="0" type="qcurve" smooth="yes"/>
      <point x="107" y="0" type="line"/>
      <point x="107" y="-12" type="line"/>
      <point x="146" y="-12" type="line"/>
      <point x="146" y="-79" type="line"/>
      <point x="73" y="-79" type="line" smooth="yes"/>
      <point x="59" y="-79"/>
      <point x="40" y="-60"/>
      <point x="40" y="-46" type="qcurve" smooth="yes"/>
      <point x="40" y="0" type="line"/>
      <point x="33" y="0" type="line"/>
    </contour>
  </outline>
</glyph>
<glyph name="uogonek" format="2">
  <advance width="158"/>
  <unicode hex="0173"/>
  <outline>
    <contour>
      <point x="112" y="-79" type="line" smooth="yes"/>
      <point x="98" y="-79"/>
      <point x="79" y="-60"/>
      <point x="79" y="-46" type="qcurve" smooth="yes"/>
      <point x="79" y="0" type="line"/>
      <point x="33" y="0" type="line" smooth="yes"/>
      <point x="19" y="0"/>
      <point x="0" y="19"/>
      <point x="0" y="33" type="qcurve" smooth="yes"/>
      <point x="0" y="540" type="line"/>
      <point x="67" y="540" type="line"/>
      <point x="67" y="67" type="line"/>
      <point x="79" y="67" type="line"/>
      <point x="79" y="540" type="line"/>
      <point x="146" y="540" type="line"/>
      <point x="146" y="-12" type="line"/>
      <point x="185" y="-12" type="line"/>
      <point x="185" y="-79" type="line"/>
    </contour>
  </outline>
</glyph>
<glyph name="Wcircumflex" format="2">
  <advance width="237"/>
  <unicode hex="0174"/>
  <outline>
    <contour>
      <point x="33" y="0" type="line" smooth="yes"/>
      <point x="19" y="0"/>
      <point x="0" y="20"/>
      <point x="0" y="34" type="qcurve" smooth="yes"/>
      <point x="0" y="542" type="line"/>
      <point x="67" y="542" type="line"/>
      <point x="67" y="67" type="line"/>
      <point x="79" y="67" type="line"/>
      <point x="79" y="542" type="line"/>
      <point x="146" y="542" type="line"/>
      <point x="146" y="67" type="line"/>
      <point x="158" y="67" type="line"/>
      <point x="158" y="542" type="line"/>
      <point x="225" y="542" type="line"/>
      <point x="225" y="0" type="line"/>
    </contour>
    <contour>
      <point x="186" y="554" type="line"/>
      <point x="119" y="554" type="line"/>
      <point x="119" y="614" type="line"/>
      <point x="113" y="620" type="line"/>
      <point x="107" y="614" type="line"/>
      <point x="107" y="554" type="line"/>
      <point x="40" y="554" type="line"/>
      <point x="40" y="627" type="line" smooth="yes"/>
      <point x="40.0" y="634.5" name="inserted"/>
      <point x="45.0" y="646.5"/>
      <point x="50" y="651" type="qcurve"/>
      <point x="89" y="691" type="line" smooth="yes"/>
      <point x="99" y="701"/>
      <point x="127" y="701"/>
      <point x="137" y="691" type="qcurve" smooth="yes"/>
      <point x="176" y="651" type="line"/>
      <point x="181.0" y="646.5" name="inserted"/>
      <point x="186.0" y="634.5"/>
      <point x="186" y="627" type="qcurve" smooth="yes"/>
    </contour>
  </outline>
</glyph>
<glyph name="Ycircumflex" format="2">
  <advance width="158"/>
  <unicode hex="0176"/>
  <outline>
    <contour>
      <point x="107" y="0" type="line"/>
      <point x="40" y="0" type="line"/>
      <point x="40" y="237" type="line"/>
      <point x="34" y="237" type="line" smooth="yes"/>
      <point x="20" y="237"/>
      <point x="0" y="257"/>
      <point x="0" y="271" type="qcurve" smooth="yes"/>
      <point x="0" y="542" type="line"/>
      <point x="67" y="542" type="line"/>
      <point x="67" y="304" type="line"/>
      <point x="79" y="304" type="line"/>
      <point x="79" y="542" type="line"/>
      <point x="146" y="542" type="line"/>
      <point x="146" y="271" type="line" smooth="yes"/>
      <point x="146" y="257"/>
      <point x="127" y="237"/>
      <point x="113" y="237" type="qcurve" smooth="yes"/>
      <point x="107" y="237" type="line"/>
    </contour>
    <contour>
      <point x="146" y="554" type="line"/>
      <point x="79" y="554" type="line"/>
      <point x="79" y="614" type="line"/>
      <point x="73" y="620" type="line"/>
      <point x="67" y="614" type="line"/>
      <point x="67" y="554" type="line"/>
      <point x="0" y="554" type="line"/>
      <point x="0" y="627" type="line" smooth="yes"/>
      <point x="0.0" y="634.5" name="inserted"/>
      <point x="5.0" y="646.5"/>
      <point x="10" y="651" type="qcurve"/>
      <point x="49" y="691" type="line" smooth="yes"/>
      <point x="59" y="701"/>
      <point x="87" y="701"/>
      <point x="97" y="691" type="qcurve" smooth="yes"/>
      <point x="136" y="651" type="line"/>
      <point x="141.0" y="646.5" name="inserted"/>
      <point x="146.0" y="634.5"/>
      <point x="146" y="627" type="qcurve" smooth="yes"/>
    </contour>
  </outline>
</glyph>
<glyph name="Ydieresis" format="2">
  <advance width="158"/>
  <unicode hex="0178"/>
  <outline>
    <contour>
      <point x="146" y="542" type="line"/>
      <point x="146" y="271" type="line" smooth="yes"/>
      <point x="146" y="257"/>
      <point x="126" y="237"/>
      <point x="112" y="237" type="qcurve" smooth="yes"/>
      <point x="106" y="237" type="line"/>
      <point x="106" y="0" type="line"/>
      <point x="39" y="0" type="line"/>
      <point x="39" y="237" type="line"/>
      <point x="33" y="237" type="line" smooth="yes"/>
      <point x="19" y="237"/>
      <point x="0" y="257"/>
      <point x="0" y="271" type="qcurve" smooth="yes"/>
      <point x="0" y="542" type="line"/>
      <point x="67" y="542" type="line"/>
      <point x="67" y="304" type="line"/>
      <point x="79" y="304" type="line"/>
      <point x="79" y="542" type="line"/>
    </contour>
    <contour>
      <point x="146" y="554" type="line"/>
      <point x="79" y="554" type="line"/>
      <point x="79" y="700" type="line"/>
      <point x="146" y="700" type="line"/>
    </contour>
    <contour>
      <point x="67" y="554" type="line"/>
      <point x="0" y="554" type="line"/>
      <point x="0" y="700" type="line"/>
      <point x="67" y="700" type="line"/>
    </contour>
  </outline>
</glyph>
<glyph name="Zacute" format="2">
  <advance width="158"/>
  <unicode hex="0179"/>
  <outline>
    <contour>
      <point x="146" y="0" type="line"/>
      <point x="0" y="0" type="line"/>
      <point x="0" y="231" type="line" smooth="yes"/>
      <point x="0.0" y="238.5" name="inserted"/>
      <point x="5.0" y="250.5"/>
      <point x="10" y="255" type="qcurve"/>
      <point x="79" y="324" type="line"/>
      <point x="79" y="475" type="line"/>
      <point x="67" y="475" type="line"/>
      <point x="67" y="356" type="line"/>
      <point x="0" y="356" type="line"/>
      <point x="0" y="542" type="line"/>
      <point x="146" y="542" type="line"/>
      <point x="146" y="310" type="line" smooth="yes"/>
      <point x="146.0" y="303.0" name="inserted"/>
      <point x="141.0" y="291.5"/>
      <point x="136" y="287" type="qcurve"/>
      <point x="67" y="217" type="line"/>
      <point x="67" y="67" type="line"/>
      <point x="79" y="67" type="line"/>
      <point x="79" y="186" type="line"/>
      <point x="146" y="186" type="line"/>
    </contour>
    <contour>
      <point x="146" y="700" type="line"/>
      <point x="146" y="587" type="line" smooth="yes"/>
      <point x="146" y="573"/>
      <point x="127" y="554"/>
      <point x="113" y="554" type="qcurve" smooth="yes"/>
      <point x="0" y="554" type="line"/>
      <point x="0" y="621" type="line"/>
      <point x="79" y="621" type="line"/>
      <point x="79" y="700" type="line"/>
    </contour>
  </outline>
</glyph>
<glyph name="Zcaron" format="2">
  <advance width="158"/>
  <unicode hex="017D"/>
  <outline>
    <contour>
      <point x="146" y="0" type="line"/>
      <point x="0" y="0" type="line"/>
      <point x="0" y="231" type="line" smooth="yes"/>
      <point x="0.0" y="238.5" name="inserted"/>
      <point x="5.0" y="250.5"/>
      <point x="10" y="255" type="qcurve"/>
      <point x="79" y="324" type="line"/>
      <point x="79" y="475" type="line"/>
      <point x="67" y="475" type="line"/>
      <point x="67" y="356" type="line"/>
      <point x="0" y="356" type="line"/>
      <point x="0" y="542" type="line"/>
      <point x="146" y="542" type="line"/>
      <point x="146" y="310" type="line" smooth="yes"/>
      <point x="146.0" y="303.0" name="inserted"/>
      <point x="141.0" y="291.5"/>
      <point x="136" y="287" type="qcurve"/>
      <point x="67" y="217" type="line"/>
      <point x="67" y="67" type="line"/>
      <point x="79" y="67" type="line"/>
      <point x="79" y="186" type="line"/>
      <point x="146" y="186" type="line"/>
    </contour>
    <contour>
      <point x="0" y="700" type="line"/>
      <point x="67" y="700" type="line"/>
      <point x="67" y="640" type="line"/>
      <point x="73" y="634" type="line"/>
      <point x="79" y="640" type="line"/>
      <point x="79" y="700" type="line"/>
      <point x="146" y="700" type="line"/>
      <point x="146" y="627" type="line" smooth="yes"/>
      <point x="146.0" y="619.5" name="inserted"/>
      <point x="141.0" y="607.5"/>
      <point x="136" y="603" type="qcurve"/>
      <point x="97" y="563" type="line" smooth="yes"/>
      <point x="87" y="553"/>
      <point x="59" y="553"/>
      <point x="49" y="563" type="qcurve" smooth="yes"/>
      <point x="10" y="603" type="line"/>
      <point x="5.0" y="607.5" name="inserted"/>
      <point x="0.0" y="619.5"/>
      <point x="0" y="627" type="qcurve" smooth="yes"/>
    </contour>
  </outline>
</glyph>
<glyph name="longs" format="2">
  <advance width="198"/>
  <unicode hex="017F"/>
  <outline>
    <contour>
      <point x="107" y="0" type="line"/>
      <point x="40" y="0" type="line"/>
      <point x="40" y="396" type="line"/>
      <point x="0" y="396" type="line"/>
      <point x="0" y="463" type="line"/>
      <point x="40" y="463" type="line"/>
      <point x="40" y="666" type="line" smooth="yes"/>
      <point x="40" y="680"/>
      <point x="59" y="700"/>
      <point x="73" y="700" type="qcurve" smooth="yes"/>
      <point x="152" y="700" type="line" smooth="yes"/>
      <point x="166" y="700"/>
      <point x="186" y="680"/>
      <point x="186" y="666" type="qcurve" smooth="yes"/>
      <point x="186" y="475" type="line"/>
      <point x="119" y="475" type="line"/>
      <point x="119" y="633" type="line"/>
      <point x="107" y="633" type="line"/>
    </contour>
  </outline>
</glyph>
<glyph name="Aringacute" format="2">
  <advance width="158"/>
  <unicode hex="01FA"/>
  <outline>
    <contour>
      <point x="146" y="0" type="line"/>
      <point x="79" y="0" type="line"/>
      <point x="79" y="198" type="line"/>
      <point x="67" y="198" type="line"/>
      <point x="67" y="0" type="line"/>
      <point x="0" y="0" type="line"/>
      <point x="0" y="429" type="line" smooth="yes"/>
      <point x="0" y="443"/>
      <point x="20" y="463"/>
      <point x="34" y="463" type="qcurve" smooth="yes"/>
      <point x="113" y="463" type="line" smooth="yes"/>
      <point x="127" y="463"/>
      <point x="146" y="443"/>
      <point x="146" y="429" type="qcurve" smooth="yes"/>
    </contour>
    <contour>
      <point x="68" y="265" type="line"/>
      <point x="80" y="265" type="line"/>
      <point x="80" y="396" type="line"/>
      <point x="68" y="396" type="line"/>
    </contour>
    <contour>
      <point x="112" y="621" type="qcurve" smooth="yes"/>
      <point x="33" y="621" type="line" smooth="yes"/>
      <point x="19" y="621"/>
      <point x="0" y="601"/>
      <point x="0" y="587" type="qcurve" smooth="yes"/>
      <point x="0" y="508" type="line" smooth="yes"/>
      <point x="0" y="494"/>
      <point x="19" y="475"/>
      <point x="33" y="475" type="qcurve" smooth="yes"/>
      <point x="112" y="475" type="line" smooth="yes"/>
      <point x="126" y="475"/>
      <point x="146" y="494"/>
      <point x="146" y="508" type="qcurve" smooth="yes"/>
      <point x="146" y="587" type="line" smooth="yes"/>
      <point x="146" y="601"/>
      <point x="126" y="621"/>
    </contour>
    <contour>
      <point x="79" y="542" type="line"/>
      <point x="67" y="542" type="line"/>
      <point x="67" y="554" type="line"/>
      <point x="79" y="554" type="line"/>
    </contour>
    <contour>
      <point x="146" y="633" type="line"/>
      <point x="0" y="633" type="line"/>
      <point x="0" y="700" type="line"/>
      <point x="146" y="700" type="line"/>
    </contour>
  </outline>
</glyph>
<glyph name="aringacute" format="2">
  <advance width="158"/>
  <unicode hex="01FB"/>
  <outline>
    <contour>
      <point x="146" y="0" type="line"/>
      <point x="33" y="0" type="line" smooth="yes"/>
      <point x="19" y="0"/>
      <point x="0" y="20"/>
      <point x="0" y="34" type="qcurve" smooth="yes"/>
      <point x="0" y="232" type="line" smooth="yes"/>
      <point x="0" y="246"/>
      <point x="19" y="265"/>
      <point x="33" y="265" type="qcurve" smooth="yes"/>
      <point x="79" y="265" type="line"/>
      <point x="79" y="396" type="line"/>
      <point x="67" y="396" type="line"/>
      <point x="67" y="277" type="line"/>
      <point x="0" y="277" type="line"/>
      <point x="0" y="430" type="line" smooth="yes"/>
      <point x="0" y="444"/>
      <point x="19" y="463"/>
      <point x="33" y="463" type="qcurve" smooth="yes"/>
      <point x="113" y="463" type="line" smooth="yes"/>
      <point x="127" y="463"/>
      <point x="146" y="444"/>
      <point x="146" y="430" type="qcurve" smooth="yes"/>
    </contour>
    <contour>
      <point x="67" y="67" type="line"/>
      <point x="79" y="67" type="line"/>
      <point x="79" y="198" type="line"/>
      <point x="67" y="198" type="line"/>
    </contour>
    <contour>
      <point x="112" y="621" type="qcurve" smooth="yes"/>
      <point x="33" y="621" type="line" smooth="yes"/>
      <point x="19" y="621"/>
      <point x="0" y="601"/>
      <point x="0" y="587" type="qcurve" smooth="yes"/>
      <point x="0" y="508" type="line" smooth="yes"/>
      <point x="0" y="494"/>
      <point x="19" y="475"/>
      <point x="33" y="475" type="qcurve" smooth="yes"/>
      <point x="112" y="475" type="line" smooth="yes"/>
      <point x="126" y="475"/>
      <point x="146" y="494"/>
      <point x="146" y="508" type="qcurve" smooth="yes"/>
      <point x="146" y="587" type="line" smooth="yes"/>
      <point x="146" y="601"/>
      <point x="126" y="621"/>
    </contour>
    <contour>
      <point x="79" y="542" type="line"/>
      <point x="67" y="542" type="line"/>
      <point x="67" y="554" type="line"/>
      <point x="79" y="554" type="line"/>
    </contour>
    <contour>
      <point x="146" y="633" type="line"/>
      <point x="0" y="633" type="line"/>
      <point x="0" y="700" type="line"/>
      <point x="146" y="700" type="line"/>
    </contour>
  </outline>
</glyph>
<glyph name="AEacute" format="2">
  <advance width="237"/>
  <unicode hex="01FC"/>
  <outline>
    <contour>
      <point x="225" y="0" type="line"/>
      <point x="79" y="0" type="line"/>
      <point x="79" y="237" type="line"/>
      <point x="67" y="237" type="line"/>
      <point x="67" y="0" type="line"/>
      <point x="0" y="0" type="line"/>
      <point x="0" y="508" type="line" smooth="yes"/>
      <point x="0" y="522"/>
      <point x="19" y="542"/>
      <point x="33" y="542" type="qcurve" smooth="yes"/>
      <point x="225" y="542" type="line"/>
      <point x="225" y="316" type="line"/>
      <point x="158" y="316" type="line"/>
      <point x="158" y="475" type="line"/>
      <point x="146" y="475" type="line"/>
      <point x="146" y="304" type="line"/>
      <point x="225" y="304" type="line"/>
      <point x="225" y="237" type="line"/>
      <point x="146" y="237" type="line"/>
      <point x="146" y="67" type="line"/>
      <point x="158" y="67" type="line"/>
      <point x="158" y="225" type="line"/>
      <point x="225" y="225" type="line"/>
    </contour>
    <contour>
      <point x="67" y="304" type="line"/>
      <point x="79" y="304" type="line"/>
      <point x="79" y="475" type="line"/>
      <point x="67" y="475" type="line"/>
    </contour>
    <contour>
      <point x="186" y="700" type="line"/>
      <point x="186" y="587" type="line" smooth="yes"/>
      <point x="186" y="573"/>
      <point x="167" y="554"/>
      <point x="153" y="554" type="qcurve" smooth="yes"/>
      <point x="40" y="554" type="line"/>
      <point x="40" y="621" type="line"/>
      <point x="119" y="621" type="line"/>
      <point x="119" y="700" type="line"/>
    </contour>
  </outline>
</glyph>
<glyph name="Oslashacute" format="2">
  <advance width="238"/>
  <unicode hex="01FE"/>
  <outline>
    <contour>
      <point x="147" y="0" type="line"/>
      <point x="80" y="0" type="line"/>
      <point x="80" y="79" type="line"/>
      <point x="34" y="79" type="line" smooth="yes"/>
      <point x="20" y="79"/>
      <point x="0" y="99"/>
      <point x="0" y="113" type="qcurve" smooth="yes"/>
      <point x="0" y="508" type="line" smooth="yes"/>
      <point x="0" y="522"/>
      <point x="20" y="542"/>
      <point x="34" y="542" type="qcurve" smooth="yes"/>
      <point x="192" y="542" type="line" smooth="yes"/>
      <point x="206" y="542"/>
      <point x="226" y="522"/>
      <point x="226" y="508" type="qcurve" smooth="yes"/>
      <point x="226" y="113" type="line" smooth="yes"/>
      <point x="226" y="99"/>
      <point x="206" y="79"/>
      <point x="192" y="79" type="qcurve" smooth="yes"/>
      <point x="147" y="79" type="line"/>
    </contour>
    <contour>
      <point x="147" y="146" type="line"/>
      <point x="159" y="146" type="line"/>
      <point x="159" y="475" type="line"/>
      <point x="147" y="475" type="line"/>
    </contour>
    <contour>
      <point x="67" y="146" type="line"/>
      <point x="80" y="146" type="line"/>
      <point x="80" y="475" type="line"/>
      <point x="67" y="475" type="line"/>
    </contour>
    <contour>
      <point x="186" y="700" type="line"/>
      <point x="186" y="587" type="line" smooth="yes"/>
      <point x="186" y="573"/>
      <point x="167" y="554"/>
      <point x="153" y="554" type="qcurve" smooth="yes"/>
      <point x="40" y="554" type="line"/>
      <point x="40" y="621" type="line"/>
      <point x="119" y="621" type="line"/>
      <point x="119" y="700" type="line"/>
    </contour>
  </outline>
</glyph>
